<svg width="19" height="14" viewBox="0 0 19 14" fill="none" xmlns="http://www.w3.org/2000/svg">
<path d="M11.3601 5.86248C10.8227 5.43948 10.2799 5.02511 9.74971 4.59291C9.15081 4.10558 8.53092 3.64246 7.97804 3.09207C7.45183 2.56745 7.38273 1.86872 7.7879 1.17438C8.20395 0.461082 8.80093 0.378279 9.43368 0.677422C9.77207 0.836228 10.0826 1.07276 10.3966 1.2909C12.5992 2.82349 14.7945 4.36848 17.0027 5.89074C18.7739 7.11074 18.874 8.53012 17.08 9.72157C15.0836 11.0482 12.9711 12.1466 10.8851 13.2836C10.2428 13.634 9.52913 13.7111 9.10589 12.8231C8.74999 12.0787 9.01345 11.4635 9.95759 10.7909C10.4177 10.4627 10.888 10.1547 11.6993 9.60236C10.967 9.43383 10.5956 9.28757 10.2173 9.27185C8.11478 9.18719 6.01009 9.13727 3.90661 9.06875C3.28995 9.04841 2.65768 9.08645 2.06059 8.95023C1.42471 8.80437 0.897438 8.35546 0.95755 7.50024C1.02661 6.52818 1.62158 6.19909 2.39851 6.20256C4.68928 6.21477 6.9794 6.22717 9.26936 6.23882C9.93062 6.24176 10.5913 6.24168 11.2522 6.24311C11.2878 6.11635 11.3238 5.98867 11.3601 5.86248Z" fill="#00C8E6"/>
</svg>
