<svg width="201" height="200" viewBox="0 0 201 200" fill="none" xmlns="http://www.w3.org/2000/svg">
<path d="M100.5 150V166.667" stroke="white" stroke-width="5" stroke-miterlimit="10"/>
<path d="M167.167 100H150.5" stroke="white" stroke-width="5" stroke-miterlimit="10"/>
<path d="M33.8333 100H50.4999" stroke="white" stroke-width="5" stroke-miterlimit="10"/>
<path d="M100.5 43.3333V99.9999L129.223 128.723" stroke="white" stroke-width="5" stroke-miterlimit="10"/>
<path d="M30.4999 170H23.8333V176.667H30.4999V170Z" fill="#00C8E6"/>
<path d="M187.167 36.6667H180.5V43.3334H187.167V36.6667Z" fill="#00C8E6"/>
<path d="M177.167 23.3333H170.5V29.9999H177.167V23.3333Z" fill="#00C8E6"/>
<path d="M163.833 13.3333H157.167V19.9999H163.833V13.3333Z" fill="#00C8E6"/>
<path d="M20.4999 156.667H13.8333V163.333H20.4999V156.667Z" fill="#00C8E6"/>
<path d="M43.8334 180H37.1667V186.667H43.8334V180Z" fill="#00C8E6"/>
<path d="M100.5 180C144.683 180 180.5 144.183 180.5 100C180.5 55.8172 144.683 20 100.5 20C56.3172 20 20.5 55.8172 20.5 100C20.5 144.183 56.3172 180 100.5 180Z" stroke="white" stroke-width="5" stroke-miterlimit="10"/>
<path d="M39.5267 24.9834C31.1933 31.7667 24.01 39.9101 18.3167 49.0767" stroke="#00C8E6" stroke-width="5" stroke-miterlimit="10"/>
<path d="M63.8333 10.53C59.1967 12.4334 54.7433 14.6834 50.5 17.2534" stroke="#00C8E6" stroke-width="5" stroke-miterlimit="10"/>
<path d="M161.473 175.017C169.807 168.233 176.99 160.09 182.683 150.923" stroke="#00C8E6" stroke-width="5" stroke-miterlimit="10"/>
<path d="M137.167 189.47C141.803 187.567 146.257 185.317 150.5 182.747" stroke="#00C8E6" stroke-width="5" stroke-miterlimit="10"/>
</svg>
