<svg width="28" height="36" viewBox="0 0 28 36" fill="none" xmlns="http://www.w3.org/2000/svg">
<path d="M20.672 25.8425C22.0156 26.4098 22.1806 27.8693 23.1211 29.0009C23.1714 28.1993 23.2138 27.5938 23.2459 26.9863C23.263 26.6542 23.2268 26.315 23.2776 25.9893C23.3497 25.5291 23.6301 25.2197 24.1096 25.2299C24.5998 25.2405 24.8578 25.5641 24.8517 26.045C24.8283 27.9615 24.8256 29.8808 24.7298 31.7939C24.6854 32.6851 24.0239 33.0433 23.1284 32.7399C22.1968 32.4243 21.2916 32.0296 20.3691 31.688C19.523 31.3748 18.6666 31.0904 17.8184 30.7837C17.512 30.673 17.1969 30.5656 16.9175 30.4008C16.5215 30.1675 16.3493 29.7951 16.516 29.3356C16.6833 28.8761 17.0425 28.6967 17.4987 28.8069C18.0549 28.9417 18.6048 29.1102 19.1499 29.2863C19.8744 29.5199 20.5919 29.7747 21.4604 30.0713C21.047 28.5938 19.8368 27.6175 20.0695 26.1053C18.9361 25.6848 18.6911 24.5249 18.146 23.6281C18.022 23.4245 18.1919 22.8274 18.4053 22.6793C18.6157 22.5331 19.2093 22.5996 19.3637 22.7948C20.0407 23.6554 20.8539 24.4915 20.672 25.8425Z" fill="#00C8E6"/>
<path d="M0.514971 2.60681C0.166029 1.81437 0.580134 1.19281 1.19768 1.27879C2.20404 1.41772 3.01415 2.00622 3.61316 2.81721C3.94865 3.27134 3.54849 4.05449 3.0921 3.89111C2.12594 3.54432 1.23464 2.97876 0.514971 2.60681Z" fill="#00C8E6"/>
<path d="M12.9702 12.5339C12.8662 12.8541 12.8445 13.302 12.6141 13.5408C12.2794 13.8871 11.8315 13.7083 11.5589 13.3525C11.1375 12.8017 10.7105 12.2384 10.4068 11.619C10.2831 11.3672 10.3638 10.856 10.5497 10.6376C10.8595 10.2721 11.3198 10.4032 11.6135 10.7494C12.0613 11.2768 12.4561 11.8512 12.9702 12.5339Z" fill="#00C8E6"/>
<path d="M16.5474 16.9126C16.4435 17.2328 16.4217 17.6807 16.1913 17.9195C15.8567 18.2657 15.4087 18.087 15.1362 17.7312C14.7147 17.1804 14.2877 16.6171 13.9841 15.9977C13.8604 15.7459 13.941 15.2347 14.127 15.0163C14.4367 14.6508 14.8971 14.7818 15.1908 15.128C15.6386 15.6554 16.0334 16.2299 16.5474 16.9126Z" fill="#00C8E6"/>
<path d="M4.59561 5.49911C4.7173 5.16215 4.74436 4.77366 4.94586 4.61726C5.15148 4.45737 5.62542 4.38643 5.80951 4.52101C6.29484 4.87592 6.73933 5.32565 7.08928 5.81905C7.2207 6.00457 7.15241 6.51598 6.98582 6.69323C6.81406 6.87483 6.31407 6.98017 6.12806 6.85608C5.59683 6.49967 5.15294 6.00923 4.59561 5.49911Z" fill="#00C8E6"/>
<path d="M16.2696 20.0797C16.4788 19.7908 16.6112 19.4254 16.8475 19.3326C17.0887 19.2377 17.5632 19.3045 17.7031 19.4862C18.0719 19.9652 18.3755 20.5236 18.5764 21.097C18.6518 21.3126 18.4461 21.7842 18.2376 21.9069C18.0229 22.0324 17.514 21.9912 17.3694 21.819C16.9569 21.3255 16.665 20.7282 16.2696 20.0797Z" fill="#00C8E6"/>
<path d="M7.84301 8.72818C7.92267 8.42667 7.91537 8.02874 8.10402 7.86365C8.29788 7.69356 8.81311 7.60198 8.96136 7.73604C9.46187 8.19115 9.89916 8.73568 10.2761 9.30451C10.3736 9.45181 10.2364 9.93912 10.0687 10.0463C9.84223 10.1913 9.38243 10.2568 9.19923 10.1161C8.72155 9.75061 8.34012 9.25419 7.84301 8.72818Z" fill="#00C8E6"/>
</svg>
