<svg width="46" height="44" viewBox="0 0 46 44" fill="none" xmlns="http://www.w3.org/2000/svg">
<path d="M19.9335 31.8301C20.1712 33.269 19.0252 34.1877 18.5705 35.5872C19.2751 35.2018 19.8098 34.9143 20.3406 34.6171C20.6305 34.4543 20.898 34.2425 21.2005 34.1116C21.6281 33.9269 22.0395 33.9988 22.2868 34.4096C22.5396 34.8298 22.4037 35.2207 21.9939 35.4723C20.3608 36.4758 18.7366 37.4982 17.0678 38.4386C16.2905 38.8769 15.6345 38.5088 15.4129 37.5896C15.1824 36.6334 15.0328 35.6573 14.8291 34.6949C14.6422 33.8122 14.4255 32.9363 14.2319 32.0553C14.162 31.7372 14.0845 31.4134 14.0747 31.0891C14.0606 30.6298 14.2835 30.2853 14.761 30.1809C15.2388 30.0771 15.5823 30.285 15.7327 30.7296C15.9157 31.2719 16.0668 31.8268 16.2089 32.3817C16.3983 33.119 16.5658 33.8618 16.7788 34.7545C17.8073 33.616 17.9867 32.0715 19.3896 31.4609C19.14 30.2781 19.9899 29.4516 20.4572 28.512C20.5631 28.2984 21.1587 28.1232 21.398 28.2246C21.6339 28.3245 21.8946 28.8619 21.8119 29.0966C21.4457 30.1285 21.1729 31.2626 19.9335 31.8301Z" fill="#00C8E6"/>
<path d="M28.8183 2.38077C29.302 1.66264 30.0487 1.68093 30.3057 2.24899C30.7255 3.17409 30.6604 4.17328 30.2945 5.11276C30.0896 5.63889 29.2138 5.71867 29.1083 5.24554C28.8857 4.24346 28.888 3.18787 28.8183 2.38077Z" fill="#00C8E6"/>
<path d="M27.0743 18.2123C26.7481 18.2954 26.3577 18.5161 26.0328 18.4488C25.5614 18.3507 25.4734 17.8765 25.6287 17.4561C25.8694 16.8057 26.1177 16.1439 26.4793 15.5564C26.6262 15.3174 27.1015 15.1126 27.3855 15.1533C27.8599 15.22 27.9948 15.6792 27.8589 16.1124C27.652 16.7726 27.3771 17.4132 27.0743 18.2123Z" fill="#00C8E6"/>
<path d="M25.282 23.5747C24.9557 23.6578 24.5654 23.8785 24.2405 23.8112C23.769 23.7131 23.681 23.2389 23.8363 22.8185C24.077 22.1681 24.3253 21.5063 24.6869 20.9188C24.8338 20.6798 25.3091 20.4751 25.5931 20.5157C26.0675 20.5825 26.2025 21.0416 26.0666 21.4748C25.8597 22.135 25.5848 22.7756 25.282 23.5747Z" fill="#00C8E6"/>
<path d="M28.5514 7.37534C28.9013 7.29832 29.2442 7.11379 29.484 7.20065C29.729 7.28915 30.042 7.65202 30.0265 7.87952C29.9856 8.47938 29.8426 9.09533 29.6123 9.65465C29.5256 9.86483 29.0567 10.0801 28.8179 10.0339C28.5726 9.98563 28.2166 9.61911 28.2222 9.39558C28.2399 8.75611 28.4176 8.11893 28.5514 7.37534Z" fill="#00C8E6"/>
<path d="M22.4557 25.0308C22.8116 25.0534 23.1912 24.9703 23.3959 25.1206C23.605 25.2739 23.8018 25.7108 23.7229 25.9261C23.5148 26.4936 23.2047 27.0485 22.8271 27.5245C22.6851 27.7033 22.1765 27.7812 21.9614 27.6704C21.7407 27.5559 21.5038 27.1036 21.5721 26.8894C21.7692 26.2771 22.1185 25.7114 22.4557 25.0308Z" fill="#00C8E6"/>
<path d="M27.5549 11.8451C27.8523 11.7515 28.1849 11.5328 28.4252 11.6042C28.6725 11.6773 29.025 12.0641 28.9909 12.261C28.8733 12.9272 28.6463 13.5877 28.3666 14.2101C28.2941 14.3712 27.8088 14.5154 27.6286 14.4308C27.3851 14.3167 27.0843 13.9629 27.1054 13.7329C27.1594 13.1338 27.3755 12.5463 27.5549 11.8451Z" fill="#00C8E6"/>
</svg>
