<svg width="201" height="200" viewBox="0 0 201 200" fill="none" xmlns="http://www.w3.org/2000/svg">
<path d="M157.167 16.6667V136.667" stroke="white" stroke-width="5" stroke-miterlimit="10"/>
<path d="M73.8333 20H90.5032" stroke="white" stroke-width="5" stroke-miterlimit="10"/>
<path d="M157.167 166.667V186.667H33.8333V20H63.8366" stroke="white" stroke-width="5" stroke-miterlimit="10"/>
<path d="M120.5 136.667H187.167V140C187.167 149.203 179.703 156.667 170.5 156.667H63.8333" stroke="white" stroke-width="5" stroke-miterlimit="10"/>
<path d="M47.1665 56.6667V140C47.1665 149.203 54.6298 156.667 63.8332 156.667C73.0365 156.667 80.4998 149.203 80.4998 140V136.667H123.847" stroke="white" stroke-width="5" stroke-miterlimit="10"/>
<path d="M47.1665 20V50" stroke="white" stroke-width="5" stroke-miterlimit="10"/>
<path d="M63.8333 10V30" stroke="white" stroke-width="5" stroke-miterlimit="10"/>
<path d="M90.5 10V30" stroke="white" stroke-width="5" stroke-miterlimit="10"/>
<path d="M100.5 20H117.18" stroke="white" stroke-width="5" stroke-miterlimit="10"/>
<path d="M117.177 10V30" stroke="white" stroke-width="5" stroke-miterlimit="10"/>
<path d="M127.167 20H143.833" stroke="white" stroke-width="5" stroke-miterlimit="10"/>
<path d="M143.833 10V30" stroke="white" stroke-width="5" stroke-miterlimit="10"/>
<path d="M119.597 58.5599C114.597 55.2566 108.607 53.3333 102.167 53.3333C84.6767 53.3333 70.5 67.5099 70.5 84.9999C70.5 102.49 84.6767 116.667 102.167 116.667C119.657 116.667 133.833 102.49 133.833 84.9999C133.833 82.3333 133.503 79.7433 132.883 77.2699" stroke="#00C8E6" stroke-width="5" stroke-miterlimit="10"/>
<path d="M177.167 56.6667H170.5V63.3334H177.167V56.6667Z" fill="#00C8E6"/>
<path d="M177.167 70H170.5V76.6667H177.167V70Z" fill="#00C8E6"/>
<path d="M177.167 83.3333H170.5V89.9999H177.167V83.3333Z" fill="#00C8E6"/>
<path d="M88.47 84.6367L98.8333 95L132.583 61.25" stroke="#00C8E6" stroke-width="5" stroke-miterlimit="10"/>
</svg>
