<svg width="151" height="151" viewBox="0 0 151 151" fill="none" xmlns="http://www.w3.org/2000/svg">
<path d="M135.512 76.1187C135.524 75.97 135.547 75.8274 135.58 75.691C135.602 75.5538 135.642 75.4019 135.699 75.2355L136.743 75.4206C136.685 75.5977 136.649 75.7712 136.635 75.9413C136.594 76.4196 136.747 76.818 137.095 77.1366C137.452 77.4667 138.018 77.7397 138.792 77.9553C139.576 78.1719 140.588 78.3544 141.828 78.5027L146.597 79.0689L145.953 86.6415L134.794 85.6923L134.893 84.5286L145.351 85.4181L145.006 85.6938L145.513 79.7314L145.824 80.0468L141.771 79.5576C140.658 79.4201 139.698 79.2582 138.889 79.0716C138.092 78.886 137.431 78.6586 136.908 78.3893C136.396 78.1209 136.022 77.8 135.786 77.4267C135.56 77.0543 135.469 76.6183 135.512 76.1187Z" fill="white"/>
<path d="M134.475 86.9311L142.615 89.0049L142.335 90.1057L135.869 88.4586L140.948 95.5479L140.699 96.5247L132.559 94.4509L132.84 93.3501L139.321 95.0012L134.222 87.9234L134.475 86.9311Z" fill="white"/>
<path d="M130.369 99.5532C130.693 98.7869 131.151 98.1698 131.743 97.702C132.34 97.2482 133.006 96.974 133.741 96.8795C134.486 96.7891 135.241 96.906 136.008 97.2301C136.784 97.5583 137.394 98.0191 137.838 98.6122C138.282 99.2054 138.544 99.8722 138.625 100.613C138.701 101.363 138.577 102.121 138.253 102.888C137.975 103.546 137.596 104.086 137.116 104.509C136.636 104.931 136.076 105.187 135.437 105.275L135.236 104.27C135.742 104.171 136.171 103.964 136.523 103.65C136.876 103.336 137.15 102.948 137.346 102.487C137.578 101.936 137.661 101.386 137.592 100.836C137.533 100.29 137.332 99.7939 136.988 99.3474C136.644 98.9008 136.168 98.5487 135.559 98.2911C134.95 98.0335 134.365 97.9368 133.805 98.0011C133.245 98.0654 132.744 98.2645 132.302 98.5986C131.869 98.9368 131.537 99.3809 131.304 99.9311C131.109 100.393 131.021 100.86 131.042 101.332C131.062 101.803 131.208 102.253 131.479 102.68L130.618 103.237C130.246 102.721 130.039 102.141 129.998 101.498C129.967 100.86 130.091 100.211 130.369 99.5532Z" fill="white"/>
<path d="M127.715 105.03L134.412 108.854L134.005 108.953L135.727 105.938L136.588 106.43L132.867 112.947L132.006 112.455L133.727 109.44L133.849 109.841L127.152 106.016L127.715 105.03Z" fill="white"/>
<path d="M122.157 113.278L123.646 114.387L123.919 114.53L126.409 116.383C126.982 116.81 127.544 116.975 128.094 116.879C128.637 116.792 129.145 116.432 129.616 115.798C129.941 115.362 130.177 114.893 130.325 114.391C130.472 113.889 130.528 113.412 130.492 112.96L131.478 113.056C131.514 113.614 131.431 114.191 131.228 114.784C131.034 115.385 130.74 115.95 130.345 116.481C129.695 117.353 128.977 117.863 128.191 118.008C127.406 118.169 126.573 117.922 125.692 117.266L121.508 114.151L122.157 113.278ZM123.822 110.908C124.198 110.403 124.607 110.023 125.05 109.767C125.495 109.526 125.936 109.416 126.374 109.436C126.82 109.462 127.235 109.618 127.62 109.905C127.971 110.166 128.227 110.483 128.388 110.856C128.552 111.243 128.579 111.689 128.47 112.193C128.363 112.712 128.071 113.292 127.593 113.934L125.864 116.257L125.184 115.751L126.894 113.453C127.378 112.803 127.6 112.263 127.56 111.835C127.514 111.415 127.319 111.077 126.977 110.822C126.592 110.536 126.173 110.456 125.719 110.584C125.265 110.711 124.837 111.045 124.436 111.584C124.054 112.097 123.841 112.624 123.798 113.164C123.758 113.718 123.896 114.247 124.214 114.749L123.432 114.487C123.115 113.984 122.982 113.42 123.036 112.795C123.082 112.179 123.345 111.549 123.822 110.908Z" fill="white"/>
<path d="M120.458 115.372L126.398 121.312L125.594 122.115L120.877 117.397L121.623 126.086L120.911 126.799L114.971 120.859L115.774 120.056L120.503 124.785L119.734 116.096L120.458 115.372ZM124.565 124.865C125.063 124.367 125.591 124.088 126.149 124.027C126.707 123.982 127.231 124.189 127.721 124.65L127.144 125.227C126.835 124.932 126.492 124.8 126.115 124.831C125.738 124.861 125.387 125.038 125.063 125.362C124.738 125.687 124.561 126.037 124.531 126.415C124.493 126.799 124.621 127.146 124.916 127.455L124.339 128.032C123.871 127.55 123.664 127.025 123.716 126.46C123.777 125.902 124.06 125.37 124.565 124.865Z" fill="white"/>
<path d="M110.927 123.981L115.591 130.967L112.504 133.028C111.714 133.555 110.992 133.819 110.338 133.82C109.676 133.826 109.149 133.536 108.758 132.951C108.379 132.383 108.303 131.799 108.531 131.198C108.764 130.606 109.236 130.073 109.945 129.6L109.945 130.003C109.112 130.56 108.396 130.814 107.798 130.764C107.201 130.714 106.706 130.396 106.315 129.811C105.913 129.207 105.821 128.589 106.039 127.956C106.255 127.337 106.824 126.72 107.746 126.104L110.927 123.981ZM110.506 125.339L108.284 126.823C107.689 127.22 107.304 127.612 107.126 128C106.946 128.402 106.998 128.816 107.282 129.242C107.567 129.668 107.911 129.886 108.317 129.898C108.722 129.91 109.222 129.717 109.816 129.32L112.132 127.774L110.506 125.339ZM112.603 128.48L110.5 129.883C109.959 130.245 109.615 130.622 109.467 131.016C109.31 131.415 109.362 131.81 109.623 132.2C109.884 132.591 110.225 132.786 110.648 132.785C111.063 132.791 111.54 132.613 112.081 132.252L114.184 130.848L112.603 128.48Z" fill="white"/>
<path d="M104.22 128.262L107.862 135.831L106.839 136.323L105.229 132.978L100.457 135.275L102.067 138.62L101.043 139.113L97.4002 131.544L98.4238 131.051L100.034 134.396L104.806 132.099L103.196 128.754L104.22 128.262Z" fill="white"/>
<path d="M96.2743 131.903L98.6856 139.95L97.5974 140.276L95.6822 133.885L92.2178 141.888L91.2522 142.177L88.8409 134.131L89.9291 133.805L91.849 140.211L95.2934 132.197L96.2743 131.903Z" fill="white"/>
<path d="M84.6717 134.674C83.9861 134.778 83.3851 134.976 82.8686 135.27C82.3416 135.566 81.9425 135.923 81.6714 136.341C81.4019 136.771 81.3047 137.233 81.3797 137.729C81.4755 138.362 81.8202 138.822 82.4139 139.11C82.9971 139.399 83.7633 139.472 84.7125 139.328L84.7145 139.02C84.1766 139.102 83.7095 139.259 83.3132 139.491C82.9169 139.724 82.6153 140.012 82.4084 140.356C82.2016 140.701 82.1293 141.078 82.1916 141.49C82.2618 141.954 82.4798 142.325 82.8457 142.604C83.2132 142.894 83.6794 143.088 84.2444 143.186C84.7989 143.285 85.4067 143.274 86.068 143.152C86.5531 143.079 87.0279 142.937 87.4923 142.726C87.9477 142.528 88.3989 142.266 88.8457 141.939L88.3976 141.117C87.9987 141.404 87.5858 141.633 87.1588 141.806C86.7334 141.989 86.3158 142.117 85.9061 142.19C85.4526 142.258 85.0386 142.267 84.664 142.216C84.2895 142.165 83.9861 142.049 83.7538 141.868C83.5109 141.689 83.3672 141.452 83.3225 141.157C83.281 140.882 83.3347 140.632 83.4837 140.404C83.6221 140.178 83.8415 139.988 84.142 139.835C84.4424 139.682 84.7983 139.574 85.2096 139.512L86.5543 139.308L86.4298 138.486L85.006 138.701C84.3099 138.806 83.7424 138.763 83.3033 138.57C82.8658 138.388 82.6136 138.076 82.5465 137.633C82.5002 137.327 82.5642 137.037 82.7384 136.763C82.9127 136.488 83.1792 136.254 83.5382 136.059C83.8971 135.864 84.3342 135.723 84.8493 135.634C85.3661 135.556 85.8994 135.551 86.449 135.618C87.0003 135.697 87.4987 135.853 87.9441 136.088L88.1811 135.195C87.6749 134.915 87.1138 134.736 86.4976 134.656C85.8815 134.577 85.2728 134.583 84.6717 134.674Z" fill="white"/>
<path d="M43.6661 126.338C43.7859 126.427 43.8951 126.522 43.9936 126.622C44.0985 126.713 44.2066 126.827 44.318 126.963L43.6105 127.753C43.4905 127.61 43.3621 127.488 43.2252 127.386C42.8401 127.1 42.4206 127.02 41.9667 127.148C41.4978 127.277 40.9679 127.614 40.3768 128.158C39.7793 128.711 39.0909 129.475 38.3115 130.451L35.3172 134.205L29.2206 129.668L35.9078 120.683L36.8448 121.381L30.5779 129.8L30.5251 129.362L35.3254 132.935L34.8938 133.033L37.4453 129.846C38.1483 128.973 38.792 128.242 39.3765 127.653C39.9547 127.073 40.496 126.631 41.0005 126.329C41.4986 126.035 41.9685 125.886 42.4101 125.882C42.8453 125.887 43.264 126.039 43.6661 126.338Z" fill="white"/>
<path d="M34.9714 119.704L28.9248 125.535L28.1363 124.717L32.939 120.086L24.238 120.675L23.5383 119.949L29.5849 114.118L30.3734 114.936L25.5592 119.578L34.2606 118.967L34.9714 119.704Z" fill="white"/>
<path d="M26.4768 109.688C26.9613 110.365 27.2487 111.077 27.339 111.826C27.4144 112.573 27.3006 113.284 26.9977 113.96C26.6862 114.642 26.1922 115.226 25.5158 115.71C24.8308 116.201 24.1194 116.481 23.3817 116.55C22.644 116.619 21.9383 116.495 21.2646 116.177C20.5846 115.851 20.0024 115.349 19.5179 114.673C19.1017 114.092 18.8387 113.487 18.7287 112.857C18.6188 112.227 18.693 111.616 18.9513 111.025L19.9134 111.379C19.7342 111.861 19.6865 112.335 19.7702 112.8C19.8539 113.265 20.0417 113.701 20.3337 114.108C20.6815 114.594 21.1079 114.951 21.6129 115.18C22.1092 115.415 22.6376 115.502 23.1979 115.442C23.7583 115.382 24.3073 115.159 24.845 114.774C25.3826 114.389 25.7701 113.941 26.0075 113.429C26.2449 112.918 26.3366 112.387 26.2825 111.835C26.2198 111.289 26.0145 110.774 25.6667 110.288C25.3747 109.881 25.0221 109.563 24.6089 109.334C24.1957 109.105 23.7362 108.995 23.2303 109.003L23.2047 107.978C23.8395 107.93 24.4417 108.056 25.0112 108.357C25.5721 108.663 26.0606 109.107 26.4768 109.688Z" fill="white"/>
<path d="M23.166 104.504L16.3995 108.204L16.5281 107.805L18.1939 110.852L17.3235 111.328L13.7233 104.744L14.5936 104.268L16.2594 107.314L15.8545 107.207L22.6209 103.507L23.166 104.504Z" fill="white"/>
<path d="M19.0883 95.5506L17.3657 96.2415L17.1014 96.3993L14.2205 97.5548C13.5572 97.8208 13.1228 98.2134 12.9173 98.7326C12.7078 99.2418 12.75 99.8628 13.0438 100.595C13.2463 101.1 13.5231 101.547 13.874 101.935C14.225 102.322 14.6026 102.619 15.0069 102.825L14.4104 103.616C13.915 103.355 13.467 102.983 13.0664 102.5C12.6559 102.021 12.3276 101.474 12.0814 100.861C11.6764 99.8509 11.6171 98.9725 11.9036 98.2255C12.1763 97.4725 12.8224 96.8916 13.8421 96.4826L18.6832 94.5408L19.0883 95.5506ZM20.2406 98.2087C20.4749 98.7928 20.5853 99.3403 20.5719 99.8514C20.5447 100.357 20.4084 100.79 20.1632 101.153C19.908 101.52 19.5577 101.792 19.1122 101.971C18.7063 102.134 18.3022 102.187 17.9001 102.13C17.4841 102.067 17.0897 101.857 16.717 101.501C16.3304 101.139 15.9882 100.587 15.6904 99.8441L14.6123 97.1563L15.3993 96.8406L16.4655 99.4987C16.7673 100.251 17.1114 100.722 17.4978 100.912C17.8803 101.092 18.2695 101.102 18.6655 100.944C19.111 100.765 19.3979 100.449 19.5262 99.995C19.6546 99.5413 19.5936 99.0026 19.3435 98.3789C19.1052 97.7849 18.7671 97.3286 18.329 97.0101C17.8771 96.6857 17.354 96.5278 16.7598 96.5362L17.3922 96.0068C17.9864 95.9983 18.5362 96.18 19.0417 96.5519C19.5431 96.9139 19.9428 97.4662 20.2406 98.2087Z" fill="white"/>
<path d="M18.2143 93.0705L10.0437 95.0202L9.78002 93.9152L16.2698 92.3666L8.47652 88.4526L8.24255 87.4721L16.4132 85.5224L16.6768 86.6274L10.1715 88.1797L17.9766 92.0745L18.2143 93.0705ZM7.97705 91.5984C8.14045 92.2832 8.10171 92.8791 7.86083 93.3862C7.6071 93.8854 7.15589 94.2234 6.50719 94.4001L6.31779 93.6064C6.73033 93.497 7.02249 93.2737 7.19428 92.9367C7.36607 92.5996 7.39873 92.208 7.29227 91.7618C7.18581 91.3157 6.97984 90.981 6.67436 90.7578C6.36641 90.5243 6.00368 90.4518 5.58619 90.5405L5.3968 89.7468C6.05292 89.6012 6.60812 89.699 7.06239 90.0402C7.50628 90.3839 7.81117 90.9033 7.97705 91.5984Z" fill="white"/>
<path d="M15.8587 80.2817L7.46274 80.5411L7.34814 76.8308C7.31883 75.882 7.47703 75.13 7.82273 74.5751C8.1681 74.0095 8.69262 73.7158 9.39628 73.6941C10.0786 73.673 10.6144 73.9179 11.0037 74.4288C11.3824 74.9401 11.5848 75.6221 11.6112 76.4751L11.2684 76.2615C11.2375 75.2593 11.4013 74.5179 11.76 74.0373C12.1187 73.5567 12.6498 73.3055 13.3535 73.2837C14.0785 73.2614 14.6518 73.5104 15.0734 74.031C15.484 74.5412 15.7064 75.3508 15.7407 76.4596L15.8587 80.2817ZM14.9291 79.2059L14.8466 76.5352C14.8245 75.8209 14.6959 75.2859 14.4609 74.9303C14.2148 74.5644 13.8359 74.3894 13.3241 74.4052C12.8123 74.421 12.4443 74.5978 12.22 74.9355C11.9956 75.2733 11.8945 75.7993 11.9165 76.5136L12.0025 79.2963L14.9291 79.2059ZM11.1549 79.3225L11.0768 76.7957C11.0567 76.1453 10.9188 75.6534 10.6631 75.3198C10.407 74.9755 10.0444 74.8106 9.57528 74.8251C9.10617 74.8396 8.75977 75.0264 8.53609 75.3855C8.31207 75.7339 8.2101 76.2333 8.23019 76.8836L8.30823 79.4104L11.1549 79.3225Z" fill="white"/>
<path d="M15.745 72.3148L7.39388 71.4099L7.51627 70.2805L11.2067 70.6804L11.7772 65.4152L8.08681 65.0153L8.20919 63.886L16.5603 64.7909L16.4379 65.9203L12.7475 65.5204L12.177 70.7856L15.8674 71.1855L15.745 72.3148Z" fill="white"/>
<path d="M16.8597 63.4649L8.75214 61.2677L9.04928 60.1713L15.489 61.9164L10.5182 54.7508L10.7818 53.7779L18.8894 55.975L18.5923 57.0714L12.1371 55.3221L17.1276 62.4765L16.8597 63.4649Z" fill="white"/>
<path d="M20.5593 52.2925C20.8318 51.655 20.9789 51.0393 21.0008 50.4454C21.0268 49.8417 20.9331 49.3145 20.7197 48.8637C20.4966 48.4087 20.1545 48.0827 19.6935 47.8857C19.105 47.6342 18.5322 47.6852 17.9751 48.0387C17.4222 48.3824 16.9571 48.9957 16.5799 49.8784L16.8406 50.042C17.0543 49.5418 17.1666 49.062 17.1773 48.6026C17.1881 48.1432 17.1015 47.735 16.9177 47.378C16.7338 47.0211 16.4507 46.7608 16.0681 46.5973C15.6366 46.4129 15.2059 46.4028 14.776 46.5671C14.3364 46.7273 13.9263 47.0218 13.5458 47.4508C13.1695 47.8699 12.8591 48.3927 12.6146 49.019C12.4218 49.4702 12.2927 49.9486 12.2274 50.4543C12.1565 50.946 12.1423 51.4677 12.1848 52.0195L13.1198 52.0711C13.0857 51.5809 13.1076 51.1089 13.1856 50.655C13.2538 50.1969 13.3647 49.7745 13.5184 49.3878C13.6986 48.9661 13.909 48.6094 14.1496 48.3178C14.3903 48.0263 14.6485 47.8292 14.9243 47.7267C15.2043 47.6144 15.4816 47.6169 15.7562 47.7342C16.0113 47.8432 16.1963 48.0209 16.3114 48.2673C16.4307 48.5039 16.4765 48.7903 16.4489 49.1264C16.4212 49.4626 16.3256 49.822 16.1621 50.2045L15.6277 51.4551L16.3927 51.782L16.9586 50.4579C17.2353 49.8105 17.571 49.3508 17.9657 49.0787C18.3505 48.8024 18.749 48.7523 19.1609 48.9283C19.4454 49.0499 19.6585 49.257 19.8002 49.5495C19.942 49.8421 20.0012 50.1922 19.9778 50.5998C19.9544 51.0074 19.8449 51.4536 19.6493 51.9384C19.4439 52.419 19.1677 52.8752 18.8208 53.3069C18.4641 53.7345 18.0688 54.0759 17.6348 54.3313L18.27 55.0029C18.7739 54.7195 19.2217 54.3367 19.6134 53.8545C20.0051 53.3723 20.3204 52.8516 20.5593 52.2925Z" fill="white"/>
<path d="M46.2202 23.3501C46.0847 23.4128 45.9496 23.4637 45.8148 23.5026C45.6845 23.5512 45.5329 23.592 45.3601 23.625L45.0035 22.6264C45.186 22.5889 45.3546 22.5343 45.5095 22.4626C45.9451 22.2609 46.2151 21.9301 46.3195 21.4703C46.4292 20.9964 46.3859 20.3699 46.1897 19.5909C45.989 18.8022 45.6459 17.8326 45.1601 16.6822L43.2883 12.2594L50.1847 9.0657L54.8911 19.2288L53.8313 19.7196L49.4206 10.1953L49.8309 10.358L44.4009 12.8726L44.5211 12.4467L46.1049 16.2095C46.5369 17.2437 46.8722 18.1581 47.1108 18.9527C47.345 19.7376 47.4748 20.424 47.5001 21.0118C47.521 21.5898 47.4277 22.0738 47.2204 22.4637C47.0085 22.8439 46.6752 23.1394 46.2202 23.3501Z" fill="white"/>
<path d="M56.3454 18.8065L54.1483 10.6989L55.2448 10.4018L56.9899 16.8415L60.6653 8.93285L61.6382 8.66919L63.8353 16.7768L62.7388 17.0739L60.9895 10.6187L57.3338 18.5386L56.3454 18.8065Z" fill="white"/>
<path d="M68.9639 16.2067C68.1378 16.3059 67.3749 16.2148 66.675 15.9336C65.9845 15.6405 65.4158 15.1984 64.9688 14.6075C64.5206 14.006 64.2469 13.2922 64.1477 12.4661C64.0473 11.6294 64.1443 10.8711 64.4387 10.1912C64.7331 9.51126 65.1816 8.95248 65.7845 8.51484C66.3978 8.07594 67.1176 7.8069 67.9436 7.70774C68.6532 7.62256 69.3105 7.68332 69.9154 7.89002C70.5204 8.09672 71.0201 8.45572 71.4145 8.96702L70.6412 9.63999C70.3044 9.25069 69.9121 8.98086 69.4643 8.83049C69.0165 8.68013 68.5438 8.63482 68.046 8.69457C67.4529 8.76577 66.9346 8.96765 66.4911 9.30022C66.0463 9.62219 65.7155 10.0433 65.4986 10.5635C65.2817 11.0837 65.2127 11.6722 65.2915 12.3288C65.3703 12.9854 65.5767 13.5408 65.9105 13.9949C66.2444 14.449 66.6661 14.7851 67.1757 15.0033C67.6841 15.2108 68.2348 15.279 68.8279 15.2078C69.3256 15.1481 69.7743 14.9921 70.1737 14.7401C70.5732 14.488 70.8911 14.1383 71.1275 13.6909L72.0381 14.1617C71.7746 14.7413 71.3741 15.2083 70.8365 15.5629C70.2977 15.9069 69.6735 16.1215 68.9639 16.2067Z" fill="white"/>
<path d="M75.4186 15.7663L75.4483 8.05439L75.7352 8.3595L72.2632 8.34609L72.267 7.3541L79.771 7.38307L79.7671 8.37506L76.2952 8.36166L76.5843 8.05877L76.5546 15.7707L75.4186 15.7663Z" fill="white"/>
<path d="M85.386 16.5171L85.6143 14.6752L85.604 14.3676L85.9858 11.2872C86.0737 10.5779 85.9402 10.0078 85.5852 9.57691C85.2407 9.14728 84.6768 8.88391 83.8935 8.78682C83.3536 8.71991 82.8291 8.74625 82.3198 8.86585C81.8106 8.98546 81.3682 9.17247 80.9927 9.42688L80.5889 8.52234C81.057 8.21491 81.5992 8.00266 82.2156 7.88559C82.8333 7.75794 83.4704 7.73479 84.1267 7.81613C85.2064 7.94996 86.0039 8.32289 86.5192 8.93492C87.0464 9.53768 87.2425 10.3842 87.1073 11.4745L86.4657 16.6509L85.386 16.5171ZM82.5021 16.2403C81.8776 16.1629 81.3449 15.9947 80.904 15.7359C80.4751 15.4677 80.1612 15.1386 79.9623 14.7485C79.7648 14.3479 79.6955 13.9094 79.7546 13.433C79.8084 12.999 79.9575 12.6198 80.2019 12.2954C80.4582 11.9617 80.8324 11.7179 81.3244 11.5639C81.8283 11.4006 82.4772 11.3682 83.2712 11.4666L86.1452 11.8228L86.0409 12.6644L83.1986 12.3121C82.3941 12.2124 81.8153 12.2858 81.4623 12.5322C81.1199 12.78 80.9225 13.1156 80.87 13.539C80.811 14.0154 80.949 14.4194 81.2841 14.7511C81.6191 15.0829 82.1201 15.2901 82.787 15.3727C83.4221 15.4515 83.985 15.3761 84.4756 15.1467C84.9781 14.9081 85.3694 14.5266 85.6493 14.0024L85.8069 14.8119C85.527 15.3361 85.102 15.7295 84.5321 15.9921C83.9727 16.256 83.2961 16.3387 82.5021 16.2403Z" fill="white"/>
<path d="M87.7754 16.8798L90.0032 8.78058L91.0986 9.08187L89.329 15.5149L96.5134 10.5713L97.4853 10.8387L95.2575 18.9379L94.1622 18.6366L95.936 12.1881L88.7627 17.1513L87.7754 16.8798ZM93.9974 8.61808C93.3186 8.43136 92.815 8.11031 92.4867 7.65493C92.1715 7.19209 92.0928 6.63388 92.2504 5.98028L93.0372 6.1967C92.9343 6.61092 92.9892 6.97449 93.2018 7.28742C93.4144 7.60035 93.7419 7.81764 94.1841 7.93929C94.6263 8.06093 95.0188 8.04168 95.3616 7.88151C95.7146 7.72418 95.9529 7.44123 96.0763 7.03267L96.8631 7.24909C96.6746 7.89419 96.3214 8.33359 95.8035 8.56728C95.2885 8.79069 94.6865 8.80762 93.9974 8.61808Z" fill="white"/>
<path d="M100.103 20.9238L103.913 13.4377L107.221 15.1215C108.067 15.5521 108.651 16.0524 108.971 16.6224C109.301 17.1972 109.306 17.7983 108.987 18.4257C108.677 19.0341 108.204 19.3861 107.569 19.4818C106.939 19.5679 106.244 19.4174 105.483 19.0303L105.835 18.8325C106.729 19.2873 107.3 19.7875 107.549 20.3331C107.798 20.8787 107.763 21.4653 107.443 22.0927C107.114 22.7391 106.62 23.1219 105.961 23.2412C105.316 23.3559 104.499 23.1616 103.511 22.6584L100.103 20.9238ZM101.493 20.6261L103.874 21.8381C104.511 22.1623 105.042 22.3068 105.467 22.2717C105.906 22.2319 106.242 21.9839 106.474 21.5276C106.706 21.0713 106.728 20.6636 106.54 20.3044C106.352 19.9453 105.939 19.6037 105.302 19.2795L102.821 18.0166L101.493 20.6261ZM103.206 17.2609L105.459 18.4076C106.039 18.7028 106.536 18.8184 106.952 18.7546C107.377 18.6957 107.696 18.457 107.909 18.0388C108.122 17.6205 108.124 17.227 107.917 16.8582C107.719 16.4942 107.331 16.1646 106.751 15.8695L104.498 14.7228L103.206 17.2609Z" fill="white"/>
<path d="M107.112 24.6234L111.929 17.7414L112.859 18.3927L110.731 21.4339L115.07 24.4705L117.198 21.4293L118.129 22.0807L113.313 28.9627L112.382 28.3114L114.51 25.2702L110.171 22.2336L108.043 25.2748L107.112 24.6234Z" fill="white"/>
<path d="M114.251 29.7788L120.06 23.7111L120.88 24.4967L116.267 29.3162L124.937 28.3803L125.665 29.0773L119.856 35.1451L119.036 34.3595L123.661 29.5284L114.991 30.487L114.251 29.7788Z" fill="white"/>
<path d="M122.355 38.4233C122.785 38.9672 123.256 39.3905 123.767 39.6933C124.285 40.0044 124.793 40.1739 125.291 40.2018C125.797 40.223 126.247 40.0781 126.64 39.7672C127.142 39.3703 127.371 38.8427 127.327 38.1844C127.289 37.5345 126.972 36.833 126.377 36.0799L126.108 36.2308C126.446 36.6576 126.814 36.9853 127.212 37.2142C127.611 37.443 128.011 37.5619 128.412 37.5709C128.814 37.5798 129.177 37.4553 129.504 37.1973C129.872 36.9062 130.086 36.5326 130.147 36.0765C130.217 35.6138 130.154 35.1128 129.959 34.5736C129.77 34.0428 129.459 33.5205 129.025 33.0065C128.721 32.6217 128.362 32.2798 127.949 31.9809C127.551 31.6837 127.1 31.4221 126.595 31.196L126.103 31.9928C126.55 32.1969 126.954 32.4416 127.315 32.7269C127.685 33.0055 128.003 33.3047 128.27 33.6244C128.554 33.9842 128.767 34.3394 128.908 34.6901C129.05 35.0407 129.099 35.3617 129.058 35.653C129.023 35.9526 128.888 36.1951 128.654 36.3803C128.436 36.5523 128.192 36.6301 127.92 36.6135C127.656 36.6053 127.382 36.5088 127.1 36.324C126.818 36.1391 126.548 35.8835 126.29 35.5572L125.446 34.4904L124.794 35.0064L125.687 36.136C126.123 36.6882 126.367 37.2027 126.417 37.6794C126.476 38.1495 126.33 38.5235 125.979 38.8014C125.736 38.9932 125.452 39.0816 125.128 39.0664C124.803 39.0512 124.467 38.936 124.12 38.7208C123.773 38.5056 123.433 38.1963 123.101 37.7929C122.777 37.3829 122.508 36.9224 122.294 36.4114C122.089 35.8938 121.978 35.3834 121.961 34.8802L121.067 35.1175C121.076 35.6956 121.198 36.2719 121.435 36.8463C121.671 37.4207 121.978 37.9464 122.355 38.4233Z" fill="white"/>
</svg>
