<svg width="1420" height="645" viewBox="0 0 1420 645" fill="none" xmlns="http://www.w3.org/2000/svg">
<path d="M788.476 3.58344e-05L-2 0V645H1404.36C1417.64 645 1424.37 629.012 1415.09 619.515L824.2 15.0486C814.793 5.42504 801.934 3.78876e-05 788.476 3.58344e-05Z" fill="url(#paint0_linear_656_398)"/>
<rect width="40" height="71" transform="matrix(1 0 0 -1 671 645)" fill="url(#paint1_linear_656_398)"/>
<rect width="40" height="83" transform="matrix(1 0 0 -1 711 645)" fill="url(#paint2_linear_656_398)"/>
<rect width="40" height="180" transform="matrix(1 0 0 -1 751 645)" fill="url(#paint3_linear_656_398)"/>
<rect width="40" height="197" transform="matrix(1 0 0 -1 831 645)" fill="url(#paint4_linear_656_398)"/>
<rect width="40" height="124" transform="matrix(1 0 0 -1 871 645)" fill="url(#paint5_linear_656_398)"/>
<rect width="40" height="95" transform="matrix(1 0 0 -1 991 645)" fill="url(#paint6_linear_656_398)"/>
<rect width="40" height="119" transform="matrix(1 0 0 -1 1071 645)" fill="url(#paint7_linear_656_398)"/>
<rect width="40" height="71" transform="matrix(1 0 0 -1 1031 645)" fill="url(#paint8_linear_656_398)"/>
<rect width="40" height="88" transform="matrix(1 0 0 -1 911 645)" fill="url(#paint9_linear_656_398)"/>
<rect width="40" height="140" transform="matrix(1 0 0 -1 791 645)" fill="url(#paint10_linear_656_398)"/>
<rect width="40" height="49" transform="matrix(1 0 0 -1 631 645)" fill="url(#paint11_linear_656_398)"/>
<rect width="40" height="21" transform="matrix(1 0 0 -1 511 645)" fill="url(#paint12_linear_656_398)"/>
<rect width="40" height="49" transform="matrix(1 0 0 -1 471 645)" fill="url(#paint13_linear_656_398)"/>
<rect width="40" height="38" transform="matrix(1 0 0 -1 351 645)" fill="url(#paint14_linear_656_398)"/>
<rect width="40" height="28" transform="matrix(1 0 0 -1 191 645)" fill="url(#paint15_linear_656_398)"/>
<rect width="40" height="71" transform="matrix(1 0 0 -1 231 645)" fill="url(#paint16_linear_656_398)"/>
<rect width="40" height="103" transform="matrix(1 0 0 -1 311 645)" fill="url(#paint17_linear_656_398)"/>
<rect width="40" height="87" transform="matrix(1 0 0 -1 391 645)" fill="url(#paint18_linear_656_398)"/>
<rect width="40" height="103" transform="matrix(1 0 0 -1 431 645)" fill="url(#paint19_linear_656_398)"/>
<rect width="40" height="133" transform="matrix(1 0 0 -1 551 645)" fill="url(#paint20_linear_656_398)"/>
<rect width="40" height="108" transform="matrix(1 0 0 -1 591 645)" fill="url(#paint21_linear_656_398)"/>
<rect width="40" height="54" transform="matrix(1 0 0 -1 271 645)" fill="url(#paint22_linear_656_398)"/>
<rect width="40" height="59" transform="matrix(1 0 0 -1 111 645)" fill="url(#paint23_linear_656_398)"/>
<rect width="40" height="87" transform="matrix(1 0 0 -1 151 645)" fill="url(#paint24_linear_656_398)"/>
<rect width="40" height="55" transform="matrix(1 0 0 -1 951 645)" fill="url(#paint25_linear_656_398)"/>
<rect width="40" height="42" transform="matrix(1 0 0 -1 1111 645)" fill="url(#paint26_linear_656_398)"/>
<rect width="40" height="66" transform="matrix(1 0 0 -1 1191 645)" fill="url(#paint27_linear_656_398)"/>
<rect width="40" height="92" transform="matrix(1 0 0 -1 1231 645)" fill="url(#paint28_linear_656_398)"/>
<rect width="40" height="42" transform="matrix(1 0 0 -1 1271 645)" fill="url(#paint29_linear_656_398)"/>
<rect width="40" height="29" transform="matrix(1 0 0 -1 1151 645)" fill="url(#paint30_linear_656_398)"/>
<defs>
<linearGradient id="paint0_linear_656_398" x1="719" y1="-7.62044e-08" x2="719" y2="645" gradientUnits="userSpaceOnUse">
<stop stop-color="#00C8E6"/>
<stop offset="1" stop-color="#00C8E6" stop-opacity="0.2"/>
</linearGradient>
<linearGradient id="paint1_linear_656_398" x1="20" y1="0" x2="20" y2="71" gradientUnits="userSpaceOnUse">
<stop stop-color="#00C8E6"/>
<stop offset="1" stop-color="#00C8E6" stop-opacity="0"/>
</linearGradient>
<linearGradient id="paint2_linear_656_398" x1="20" y1="0" x2="20" y2="83" gradientUnits="userSpaceOnUse">
<stop stop-color="#00C8E6"/>
<stop offset="1" stop-color="#00C8E6" stop-opacity="0"/>
</linearGradient>
<linearGradient id="paint3_linear_656_398" x1="20" y1="0" x2="20" y2="180" gradientUnits="userSpaceOnUse">
<stop stop-color="#00C8E6"/>
<stop offset="1" stop-color="#00C8E6" stop-opacity="0"/>
</linearGradient>
<linearGradient id="paint4_linear_656_398" x1="20" y1="0" x2="20" y2="197" gradientUnits="userSpaceOnUse">
<stop stop-color="#00C8E6"/>
<stop offset="1" stop-color="#00C8E6" stop-opacity="0"/>
</linearGradient>
<linearGradient id="paint5_linear_656_398" x1="20" y1="0" x2="20" y2="124" gradientUnits="userSpaceOnUse">
<stop stop-color="#00C8E6"/>
<stop offset="1" stop-color="#00C8E6" stop-opacity="0"/>
</linearGradient>
<linearGradient id="paint6_linear_656_398" x1="20" y1="0" x2="20" y2="95" gradientUnits="userSpaceOnUse">
<stop stop-color="#00C8E6"/>
<stop offset="1" stop-color="#00C8E6" stop-opacity="0"/>
</linearGradient>
<linearGradient id="paint7_linear_656_398" x1="20" y1="0" x2="20" y2="119" gradientUnits="userSpaceOnUse">
<stop stop-color="#00C8E6"/>
<stop offset="1" stop-color="#00C8E6" stop-opacity="0"/>
</linearGradient>
<linearGradient id="paint8_linear_656_398" x1="20" y1="0" x2="20" y2="71" gradientUnits="userSpaceOnUse">
<stop stop-color="#00C8E6"/>
<stop offset="1" stop-color="#00C8E6" stop-opacity="0"/>
</linearGradient>
<linearGradient id="paint9_linear_656_398" x1="20" y1="0" x2="20" y2="88" gradientUnits="userSpaceOnUse">
<stop stop-color="#00C8E6"/>
<stop offset="1" stop-color="#00C8E6" stop-opacity="0"/>
</linearGradient>
<linearGradient id="paint10_linear_656_398" x1="20" y1="0" x2="20" y2="140" gradientUnits="userSpaceOnUse">
<stop stop-color="#00C8E6"/>
<stop offset="1" stop-color="#00C8E6" stop-opacity="0"/>
</linearGradient>
<linearGradient id="paint11_linear_656_398" x1="20" y1="0" x2="20" y2="49" gradientUnits="userSpaceOnUse">
<stop stop-color="#00C8E6"/>
<stop offset="1" stop-color="#00C8E6" stop-opacity="0"/>
</linearGradient>
<linearGradient id="paint12_linear_656_398" x1="20" y1="0" x2="20" y2="21" gradientUnits="userSpaceOnUse">
<stop stop-color="#00C8E6"/>
<stop offset="1" stop-color="#00C8E6" stop-opacity="0"/>
</linearGradient>
<linearGradient id="paint13_linear_656_398" x1="20" y1="0" x2="20" y2="49" gradientUnits="userSpaceOnUse">
<stop stop-color="#00C8E6"/>
<stop offset="1" stop-color="#00C8E6" stop-opacity="0"/>
</linearGradient>
<linearGradient id="paint14_linear_656_398" x1="20" y1="0" x2="20" y2="38" gradientUnits="userSpaceOnUse">
<stop stop-color="#00C8E6"/>
<stop offset="1" stop-color="#00C8E6" stop-opacity="0"/>
</linearGradient>
<linearGradient id="paint15_linear_656_398" x1="20" y1="0" x2="20" y2="28" gradientUnits="userSpaceOnUse">
<stop stop-color="#00C8E6"/>
<stop offset="1" stop-color="#00C8E6" stop-opacity="0"/>
</linearGradient>
<linearGradient id="paint16_linear_656_398" x1="20" y1="0" x2="20" y2="71" gradientUnits="userSpaceOnUse">
<stop stop-color="#00C8E6"/>
<stop offset="1" stop-color="#00C8E6" stop-opacity="0"/>
</linearGradient>
<linearGradient id="paint17_linear_656_398" x1="20" y1="0" x2="20" y2="103" gradientUnits="userSpaceOnUse">
<stop stop-color="#00C8E6"/>
<stop offset="1" stop-color="#00C8E6" stop-opacity="0"/>
</linearGradient>
<linearGradient id="paint18_linear_656_398" x1="20" y1="0" x2="20" y2="87" gradientUnits="userSpaceOnUse">
<stop stop-color="#00C8E6"/>
<stop offset="1" stop-color="#00C8E6" stop-opacity="0"/>
</linearGradient>
<linearGradient id="paint19_linear_656_398" x1="20" y1="0" x2="20" y2="103" gradientUnits="userSpaceOnUse">
<stop stop-color="#00C8E6"/>
<stop offset="1" stop-color="#00C8E6" stop-opacity="0"/>
</linearGradient>
<linearGradient id="paint20_linear_656_398" x1="20" y1="0" x2="20" y2="133" gradientUnits="userSpaceOnUse">
<stop stop-color="#00C8E6"/>
<stop offset="1" stop-color="#00C8E6" stop-opacity="0"/>
</linearGradient>
<linearGradient id="paint21_linear_656_398" x1="20" y1="0" x2="20" y2="108" gradientUnits="userSpaceOnUse">
<stop stop-color="#00C8E6"/>
<stop offset="1" stop-color="#00C8E6" stop-opacity="0"/>
</linearGradient>
<linearGradient id="paint22_linear_656_398" x1="20" y1="0" x2="20" y2="54" gradientUnits="userSpaceOnUse">
<stop stop-color="#00C8E6"/>
<stop offset="1" stop-color="#00C8E6" stop-opacity="0"/>
</linearGradient>
<linearGradient id="paint23_linear_656_398" x1="20" y1="0" x2="20" y2="59" gradientUnits="userSpaceOnUse">
<stop stop-color="#00C8E6"/>
<stop offset="1" stop-color="#00C8E6" stop-opacity="0"/>
</linearGradient>
<linearGradient id="paint24_linear_656_398" x1="20" y1="0" x2="20" y2="87" gradientUnits="userSpaceOnUse">
<stop stop-color="#00C8E6"/>
<stop offset="1" stop-color="#00C8E6" stop-opacity="0"/>
</linearGradient>
<linearGradient id="paint25_linear_656_398" x1="20" y1="0" x2="20" y2="55" gradientUnits="userSpaceOnUse">
<stop stop-color="#00C8E6"/>
<stop offset="1" stop-color="#00C8E6" stop-opacity="0"/>
</linearGradient>
<linearGradient id="paint26_linear_656_398" x1="20" y1="0" x2="20" y2="42" gradientUnits="userSpaceOnUse">
<stop stop-color="#00C8E6"/>
<stop offset="1" stop-color="#00C8E6" stop-opacity="0"/>
</linearGradient>
<linearGradient id="paint27_linear_656_398" x1="20" y1="0" x2="20" y2="66" gradientUnits="userSpaceOnUse">
<stop stop-color="#00C8E6"/>
<stop offset="1" stop-color="#00C8E6" stop-opacity="0"/>
</linearGradient>
<linearGradient id="paint28_linear_656_398" x1="20" y1="0" x2="20" y2="92" gradientUnits="userSpaceOnUse">
<stop stop-color="#00C8E6"/>
<stop offset="1" stop-color="#00C8E6" stop-opacity="0"/>
</linearGradient>
<linearGradient id="paint29_linear_656_398" x1="20" y1="0" x2="20" y2="42" gradientUnits="userSpaceOnUse">
<stop stop-color="#00C8E6"/>
<stop offset="1" stop-color="#00C8E6" stop-opacity="0"/>
</linearGradient>
<linearGradient id="paint30_linear_656_398" x1="20" y1="0" x2="20" y2="29" gradientUnits="userSpaceOnUse">
<stop stop-color="#00C8E6"/>
<stop offset="1" stop-color="#00C8E6" stop-opacity="0"/>
</linearGradient>
</defs>
</svg>
