<svg width="60" height="60" viewBox="0 0 60 60" fill="none" xmlns="http://www.w3.org/2000/svg">
<path d="M14 18H12V20H14V18Z" fill="#00C8E6"/>
<path d="M17 15H15V17H17V15Z" fill="#00C8E6"/>
<path d="M20 12H18V14H20V12Z" fill="#00C8E6"/>
<path d="M48 40H46V42H48V40Z" fill="#00C8E6"/>
<path d="M45 43H43V45H45V43Z" fill="#00C8E6"/>
<path d="M42 46H40V48H42V46Z" fill="#00C8E6"/>
<path d="M14 31C14 30.36 14.254 29.746 14.707 29.293L16.293 27.707C16.746 27.254 17.36 27 18 27C18.64 27 19.254 27.254 19.707 27.707L25.293 33.293C25.746 33.746 26.36 34 27 34C27.64 34 28.254 33.746 28.707 33.293L51.293 10.707C51.746 10.254 52.36 10 53 10C53.64 10 54.254 10.254 54.707 10.707L56.293 12.293C56.746 12.746 57 13.36 57 14C57 14.64 56.746 15.254 56.293 15.707L28.707 43.293C28.254 43.746 27.64 44 27 44C26.36 44 25.746 43.746 25.293 43.293L14.707 32.707C14.254 32.254 14 31.64 14 31V31Z" stroke="#00C8E6" stroke-miterlimit="10"/>
<path d="M19.8939 57.19C18.6369 56.723 17.4219 56.171 16.2539 55.541" stroke="#00C8E6" stroke-miterlimit="10"/>
<path d="M13.8629 54.099C10.1159 51.585 6.98786 48.221 4.75586 44.282" stroke="#00C8E6" stroke-miterlimit="10"/>
<path d="M44.395 9.558C40.325 6.687 35.36 5 30 5C16.193 5 5 16.193 5 30C5 43.807 16.193 55 30 55C43.807 55 55 43.807 55 30C55 28.364 54.843 26.765 54.543 25.216" stroke="white" stroke-miterlimit="10"/>
</svg>
