<svg width="60" height="61" viewBox="0 0 60 61" fill="none" xmlns="http://www.w3.org/2000/svg">
<path d="M5 17.5C6.65685 17.5 8 16.1569 8 14.5C8 12.8431 6.65685 11.5 5 11.5C3.34315 11.5 2 12.8431 2 14.5C2 16.1569 3.34315 17.5 5 17.5Z" stroke="white" stroke-width="2" stroke-miterlimit="10"/>
<path d="M11 9.5C12.6569 9.5 14 8.15685 14 6.5C14 4.84315 12.6569 3.5 11 3.5C9.34315 3.5 8 4.84315 8 6.5C8 8.15685 9.34315 9.5 11 9.5Z" stroke="white" stroke-width="2" stroke-miterlimit="10"/>
<path d="M23 9.5C24.6569 9.5 26 8.15685 26 6.5C26 4.84315 24.6569 3.5 23 3.5C21.3431 3.5 20 4.84315 20 6.5C20 8.15685 21.3431 9.5 23 9.5Z" stroke="white" stroke-width="2" stroke-miterlimit="10"/>
<path d="M37 9.5C38.6569 9.5 40 8.15685 40 6.5C40 4.84315 38.6569 3.5 37 3.5C35.3431 3.5 34 4.84315 34 6.5C34 8.15685 35.3431 9.5 37 9.5Z" stroke="white" stroke-width="2" stroke-miterlimit="10"/>
<path d="M49 9.5C50.6569 9.5 52 8.15685 52 6.5C52 4.84315 50.6569 3.5 49 3.5C47.3431 3.5 46 4.84315 46 6.5C46 8.15685 47.3431 9.5 49 9.5Z" stroke="white" stroke-width="2" stroke-miterlimit="10"/>
<path d="M17 17.5C18.6569 17.5 20 16.1569 20 14.5C20 12.8431 18.6569 11.5 17 11.5C15.3431 11.5 14 12.8431 14 14.5C14 16.1569 15.3431 17.5 17 17.5Z" stroke="white" stroke-width="2" stroke-miterlimit="10"/>
<path d="M21 28.5H0" stroke="#00C8E6" stroke-width="2" stroke-miterlimit="10"/>
<path d="M2.0752 20.88C2.9402 20.638 3.9382 20.5 5.0002 20.5C8.3142 20.5 11.0002 21.843 11.0002 23.5V28.5" stroke="#00C8E6" stroke-width="2" stroke-miterlimit="10"/>
<path d="M19.925 20.88C19.06 20.638 18.062 20.5 17 20.5C13.686 20.5 11 21.843 11 23.5" stroke="#00C8E6" stroke-width="2" stroke-miterlimit="10"/>
<path d="M44 17.5C45.6569 17.5 47 16.1569 47 14.5C47 12.8431 45.6569 11.5 44 11.5C42.3431 11.5 41 12.8431 41 14.5C41 16.1569 42.3431 17.5 44 17.5Z" stroke="white" stroke-width="2" stroke-miterlimit="10"/>
<path d="M56 17.5C57.6569 17.5 59 16.1569 59 14.5C59 12.8431 57.6569 11.5 56 11.5C54.3431 11.5 53 12.8431 53 14.5C53 16.1569 54.3431 17.5 56 17.5Z" stroke="white" stroke-width="2" stroke-miterlimit="10"/>
<path d="M60 28.5H39" stroke="#00C8E6" stroke-width="2" stroke-miterlimit="10"/>
<path d="M41.0752 20.88C41.9402 20.638 42.9382 20.5 44.0002 20.5C47.3142 20.5 50.0002 21.843 50.0002 23.5V28.5" stroke="#00C8E6" stroke-width="2" stroke-miterlimit="10"/>
<path d="M58.925 20.88C58.06 20.638 57.062 20.5 56 20.5C52.686 20.5 50 21.843 50 23.5" stroke="#00C8E6" stroke-width="2" stroke-miterlimit="10"/>
<path d="M23.1128 12.533C23.4018 12.511 23.6988 12.5 23.9998 12.5C27.3138 12.5 29.9998 13.843 29.9998 15.5" stroke="#00C8E6" stroke-width="2" stroke-miterlimit="10"/>
<path d="M36.887 12.533C36.598 12.511 36.301 12.5 36 12.5C32.686 12.5 30 13.843 30 15.5" stroke="#00C8E6" stroke-width="2" stroke-miterlimit="10"/>
<path d="M30 32.5C33.3137 32.5 36 29.366 36 25.5C36 21.634 33.3137 18.5 30 18.5C26.6863 18.5 24 21.634 24 25.5C24 29.366 26.6863 32.5 30 32.5Z" stroke="white" stroke-width="2" stroke-miterlimit="10"/>
<path d="M23 50.5H17C15.895 50.5 15 51.395 15 52.5V58.5" stroke="white" stroke-width="2" stroke-miterlimit="10"/>
<path d="M37 50.5H43C44.105 50.5 45 51.395 45 52.5V58.5" stroke="white" stroke-width="2" stroke-miterlimit="10"/>
<path d="M37 58.5V43.049L45.174 45.385C45.437 45.46 45.714 45.5 46 45.5C46.615 45.5 47.186 45.315 47.662 44.998L53.662 40.998C54.469 40.46 55 39.542 55 38.5C55 36.843 53.657 35.5 52 35.5C51.385 35.5 50.814 35.685 50.338 36.002L45.491 39.233L37.135 36.846C36.331 36.617 35.498 36.5 34.662 36.5H25.338C24.502 36.5 23.67 36.617 22.866 36.846L14.51 39.233L9.663 36.002C9.186 35.685 8.615 35.5 8 35.5C6.343 35.5 5 36.843 5 38.5C5 39.542 5.531 40.46 6.338 40.998L12.338 44.998C12.814 45.315 13.385 45.5 14 45.5C14.286 45.5 14.563 45.46 14.826 45.385L23 43.049V58.5" stroke="white" stroke-width="2" stroke-miterlimit="10"/>
</svg>
