<svg width="60" height="53" viewBox="0 0 60 53" fill="none" xmlns="http://www.w3.org/2000/svg">
<path d="M23.397 22.103L29 16.5L34.615 22.115" stroke="white" stroke-width="2" stroke-miterlimit="10"/>
<path d="M37.4028 22.097L42.9998 16.5L48.6088 22.109" stroke="white" stroke-width="2" stroke-miterlimit="10"/>
<path d="M24.0479 28.581C24.5939 34.702 29.7369 39.5 35.9999 39.5C38.8449 39.5 41.4579 38.51 43.5149 36.856" stroke="white" stroke-width="2" stroke-miterlimit="10"/>
<path d="M26.574 34.928L23.242 38.258C22.446 39.054 21.999 40.133 21.999 41.258C22 43.601 23.899 45.5 26.243 45.5C27.368 45.5 28.447 45.053 29.243 44.257L34.148 39.358" stroke="white" stroke-width="2" stroke-miterlimit="10"/>
<path d="M29.7528 37.747L26.4058 41.094" stroke="white" stroke-width="2" stroke-miterlimit="10"/>
<path d="M10.5766 4.96503C9.81762 5.65003 9.09462 6.37503 8.41162 7.13603" stroke="#00C8E6" stroke-width="2" stroke-miterlimit="10"/>
<path d="M6.28081 9.81C4.28681 12.638 2.78681 15.839 1.90381 19.287" stroke="#00C8E6" stroke-width="2" stroke-miterlimit="10"/>
<path d="M49.4229 48.035C50.1819 47.35 50.9049 46.625 51.5879 45.864" stroke="#00C8E6" stroke-width="2" stroke-miterlimit="10"/>
<path d="M53.7188 43.19C55.7127 40.362 57.2127 37.161 58.0957 33.713" stroke="#00C8E6" stroke-width="2" stroke-miterlimit="10"/>
<path d="M41.625 4.361C38.152 2.534 34.197 1.5 30 1.5C16.193 1.5 5 12.693 5 26.5C5 32.978 7.464 38.88 11.505 43.321" stroke="white" stroke-width="2" stroke-miterlimit="10"/>
<path d="M45.6989 7.04299C45.2509 6.68099 44.7889 6.33399 44.3159 6.00299" stroke="#00C8E6" stroke-width="2" stroke-miterlimit="10"/>
<path d="M7.939 38.272L5 51.5L18.24 48.558C21.746 50.431 25.747 51.5 30 51.5C43.807 51.5 55 40.307 55 26.5C55 19.587 52.194 13.33 47.659 8.80402" stroke="white" stroke-width="2" stroke-miterlimit="10"/>
</svg>
