<svg width="60" height="60" viewBox="0 0 60 60" fill="none" xmlns="http://www.w3.org/2000/svg">
<path d="M53.389 25.419C55.617 27.598 57 30.637 57 34C57 40.627 51.627 46 45 46C38.373 46 33 40.627 33 34C33 27.373 38.373 22 45 22C47.071 22 49.02 22.525 50.72 23.448" stroke="white" stroke-width="2" stroke-miterlimit="10"/>
<path d="M53 42.944V57L45 51.766L37 57V42.944" stroke="white" stroke-width="2" stroke-miterlimit="10"/>
<path d="M41 40H49" stroke="white" stroke-width="2" stroke-miterlimit="10"/>
<path d="M41 28H45V40" stroke="white" stroke-width="2" stroke-miterlimit="10"/>
<path d="M33.998 38.8C31.457 41.392 27.916 43 24 43C16.268 43 10 36.732 10 29V13H38V24.252" stroke="white" stroke-width="2" stroke-miterlimit="10"/>
<path d="M24 43V52" stroke="white" stroke-width="2" stroke-miterlimit="10"/>
<path d="M17 52H31" stroke="white" stroke-width="2" stroke-miterlimit="10"/>
<path d="M18.8788 37.591C18.2818 37.234 17.7248 36.817 17.2168 36.348" stroke="#00C8E6" stroke-width="2" stroke-miterlimit="10"/>
<path d="M15.251 33.846C14.454 32.41 14 30.758 14 29V27" stroke="#00C8E6" stroke-width="2" stroke-miterlimit="10"/>
<path d="M10 13V10C10 9.448 9.552 9 9 9H4C3.448 9 3 9.448 3 10V21C3 23.761 5.239 26 8 26H10" stroke="white" stroke-width="2" stroke-miterlimit="10"/>
<path d="M38 13V10C38 9.448 38.448 9 39 9H44C44.552 9 45 9.448 45 10V21C45 21.342 44.966 21.677 44.9 22" stroke="white" stroke-width="2" stroke-miterlimit="10"/>
<path d="M51 6V16" stroke="#00C8E6" stroke-width="2" stroke-miterlimit="10"/>
<path d="M56 8V11" stroke="#00C8E6" stroke-width="2" stroke-miterlimit="10"/>
<path d="M56 13V23" stroke="#00C8E6" stroke-width="2" stroke-miterlimit="10"/>
<path d="M8 38V48" stroke="#00C8E6" stroke-width="2" stroke-miterlimit="10"/>
<path d="M8 50V53" stroke="#00C8E6" stroke-width="2" stroke-miterlimit="10"/>
<path d="M24 3V8" stroke="#00C8E6" stroke-width="2" stroke-miterlimit="10"/>
<path d="M28.3994 9.60105L31.6014 6.39905" stroke="#00C8E6" stroke-width="2" stroke-miterlimit="10"/>
<path d="M19.6014 9.60105L16.3994 6.39905" stroke="#00C8E6" stroke-width="2" stroke-miterlimit="10"/>
</svg>
