<svg width="60" height="60" viewBox="0 0 60 60" fill="none" xmlns="http://www.w3.org/2000/svg">
<path d="M5 17C6.65685 17 8 15.6569 8 14C8 12.3431 6.65685 11 5 11C3.34315 11 2 12.3431 2 14C2 15.6569 3.34315 17 5 17Z" stroke="white" stroke-width="2" stroke-miterlimit="10"/>
<path d="M11 9C12.6569 9 14 7.65685 14 6C14 4.34315 12.6569 3 11 3C9.34315 3 8 4.34315 8 6C8 7.65685 9.34315 9 11 9Z" stroke="white" stroke-width="2" stroke-miterlimit="10"/>
<path d="M23 9C24.6569 9 26 7.65685 26 6C26 4.34315 24.6569 3 23 3C21.3431 3 20 4.34315 20 6C20 7.65685 21.3431 9 23 9Z" stroke="white" stroke-width="2" stroke-miterlimit="10"/>
<path d="M37 9C38.6569 9 40 7.65685 40 6C40 4.34315 38.6569 3 37 3C35.3431 3 34 4.34315 34 6C34 7.65685 35.3431 9 37 9Z" stroke="white" stroke-width="2" stroke-miterlimit="10"/>
<path d="M49 9C50.6569 9 52 7.65685 52 6C52 4.34315 50.6569 3 49 3C47.3431 3 46 4.34315 46 6C46 7.65685 47.3431 9 49 9Z" stroke="white" stroke-width="2" stroke-miterlimit="10"/>
<path d="M17 17C18.6569 17 20 15.6569 20 14C20 12.3431 18.6569 11 17 11C15.3431 11 14 12.3431 14 14C14 15.6569 15.3431 17 17 17Z" stroke="white" stroke-width="2" stroke-miterlimit="10"/>
<path d="M21 28H0" stroke="#00C8E6" stroke-width="2" stroke-miterlimit="10"/>
<path d="M2.0752 20.38C2.9402 20.138 3.9382 20 5.0002 20C8.3142 20 11.0002 21.343 11.0002 23V28" stroke="#00C8E6" stroke-width="2" stroke-miterlimit="10"/>
<path d="M19.925 20.38C19.06 20.138 18.062 20 17 20C13.686 20 11 21.343 11 23" stroke="#00C8E6" stroke-width="2" stroke-miterlimit="10"/>
<path d="M44 17C45.6569 17 47 15.6569 47 14C47 12.3431 45.6569 11 44 11C42.3431 11 41 12.3431 41 14C41 15.6569 42.3431 17 44 17Z" stroke="white" stroke-width="2" stroke-miterlimit="10"/>
<path d="M56 17C57.6569 17 59 15.6569 59 14C59 12.3431 57.6569 11 56 11C54.3431 11 53 12.3431 53 14C53 15.6569 54.3431 17 56 17Z" stroke="white" stroke-width="2" stroke-miterlimit="10"/>
<path d="M60 28H39" stroke="#00C8E6" stroke-width="2" stroke-miterlimit="10"/>
<path d="M41.0752 20.38C41.9402 20.138 42.9382 20 44.0002 20C47.3142 20 50.0002 21.343 50.0002 23V28" stroke="#00C8E6" stroke-width="2" stroke-miterlimit="10"/>
<path d="M58.925 20.38C58.06 20.138 57.062 20 56 20C52.686 20 50 21.343 50 23" stroke="#00C8E6" stroke-width="2" stroke-miterlimit="10"/>
<path d="M23.1133 12.033C23.4023 12.011 23.6993 12 24.0003 12C27.3143 12 30.0003 13.343 30.0003 15" stroke="#00C8E6" stroke-width="2" stroke-miterlimit="10"/>
<path d="M36.887 12.033C36.598 12.011 36.301 12 36 12C32.686 12 30 13.343 30 15" stroke="#00C8E6" stroke-width="2" stroke-miterlimit="10"/>
<path d="M30 32C33.3137 32 36 28.866 36 25C36 21.134 33.3137 18 30 18C26.6863 18 24 21.134 24 25C24 28.866 26.6863 32 30 32Z" stroke="white" stroke-width="2" stroke-miterlimit="10"/>
<path d="M23 50H17C15.895 50 15 50.895 15 52V58" stroke="white" stroke-width="2" stroke-miterlimit="10"/>
<path d="M37 50H43C44.105 50 45 50.895 45 52V58" stroke="white" stroke-width="2" stroke-miterlimit="10"/>
<path d="M37 58V42.549L45.174 44.885C45.437 44.96 45.714 45 46 45C46.615 45 47.186 44.815 47.662 44.498L53.662 40.498C54.469 39.96 55 39.042 55 38C55 36.343 53.657 35 52 35C51.385 35 50.814 35.185 50.338 35.502L45.491 38.733L37.135 36.346C36.331 36.117 35.498 36 34.662 36H25.338C24.502 36 23.67 36.117 22.866 36.346L14.51 38.733L9.663 35.502C9.186 35.185 8.615 35 8 35C6.343 35 5 36.343 5 38C5 39.042 5.531 39.96 6.338 40.498L12.338 44.498C12.814 44.815 13.385 45 14 45C14.286 45 14.563 44.96 14.826 44.885L23 42.549V58" stroke="white" stroke-width="2" stroke-miterlimit="10"/>
</svg>
