<svg width="60" height="60" viewBox="0 0 60 60" fill="none" xmlns="http://www.w3.org/2000/svg">
<path d="M19 23.153V6C19 4.343 20.343 3 22 3H52C53.657 3 55 4.343 55 6V32" stroke="white" stroke-width="2" stroke-miterlimit="10"/>
<path d="M25 37H22C20.343 37 19 35.657 19 34V26" stroke="white" stroke-width="2" stroke-miterlimit="10"/>
<path d="M50.5 7.5V6.5H51.5V7.5H50.5Z" fill="white" stroke="#00C8E6"/>
<path d="M46.5 7.5V6.5H47.5V7.5H46.5Z" fill="white" stroke="#00C8E6"/>
<path d="M42.5 7.5V6.5H43.5V7.5H42.5Z" fill="white" stroke="#00C8E6"/>
<path d="M48 17C49.6569 17 51 15.6569 51 14C51 12.3431 49.6569 11 48 11C46.3431 11 45 12.3431 45 14C45 15.6569 46.3431 17 48 17Z" stroke="white" stroke-miterlimit="10"/>
<path d="M44 29C45.6569 29 47 27.6569 47 26C47 24.3431 45.6569 23 44 23C42.3431 23 41 24.3431 41 26C41 27.6569 42.3431 29 44 29Z" stroke="white" stroke-miterlimit="10"/>
<path d="M34 23C35.6569 23 37 21.6569 37 20C37 18.3431 35.6569 17 34 17C32.3431 17 31 18.3431 31 20C31 21.6569 32.3431 23 34 23Z" stroke="white" stroke-miterlimit="10"/>
<path d="M28.681 29.347C28.188 30.327 27.172 31 26 31C24.343 31 23 29.657 23 28C23 27.362 23.199 26.771 23.538 26.285" stroke="white" stroke-width="2" stroke-miterlimit="10"/>
<path d="M44.9463 23.162L47.0543 16.838" stroke="white" stroke-width="2" stroke-miterlimit="10"/>
<path d="M36.5732 21.544L41.4342 24.46" stroke="white" stroke-width="2" stroke-miterlimit="10"/>
<path d="M28.1885 25.167L31.7635 21.988" stroke="white" stroke-width="2" stroke-miterlimit="10"/>
<path d="M21 49C28.1797 49 34 43.1797 34 36C34 28.8203 28.1797 23 21 23C13.8203 23 8 28.8203 8 36C8 43.1797 13.8203 49 21 49Z" stroke="white" stroke-width="2" stroke-miterlimit="10"/>
<path d="M5.5 50.5V49.5H6.5V50.5H5.5Z" fill="white" stroke="#00C8E6"/>
<path d="M9.589 42.228L3.581 46.833C2.626 47.564 2 48.704 2 50C2 52.209 3.791 54 6 54C7.197 54 8.258 53.464 8.991 52.631L14.001 46.953" stroke="white" stroke-width="2" stroke-miterlimit="10"/>
<path d="M6.58158 23.721L1.39258 20.262" stroke="#00C8E6" stroke-width="2" stroke-miterlimit="10"/>
<path d="M13.6849 15.766L10.2979 10.447" stroke="#00C8E6" stroke-width="2" stroke-miterlimit="10"/>
<path d="M33.9619 35H55.9999C56.5519 35 56.9999 35.447 56.9999 36V47" stroke="white" stroke-width="2" stroke-miterlimit="10"/>
<path d="M25 44V36C25 35.447 25.448 35 26 35H31" stroke="white" stroke-width="2" stroke-miterlimit="10"/>
<path d="M57 53V56C57 56.553 56.552 57 56 57H32.37C32.131 57 31.901 56.914 31.719 56.76L25.349 51.299C25.127 51.109 25 50.832 25 50.54V48.373" stroke="white" stroke-width="2" stroke-miterlimit="10"/>
<path d="M57 49V51" stroke="#00C8E6" stroke-width="2" stroke-miterlimit="10"/>
<path d="M25.1113 51H30.9973C31.5493 51 31.9993 51.448 31.9993 52V56.929" stroke="white" stroke-width="2" stroke-miterlimit="10"/>
<path d="M52 51V41H47V51" stroke="white" stroke-width="2" stroke-miterlimit="10"/>
<path d="M42 51V44H37V51" stroke="white" stroke-width="2" stroke-miterlimit="10"/>
</svg>
