<svg width="200" height="200" viewBox="0 0 200 200" fill="none" xmlns="http://www.w3.org/2000/svg">
<path d="M24.8166 125.99L16.87 104.48C16.7366 104.123 16.6666 103.737 16.6666 103.333C16.6666 101.893 17.58 100.667 18.86 100.2C36.3166 93.8666 55.4166 86.6666 80 86.6666C80.7466 86.6666 81.4366 86.9133 81.9933 87.33L98.0033 99.34C98.5633 99.7533 99.2533 100 100 100C100.13 100 100.257 99.9933 100.383 99.9766C121.73 97.4666 126.553 96.6666 136.667 96.6666C151.527 96.6666 162.603 99.12 183.983 103.397C185.513 103.7 186.667 105.05 186.667 106.667C186.667 106.897 186.643 107.12 186.6 107.34L169.797 185.35C168.863 189.907 164.833 193.333 160 193.333H56.6666C52.3633 193.333 48.6933 190.613 47.2833 186.8L43.86 177.537" stroke="white" stroke-width="5" stroke-miterlimit="10"/>
<path d="M140 106.667H133.333V113.333H140V106.667Z" fill="#00C8E6"/>
<path d="M120 110H113.333V116.667H120V110Z" fill="#00C8E6"/>
<path d="M160 110H153.333V116.667H160V110Z" fill="#00C8E6"/>
<path d="M86.6998 47.1334C86.6765 46.98 86.6665 46.8234 86.6665 46.6667C86.6665 44.8267 88.1598 43.3334 89.9998 43.3334C90.5332 43.3334 91.0365 43.4567 91.4798 43.68L111.48 53.68C112.58 54.2267 113.333 55.3567 113.333 56.6667C113.333 57.72 112.843 58.66 112.08 59.27L95.4132 72.6034C94.8432 73.06 94.1198 73.3334 93.3332 73.3334C91.6498 73.3334 90.2598 72.0867 90.0332 70.4667L86.6998 47.1334Z" stroke="white" stroke-width="5" stroke-miterlimit="10"/>
<path d="M137.447 86.0433L123.333 26.6666C87.2233 26.6666 52.1433 34.78 22.8467 49.2266L31.1567 82.47" stroke="white" stroke-width="5" stroke-miterlimit="10"/>
<path d="M40.6267 57.9166L66.25 49.1666" stroke="#00C8E6" stroke-width="5" stroke-miterlimit="10"/>
<path d="M44.3767 71.0433L70 62.2933" stroke="#00C8E6" stroke-width="5" stroke-miterlimit="10"/>
<path d="M77.1799 17.2533C91.7799 12.8133 107.277 10 123.333 10C139.547 10 155.193 12.4367 169.923 16.9667L159.61 86.3133" stroke="white" stroke-width="5" stroke-miterlimit="10"/>
<path d="M34.1533 151.12L53.49 140.807C54.4333 140.29 55.5166 140 56.6666 140C60.35 140 63.3333 142.983 63.3333 146.667C63.3333 149.217 61.9033 151.43 59.8 152.553L36.2666 165.107C34.4 166.103 32.2666 166.667 30 166.667C22.6366 166.667 16.6666 160.697 16.6666 153.333C16.6666 148.27 19.4866 143.867 23.6433 141.61L42.3766 131.617" stroke="#00C8E6" stroke-width="5" stroke-miterlimit="10"/>
</svg>
