<svg width="95" height="51" viewBox="0 0 95 51" fill="none" xmlns="http://www.w3.org/2000/svg">
<path d="M91.8862 45.034C91.8359 44.1545 91.7825 43.2752 91.7357 42.3961C91.7047 41.8151 91.6532 41.2295 91.6651 40.655C91.6774 40.071 91.9189 39.6872 92.3712 39.6616C92.8227 39.6361 93.1416 39.9619 93.2604 40.5668C93.3526 41.0329 93.4134 41.5114 93.4532 41.9852C93.6119 43.8855 93.7442 45.7861 93.9111 47.6862C94.0532 49.3077 93.5586 49.9556 92.3556 49.5026C90.8482 48.9339 89.3535 48.2686 87.8572 47.6233C87.3971 47.4247 87.0246 47.0269 87.1283 46.3256C87.2265 45.6615 87.6099 45.4923 88.1127 45.642C88.6132 45.791 89.1175 45.9028 89.832 46.0851C89.5697 45.6265 89.4388 45.3306 89.2614 45.0989C88.139 43.6291 87.0058 42.1751 85.8787 40.7124C85.6716 40.4435 85.4402 40.1894 85.2824 39.8766C85.0135 39.342 84.8804 38.7394 85.2714 38.304C85.6626 37.8693 86.0318 38.13 86.4111 38.6133C87.9077 40.5193 89.4248 42.3953 90.9354 44.2801C91.1716 44.5748 91.4156 44.8588 91.6563 45.1477C91.7328 45.1092 91.8096 45.0719 91.8862 45.034Z" fill="#00C8E6"/>
<path d="M81.7436 36.1368C80.5457 35.0809 79.4672 34.1759 78.4611 33.2051C78.255 33.0062 78.1522 32.4084 78.2976 32.2648C78.5084 32.0562 78.98 32.0593 79.3572 32.0431C79.5064 32.0371 79.7234 32.1982 79.873 32.3242C80.796 33.1015 81.7182 33.8789 82.6187 34.679C83.0766 35.0858 83.3388 35.6243 82.8959 35.9707C82.631 36.1782 82.0962 36.0959 81.7436 36.1368Z" fill="#00C8E6"/>
<path d="M55.7273 17.8874C55.1174 17.5562 54.4851 17.2608 53.9047 16.8828C53.4553 16.5904 53.1971 16.1385 53.4396 15.7071C53.6682 15.2995 54.131 15.2124 54.6257 15.4794C55.7154 16.068 56.7998 16.6759 57.8557 17.3301C58.3377 17.6284 58.7112 18.0986 58.4388 18.6013C58.1783 19.0822 57.6631 19.0446 57.1197 18.7676C56.635 18.5204 56.1596 18.2494 55.6804 17.9892C55.6959 17.9554 55.7115 17.9216 55.7273 17.8874Z" fill="#00C8E6"/>
<path d="M69.0316 24.4063C69.6719 24.9111 70.5464 25.5863 71.4038 26.2817C71.8325 26.6294 72.07 27.0782 71.8152 27.488C71.5218 27.9593 70.9417 27.9065 70.4586 27.5726C69.5529 26.9454 68.6935 26.2453 67.8326 25.5548C67.3798 25.1915 67.0308 24.7568 67.2923 24.2439C67.5037 23.8281 68.0552 23.8478 69.0316 24.4063Z" fill="#00C8E6"/>
<path d="M23.8677 4.46517C23.7247 4.20875 23.3503 3.81075 23.3933 3.54148C23.4381 3.26184 23.8931 2.88141 24.1558 2.93542C25.4091 3.19352 26.6669 3.5385 27.9013 3.96407C28.168 4.05631 28.54 4.66528 28.5024 4.92926C28.4646 5.19515 28.0032 5.49174 27.6798 5.481C27.1444 5.46386 26.5707 5.21059 26.0136 5.05697C25.3631 4.87791 24.7124 4.69818 23.8677 4.46517Z" fill="#00C8E6"/>
<path d="M38.4858 9.44205C38.4009 9.30322 38.0309 8.93748 38.0706 8.70144C38.122 8.39447 38.4573 7.97793 38.7426 7.97882C39.9847 7.98249 41.1715 8.53773 42.2829 9.23034C42.4983 9.36481 42.7153 9.85667 42.6446 10.0454C42.5473 10.3022 42.2094 10.5015 41.9069 10.582C41.6876 10.6412 41.3534 10.4896 41.0791 10.3932C40.2914 10.1159 39.508 9.81884 38.4858 9.44205Z" fill="#00C8E6"/>
<path d="M19.3932 3.0299C19.1845 3.08554 18.841 3.28388 18.4746 3.25034C17.6841 3.17861 16.882 2.99762 16.0845 2.84329C15.5273 2.73547 15.2113 2.3841 15.17 1.87432C15.1309 1.39507 15.4762 1.13799 15.9105 1.18939C16.8839 1.30473 17.8722 1.46065 18.8385 1.73339C19.3931 1.88979 19.611 2.42797 19.3932 3.0299Z" fill="#00C8E6"/>
<path d="M47.9426 13.9063C47.3445 13.5341 46.8623 13.3248 46.5197 12.9894C46.2871 12.7621 46.0884 12.2787 46.1744 12.0554C46.2627 11.8247 46.7748 11.5757 46.9961 11.6712C48.0738 12.1373 49.1354 12.6802 50.1554 13.2846C50.3583 13.4045 50.5135 14.0045 50.4046 14.2174C50.2896 14.4424 49.8207 14.621 49.5279 14.5502C48.9316 14.4062 48.3495 14.0798 47.9426 13.9063Z" fill="#00C8E6"/>
<path d="M33.6925 6.59775C33.1887 7.41639 32.4631 7.13985 31.8484 6.9158C31.124 6.65228 30.1271 6.74311 29.841 5.70528C29.7166 5.25341 29.9844 4.82851 30.4316 4.92093C31.395 5.12049 32.3637 5.44401 33.3031 5.81808C33.51 5.90056 33.6025 6.40617 33.6925 6.59775Z" fill="#00C8E6"/>
<path d="M63.3249 20.8155C63.7879 21.1916 64.3447 21.5557 64.7644 22.0221C64.9708 22.2517 65.094 22.826 64.9516 22.9671C64.7402 23.1758 64.1891 23.314 63.9076 23.173C63.2139 22.8247 62.5588 22.3376 61.9517 21.8339C61.5637 21.5124 61.5656 21.0771 61.8474 20.7598C62.2366 20.3214 62.7599 20.6293 63.3249 20.8155Z" fill="#00C8E6"/>
<path d="M74.6623 28.4732C75.1148 28.8631 75.5953 29.2286 76.0102 29.6507C76.3627 30.01 76.4355 30.4735 76.0785 30.7104C75.8508 30.8619 75.3805 30.8991 75.0963 30.768C74.6168 30.5462 74.198 30.1509 73.7551 29.8275C73.2511 29.4595 72.9499 29.0044 73.2585 28.5429C73.5635 28.0867 74.0954 28.1988 74.6623 28.4732Z" fill="#00C8E6"/>
</svg>
