<svg width="95" height="51" viewBox="0 0 95 51" fill="none" xmlns="http://www.w3.org/2000/svg">
<path d="M3.11379 45.034C3.16414 44.1545 3.21749 43.2752 3.26429 42.3961C3.29532 41.8151 3.34684 41.2295 3.33486 40.655C3.32264 40.071 3.08108 39.6872 2.62879 39.6616C2.17734 39.6361 1.85841 39.9619 1.73959 40.5668C1.6474 41.0329 1.58664 41.5114 1.54678 41.9852C1.38807 43.8855 1.2558 45.7861 1.08888 47.6862C0.946827 49.3077 1.44144 49.9556 2.64442 49.5026C4.15179 48.9339 5.6465 48.2686 7.1428 47.6233C7.60291 47.4247 7.97544 47.0269 7.87171 46.3256C7.77353 45.6615 7.39013 45.4923 6.88731 45.642C6.38679 45.791 5.88248 45.9028 5.16802 46.0851C5.43029 45.6265 5.56116 45.3306 5.73861 45.0989C6.86103 43.6291 7.99419 42.1751 9.12127 40.7124C9.32836 40.4435 9.55984 40.1894 9.71756 39.8766C9.98645 39.342 10.1196 38.7394 9.72858 38.304C9.33743 37.8693 8.96819 38.13 8.58886 38.6133C7.09226 40.5193 5.57519 42.3953 4.06462 44.2801C3.82842 44.5748 3.58441 44.8588 3.34374 45.1477C3.2672 45.1092 3.19044 45.0719 3.11379 45.034Z" fill="#00C8E6"/>
<path d="M13.2564 36.1368C14.4543 35.0809 15.5328 34.1759 16.5389 33.2051C16.745 33.0062 16.8478 32.4084 16.7024 32.2648C16.4916 32.0562 16.02 32.0593 15.6428 32.0431C15.4936 32.0371 15.2766 32.1982 15.127 32.3242C14.204 33.1015 13.2818 33.8789 12.3813 34.679C11.9234 35.0858 11.6612 35.6243 12.1041 35.9707C12.369 36.1782 12.9038 36.0959 13.2564 36.1368Z" fill="#00C8E6"/>
<path d="M39.2727 17.8874C39.8826 17.5562 40.5149 17.2608 41.0953 16.8828C41.5447 16.5904 41.8029 16.1385 41.5604 15.7071C41.3318 15.2995 40.869 15.2124 40.3743 15.4794C39.2846 16.068 38.2002 16.6759 37.1443 17.3301C36.6623 17.6284 36.2888 18.0986 36.5612 18.6013C36.8217 19.0822 37.3369 19.0446 37.8803 18.7676C38.365 18.5204 38.8404 18.2494 39.3196 17.9892C39.3041 17.9554 39.2885 17.9216 39.2727 17.8874Z" fill="#00C8E6"/>
<path d="M25.9684 24.4063C25.3281 24.9111 24.4536 25.5863 23.5962 26.2817C23.1675 26.6294 22.93 27.0782 23.1848 27.488C23.4782 27.9593 24.0583 27.9065 24.5414 27.5726C25.4471 26.9454 26.3065 26.2453 27.1674 25.5548C27.6202 25.1915 27.9692 24.7568 27.7077 24.2439C27.4963 23.8281 26.9448 23.8478 25.9684 24.4063Z" fill="#00C8E6"/>
<path d="M71.1323 4.46517C71.2753 4.20875 71.6497 3.81075 71.6067 3.54148C71.5619 3.26184 71.1069 2.88141 70.8442 2.93542C69.5909 3.19352 68.3331 3.5385 67.0987 3.96407C66.832 4.05631 66.46 4.66528 66.4976 4.92926C66.5354 5.19515 66.9968 5.49174 67.3202 5.481C67.8556 5.46386 68.4293 5.21059 68.9864 5.05697C69.6369 4.87791 70.2876 4.69818 71.1323 4.46517Z" fill="#00C8E6"/>
<path d="M56.5142 9.44205C56.5991 9.30322 56.9691 8.93748 56.9294 8.70144C56.878 8.39447 56.5427 7.97793 56.2574 7.97882C55.0153 7.98249 53.8285 8.53773 52.7171 9.23034C52.5017 9.36481 52.2847 9.85667 52.3554 10.0454C52.4527 10.3022 52.7906 10.5015 53.0931 10.582C53.3124 10.6412 53.6466 10.4896 53.9209 10.3932C54.7086 10.1159 55.492 9.81884 56.5142 9.44205Z" fill="#00C8E6"/>
<path d="M75.6068 3.0299C75.8155 3.08554 76.159 3.28388 76.5254 3.25034C77.3159 3.17861 78.118 2.99762 78.9155 2.84329C79.4727 2.73547 79.7887 2.3841 79.83 1.87432C79.8691 1.39507 79.5238 1.13799 79.0895 1.18939C78.1161 1.30473 77.1278 1.46065 76.1615 1.73339C75.6069 1.88979 75.389 2.42797 75.6068 3.0299Z" fill="#00C8E6"/>
<path d="M47.0574 13.9063C47.6555 13.5341 48.1377 13.3248 48.4803 12.9894C48.7129 12.7621 48.9116 12.2787 48.8256 12.0554C48.7373 11.8247 48.2252 11.5757 48.0039 11.6712C46.9262 12.1373 45.8646 12.6802 44.8446 13.2846C44.6417 13.4045 44.4865 14.0045 44.5954 14.2174C44.7104 14.4424 45.1793 14.621 45.4721 14.5502C46.0684 14.4062 46.6505 14.0798 47.0574 13.9063Z" fill="#00C8E6"/>
<path d="M61.3075 6.59775C61.8113 7.41639 62.5369 7.13985 63.1516 6.9158C63.876 6.65228 64.8729 6.74311 65.159 5.70528C65.2834 5.25341 65.0156 4.82851 64.5684 4.92093C63.605 5.12049 62.6363 5.44401 61.6969 5.81808C61.49 5.90056 61.3975 6.40617 61.3075 6.59775Z" fill="#00C8E6"/>
<path d="M31.6751 20.8155C31.2121 21.1916 30.6553 21.5557 30.2356 22.0221C30.0292 22.2517 29.906 22.826 30.0484 22.9671C30.2598 23.1758 30.8109 23.314 31.0924 23.173C31.7861 22.8247 32.4412 22.3376 33.0483 21.8339C33.4363 21.5124 33.4344 21.0771 33.1526 20.7598C32.7634 20.3214 32.2401 20.6293 31.6751 20.8155Z" fill="#00C8E6"/>
<path d="M20.3377 28.4732C19.8852 28.8631 19.4047 29.2286 18.9898 29.6507C18.6373 30.01 18.5645 30.4735 18.9215 30.7104C19.1492 30.8619 19.6195 30.8991 19.9037 30.768C20.3832 30.5462 20.802 30.1509 21.2449 29.8275C21.7489 29.4595 22.0501 29.0044 21.7415 28.5429C21.4365 28.0867 20.9046 28.1988 20.3377 28.4732Z" fill="#00C8E6"/>
</svg>
