<svg width="60" height="60" viewBox="0 0 60 60" fill="none" xmlns="http://www.w3.org/2000/svg">
<path d="M52 32V50C52 51.657 50.657 53 49 53H7C5.343 53 4 51.657 4 50V11C4 9.343 5.343 8 7 8H45" stroke="white" stroke-width="2" stroke-miterlimit="10"/>
<path d="M4 16H45" stroke="white" stroke-width="2" stroke-miterlimit="10"/>
<path d="M45 11H43V13H45V11Z" fill="#00C8E6"/>
<path d="M41 11H39V13H41V11Z" fill="#00C8E6"/>
<path d="M40 40C44.4183 40 48 36.4183 48 32C48 27.5817 44.4183 24 40 24C35.5817 24 32 27.5817 32 32C32 36.4183 35.5817 40 40 40Z" stroke="white" stroke-width="2" stroke-miterlimit="10"/>
<path d="M48 32V4" stroke="white" stroke-width="2" stroke-miterlimit="10"/>
<path d="M48 4.024C48.007 10.03 61.406 8.684 55.494 25C52.75 16.375 48 18 48 12" stroke="white" stroke-width="2" stroke-miterlimit="10"/>
<path d="M14 45C17.3137 45 20 42.3137 20 39C20 35.6863 17.3137 33 14 33C10.6863 33 8 35.6863 8 39C8 42.3137 10.6863 45 14 45Z" stroke="white" stroke-width="2" stroke-miterlimit="10"/>
<path d="M20 39V19" stroke="white" stroke-width="2" stroke-miterlimit="10"/>
<path d="M20 19C20 24 30.892 23.545 25.5 35C23.312 30.062 20 29.937 20 25" stroke="white" stroke-width="2" stroke-miterlimit="10"/>
<path d="M10 48H8V50H10V48Z" fill="#00C8E6"/>
<path d="M15 48H13V50H15V48Z" fill="#00C8E6"/>
<path d="M20 48H18V50H20V48Z" fill="#00C8E6"/>
<path d="M56 36V47" stroke="#00C8E6" stroke-width="2" stroke-miterlimit="10"/>
<path d="M56 49V52" stroke="#00C8E6" stroke-width="2" stroke-miterlimit="10"/>
<path d="M40 28C37.791 28 36 29.791 36 32" stroke="#00C8E6" stroke-width="2" stroke-miterlimit="10"/>
<path d="M14 37C12.895 37 12 37.895 12 39" stroke="#00C8E6" stroke-width="2" stroke-miterlimit="10"/>
</svg>
