<svg width="60" height="60" viewBox="0 0 60 60" fill="none" xmlns="http://www.w3.org/2000/svg">
<path d="M41.9746 49.975L46.6876 45.296C48.2166 43.778 50.0086 42.552 51.9766 41.677L57.6936 39.136" stroke="white" stroke-width="2" stroke-miterlimit="10"/>
<path d="M37 54C37 56.485 33.314 58 30 58C26.686 58 23 55.485 23 53C23 49.687 26.686 49 30 49C33.314 49 37 51.515 37 54Z" stroke="white" stroke-width="2" stroke-miterlimit="10"/>
<path d="M23.582 54.761C21.085 53.454 18.872 51.371 17.663 49.808C15.559 47.088 13.017 42.847 10.116 41C8.14696 39.747 5.48096 39.282 2.33496 38.125" stroke="white" stroke-width="2" stroke-miterlimit="10"/>
<path d="M26.527 33.237C26.186 33.006 25.871 32.8 25.59 32.624C25.142 32.343 23.672 32 23 32C17.391 32 14.629 30.715 11.404 28.027C10.229 27.048 8.21095 25.149 7.37695 24.359" stroke="white" stroke-width="2" stroke-miterlimit="10"/>
<path d="M36.3921 55.647C36.3921 55.647 40.2501 52.812 41.9751 49.975C42.4401 49.209 43.0001 48.466 43.0001 47.5C43.0001 46.422 42.5132 45.458 41.7472 44.816C41.7472 44.816 36.3001 40.453 31.4521 36.804" stroke="white" stroke-width="2" stroke-miterlimit="10"/>
<path d="M37 36H31.855L29.685 40.34C29.192 41.324 28.175 42 27 42C25.343 42 24 40.657 24 39C24 38.518 24.113 38.063 24.315 37.66L27.315 31.66C27.808 30.676 28.825 30 30 30H38.371C42.563 30.25 45 32 45 32L54.553 24.357" stroke="white" stroke-width="2" stroke-miterlimit="10"/>
<path d="M5 21V14C5 12.895 5.895 12 7 12H15C16.105 12 17 12.895 17 14V23" stroke="white" stroke-width="2" stroke-miterlimit="10"/>
<path d="M23 27V10C23 8.895 23.895 8 25 8H33C34.105 8 35 8.895 35 10V27" stroke="white" stroke-width="2" stroke-miterlimit="10"/>
<path d="M41 23V4C41 2.895 41.895 2 43 2H51C52.105 2 53 2.895 53 4V21" stroke="white" stroke-width="2" stroke-miterlimit="10"/>
<path d="M1 21V23" stroke="#00C8E6" stroke-width="2" stroke-miterlimit="10"/>
<path d="M1 25V27" stroke="#00C8E6" stroke-width="2" stroke-miterlimit="10"/>
<path d="M31 11V17" stroke="#00C8E6" stroke-width="2" stroke-miterlimit="10"/>
<path d="M31 19V21" stroke="#00C8E6" stroke-width="2" stroke-miterlimit="10"/>
<path d="M59 5V14" stroke="#00C8E6" stroke-width="2" stroke-miterlimit="10"/>
<path d="M59 3V1" stroke="#00C8E6" stroke-width="2" stroke-miterlimit="10"/>
</svg>
