<svg width="200" height="200" viewBox="0 0 200 200" fill="none" xmlns="http://www.w3.org/2000/svg">
<path d="M160.893 192.81L157.33 186.62C154.977 182.527 151.493 179.233 147.27 177.123C136.583 171.78 115.327 161.153 104.607 155.79C101.877 154.42 100 151.597 100 148.333C100 143.73 103.73 140 108.333 140C109.673 140 110.933 140.327 112.053 140.877C116.667 143.147 130.573 149.81 130.573 149.81C132.323 150.627 134.057 148.653 133.02 147.027L107.677 106.87C107.037 105.843 106.667 104.633 106.667 103.333C106.667 99.6533 109.653 96.6666 113.333 96.6666C115.723 96.6666 117.793 97.9333 118.99 99.8066C123.35 106.627 136.71 126.903 136.71 126.903L157.503 117.87C159.15 117.153 160.92 116.683 162.713 116.667C168.487 116.667 173.463 120.22 175.417 125.54L195.093 179.16" stroke="white" stroke-width="5" stroke-miterlimit="10"/>
<path d="M177.973 107.8C182.43 110.877 185.903 115.403 187.937 120.95L194.707 139.4" stroke="white" stroke-width="5" stroke-miterlimit="10"/>
<path d="M163.333 103.333C165.47 103.333 167.533 103.577 169.5 104.043" stroke="white" stroke-width="5" stroke-miterlimit="10"/>
<path d="M122.257 164.613L66.1534 176.447C60.6401 177.61 55.2201 174.1 54.0501 168.61L26.8867 41.0533C25.7201 35.5667 29.2434 30.17 34.7601 29.01L123.847 10.22C129.36 9.05667 134.78 12.5667 135.95 18.0567L157.233 118.01" stroke="white" stroke-width="5" stroke-miterlimit="10"/>
<path d="M82.9501 32.4733L40.6001 41.4066L45.9168 66.4066L128.887 48.9066L123.563 23.9066L103.77 28.0833" stroke="white" stroke-width="5" stroke-miterlimit="10"/>
<path d="M96.1768 29.6833L90.5334 30.8734" stroke="white" stroke-width="5" stroke-miterlimit="10"/>
<path d="M101.43 152.963L65.9434 160.447L48.8201 80.0466L131.79 62.5466L144.753 123.433" stroke="white" stroke-width="5" stroke-miterlimit="10"/>
<path d="M124.097 92.7666L137.617 89.9166" stroke="white" stroke-width="5" stroke-miterlimit="10"/>
<path d="M54.6533 107.417L99.2633 98.0067" stroke="white" stroke-width="5" stroke-miterlimit="10"/>
<path d="M60.2866 133.887L105.793 124.287" stroke="white" stroke-width="5" stroke-miterlimit="10"/>
<path d="M90.9402 142.773L76.3435 74.2234" stroke="white" stroke-width="5" stroke-miterlimit="10"/>
<path d="M108.64 86.0667L104.837 68.2167" stroke="white" stroke-width="5" stroke-miterlimit="10"/>
<path d="M63.3334 46.6666H56.6667V53.3333H63.3334V46.6666Z" fill="#00C8E6"/>
<path d="M76.6667 43.3334H70V50H76.6667V43.3334Z" fill="#00C8E6"/>
<path d="M89.9999 40H83.3333V46.6667H89.9999V40Z" fill="#00C8E6"/>
<path d="M20 140V153.333" stroke="#00C8E6" stroke-width="5" stroke-miterlimit="10"/>
<path d="M20 166.667V180" stroke="#00C8E6" stroke-width="5" stroke-miterlimit="10"/>
<path d="M40.0001 160H26.6667" stroke="#00C8E6" stroke-width="5" stroke-miterlimit="10"/>
<path d="M13.3333 160H0" stroke="#00C8E6" stroke-width="5" stroke-miterlimit="10"/>
<path d="M173.333 6.66663V23.3333" stroke="#00C8E6" stroke-width="5" stroke-miterlimit="10"/>
<path d="M173.333 36.6666V53.3333" stroke="#00C8E6" stroke-width="5" stroke-miterlimit="10"/>
<path d="M196.667 30H180" stroke="#00C8E6" stroke-width="5" stroke-miterlimit="10"/>
<path d="M166.667 30H150" stroke="#00C8E6" stroke-width="5" stroke-miterlimit="10"/>
</svg>
