<svg width="200" height="200" viewBox="0 0 200 200" fill="none" xmlns="http://www.w3.org/2000/svg">
<path d="M33.3333 53.3333C25.97 53.3333 20 47.1133 20 39.4433V33.8867C20 26.2167 25.97 20 33.3333 20C40.6967 20 46.6667 26.2167 46.6667 33.89V39.4467C46.6667 47.1133 40.6967 53.3333 33.3333 53.3333Z" stroke="white" stroke-width="5" stroke-miterlimit="10"/>
<path d="M10 100V80C10 72.6367 15.97 66.6667 23.3333 66.6667H43.3333C50.6967 66.6667 56.6667 72.6367 56.6667 80V100" stroke="white" stroke-width="5" stroke-miterlimit="10"/>
<path d="M136.667 126.667V103.333C136.667 94.13 144.13 86.6667 153.333 86.6667H173.333C182.537 86.6667 190 94.13 190 103.333V126.667" stroke="white" stroke-width="5" stroke-miterlimit="10"/>
<path d="M90.0001 140C82.6367 140 76.6667 133.78 76.6667 126.11V120.553C76.6667 112.887 82.6367 106.667 90.0001 106.667C97.3634 106.667 103.333 112.887 103.333 120.557V126.113C103.333 133.78 97.3634 140 90.0001 140Z" stroke="white" stroke-width="5" stroke-miterlimit="10"/>
<path d="M66.6667 186.667V166.667C66.6667 159.303 72.6367 153.333 80.0001 153.333H100C107.363 153.333 113.333 159.303 113.333 166.667V186.667" stroke="white" stroke-width="5" stroke-miterlimit="10"/>
<path d="M163.333 73.3333C154.027 73.3333 146.667 65.87 146.667 56.6666V50C146.667 40.7966 154.097 33.3333 163.333 33.3333C172.537 33.3333 180 40.7966 180 50V56.6666C180 65.87 172.537 73.3333 163.333 73.3333Z" stroke="white" stroke-width="5" stroke-miterlimit="10"/>
<path d="M84.2634 26.3967C88.9868 27.4433 93.2268 28.6833 96.6668 30C106.573 33.7967 116.403 38.3233 132.187 52.31" stroke="#00C8E6" stroke-width="5" stroke-miterlimit="10"/>
<path d="M70.8132 24.1633C72.4766 24.3533 74.1199 24.5733 75.7366 24.8167" stroke="#00C8E6" stroke-width="5" stroke-miterlimit="10"/>
<path d="M56.6667 23.3333C58.6101 23.3333 60.5601 23.3833 62.5034 23.48" stroke="#00C8E6" stroke-width="5" stroke-miterlimit="10"/>
<path d="M105.917 82.1567C114.147 73.1567 125.307 66.6667 133.333 66.6667" stroke="#00C8E6" stroke-width="5" stroke-miterlimit="10"/>
<path d="M97.1699 95.3967C97.7933 93.9134 98.5299 92.4467 99.3633 91.0034" stroke="#00C8E6" stroke-width="5" stroke-miterlimit="10"/>
</svg>
