<svg width="200" height="200" viewBox="0 0 200 200" fill="none" xmlns="http://www.w3.org/2000/svg">
<path d="M181.667 156.25L178.097 145.427C177.16 142.58 176.667 139.627 176.667 136.667C176.667 133.66 177.03 130.723 177.913 127.85C179.297 123.337 180.003 118.643 180 113.923V93.3333" stroke="white" stroke-width="5" stroke-miterlimit="10"/>
<path d="M143.333 163.333L138.347 156.163C134.42 150.513 131.933 147.86 125.57 143.333C116.503 136.887 113.827 129.803 111.353 121.193L100.453 83.2667C100.16 82.2433 100 81.1433 100 80C100 74.4767 103.73 70 108.333 70C111.21 70 113.747 71.75 115.243 74.41L129.697 100.177C130.857 102.243 132.547 103.967 134.593 105.163L145.883 111.767" stroke="white" stroke-width="5" stroke-miterlimit="10"/>
<path d="M100.473 76.6667H83.3333L75 85L83.3333 93.3334H103.347" stroke="white" stroke-width="5" stroke-miterlimit="10"/>
<path d="M125.86 93.3334H188.333C192.937 93.3334 196.667 89.6034 196.667 85C196.667 80.3967 192.937 76.6667 188.333 76.6667H116.51" stroke="white" stroke-width="5" stroke-miterlimit="10"/>
<path d="M133.02 182.857L130.083 169.85C129.677 168.053 130.803 166.27 132.6 165.863L187.723 153.413C189.52 153.007 191.303 154.133 191.71 155.93L194.75 169.393" stroke="white" stroke-width="5" stroke-miterlimit="10"/>
<path d="M150 173.333H143.333V180H150V173.333Z" fill="white"/>
<path d="M19.9999 96.6667H13.3333V103.333H19.9999V96.6667Z" fill="#00C8E6"/>
<path d="M19.9999 83.3333H13.3333V90H19.9999V83.3333Z" fill="#00C8E6"/>
<path d="M19.9999 70H13.3333V76.6667H19.9999V70Z" fill="#00C8E6"/>
<path d="M3.33325 176.667V113.333H23.3333V176.667" stroke="white" stroke-width="5" stroke-miterlimit="10"/>
<path d="M36.6667 166.667V76.6667H56.6667V166.667" stroke="white" stroke-width="5" stroke-miterlimit="10"/>
<path d="M90 103.333V156.667" stroke="white" stroke-width="5" stroke-miterlimit="10"/>
<path d="M70 70V36.6667H90V50" stroke="white" stroke-width="5" stroke-miterlimit="10"/>
<path d="M70 156.667V96.6667" stroke="white" stroke-width="5" stroke-miterlimit="10"/>
<path d="M53.3334 50H46.6667V56.6667H53.3334V50Z" fill="#00C8E6"/>
<path d="M53.3334 36.6667H46.6667V43.3334H53.3334V36.6667Z" fill="#00C8E6"/>
<path d="M53.3334 23.3333H46.6667V30H53.3334V23.3333Z" fill="#00C8E6"/>
<path d="M120 40H113.333V46.6667H120V40Z" fill="#00C8E6"/>
<path d="M120 26.6667H113.333V33.3334H120V26.6667Z" fill="#00C8E6"/>
<path d="M120 13.3333H113.333V20H120V13.3333Z" fill="#00C8E6"/>
<path d="M92.5467 76.6666C90.9633 74.9 90 72.5633 90 70C90 64.93 93.7733 60.74 98.6633 60.09L147.583 53.45C148.137 53.3733 148.697 53.3333 149.253 53.3333C152.99 53.3366 156.523 55.0366 158.857 57.9533L173.853 76.6666" stroke="white" stroke-width="2" stroke-miterlimit="10"/>
</svg>
