<svg width="200" height="200" viewBox="0 0 200 200" fill="none" xmlns="http://www.w3.org/2000/svg">
<path d="M170 90.7899V183.333L173.677 184.56C177.453 185.817 180 189.353 180 193.333C180 195.173 178.507 196.667 176.667 196.667H160C156.317 196.667 153.333 193.683 153.333 190V133.333" stroke="white" stroke-width="5" stroke-miterlimit="10"/>
<path d="M153.333 59.9999C162.538 59.9999 170 51.7918 170 41.6666C170 31.5414 162.538 23.3333 153.333 23.3333C144.128 23.3333 136.667 31.5414 136.667 41.6666C136.667 51.7918 144.128 59.9999 153.333 59.9999Z" stroke="white" stroke-width="5" stroke-miterlimit="10"/>
<path d="M143.807 160.813L136.107 191.617C135.363 194.587 132.697 196.667 129.637 196.667H113.333C111.493 196.667 110 195.173 110 193.333C110 189.417 112.667 186 116.467 185.05L120.833 183.957L136.667 120.633V86.6666H99.9999C96.3166 86.6666 93.3333 83.6833 93.3333 79.9999C93.3333 76.3166 96.3166 73.3333 99.9999 73.3333H163.333C174.38 73.3333 183.333 82.2866 183.333 93.3333V131.667C183.333 136.27 179.603 140 175 140H170" stroke="white" stroke-width="5" stroke-miterlimit="10"/>
<path d="M69.5133 176.667C68.15 178.743 66.75 180.79 65.3167 182.813" stroke="#00C8E6" stroke-width="5" stroke-miterlimit="10"/>
<path d="M79.6732 159.44C78.1399 162.353 76.5365 165.227 74.8699 168.06" stroke="#00C8E6" stroke-width="5" stroke-miterlimit="10"/>
<path d="M88.08 141.403C86.83 144.467 85.5067 147.49 84.1167 150.477" stroke="#00C8E6" stroke-width="5" stroke-miterlimit="10"/>
<path d="M106.223 130.5C104.9 134.627 103.46 138.7 101.906 142.72" stroke="#00C8E6" stroke-width="5" stroke-miterlimit="10"/>
<path d="M114.09 97.1033C112.753 105.78 110.91 114.29 108.59 122.6" stroke="#00C8E6" stroke-width="5" stroke-miterlimit="10"/>
<path d="M36.49 70.4166C36.28 74.64 35.8833 78.8133 35.3066 82.93" stroke="#00C8E6" stroke-width="5" stroke-miterlimit="10"/>
<path d="M34.0498 90.4133C33.6632 92.3933 33.2332 94.3567 32.7632 96.3033" stroke="#00C8E6" stroke-width="5" stroke-miterlimit="10"/>
<path d="M102.03 86.6666C100.267 102.357 96.7467 117.513 91.6733 131.94" stroke="white" stroke-width="5" stroke-miterlimit="10"/>
<path d="M11.1599 165.327C35.3199 138.227 49.9999 102.493 49.9999 63.3333V60H29.9999C28.1599 60 26.6666 58.5066 26.6666 56.6666C26.6666 55.7433 27.0399 54.91 27.6466 54.3066L74.3166 7.63663C74.9199 7.03663 75.7499 6.66663 76.6666 6.66663C77.5832 6.66663 78.4132 7.03663 79.0166 7.63663L125.687 54.3066C126.293 54.91 126.667 55.7433 126.667 56.6666C126.667 58.5066 125.173 60 123.333 60H103.333V63.3333C103.333 66.6866 103.253 70.0233 103.097 73.34" stroke="white" stroke-width="5" stroke-miterlimit="10"/>
<path d="M79.9999 23.3334H73.3333V30H79.9999V23.3334Z" fill="#00C8E6"/>
<path d="M79.9999 36.6666H73.3333V43.3333H79.9999V36.6666Z" fill="#00C8E6"/>
<path d="M79.9999 50H73.3333V56.6667H79.9999V50Z" fill="#00C8E6"/>
<path d="M53.3334 130H46.6667V136.667H53.3334V130Z" fill="#00C8E6"/>
<path d="M59.9999 116.667H53.3333V123.333H59.9999V116.667Z" fill="#00C8E6"/>
<path d="M46.6667 143.333H40V150H46.6667V143.333Z" fill="#00C8E6"/>
</svg>
