<svg width="839" height="1210" viewBox="0 0 839 1210" fill="none" xmlns="http://www.w3.org/2000/svg">
<g opacity="0.2" filter="url(#filter0_f_33_1062)">
<path d="M434.875 219.978C472.517 181.563 534.371 181.562 572.013 219.978L673.936 323.994L989.797 636.916C1027.85 674.616 1027.69 736.168 989.438 773.668L885.047 876.006L782.727 980.428C745.238 1018.69 683.691 1018.87 645.981 980.825L332.953 665.057L228.929 563.079C190.535 525.44 190.535 463.611 228.929 425.973L332.953 323.994L434.875 219.978Z" fill="white"/>
<path d="M673.579 324.344L673.584 324.349L989.446 637.271C1027.3 674.775 1027.14 736.006 989.088 773.311L884.697 875.649L884.69 875.656L782.37 980.078C745.076 1018.14 683.85 1018.32 646.336 980.473L333.308 664.705L333.303 664.7L229.279 562.722C191.085 525.279 191.085 463.772 229.279 426.33L333.303 324.351L333.31 324.344L435.233 220.328C472.678 182.113 534.21 182.113 571.656 220.328L673.579 324.344Z" stroke="#00C8E6"/>
</g>
<g opacity="0.010101">
<path d="M797.868 495.391L797.876 495.398L871.503 567.56C909.708 605.004 909.708 666.524 871.503 703.968L797.875 776.13L797.868 776.138L725.706 849.765C688.262 887.97 626.742 887.97 589.298 849.765L517.136 776.138L517.129 776.131L443.501 703.968C405.296 666.524 405.296 605.004 443.501 567.56L517.129 495.398L517.136 495.391L589.298 421.763C626.742 383.559 688.262 383.559 725.706 421.763L797.868 495.391Z" stroke="#00C8E6"/>
<path d="M764.236 529.023L764.243 529.03L803.556 567.56C841.76 605.004 841.76 666.524 803.556 703.968L764.243 742.498L764.236 742.506L725.706 781.818C688.261 820.023 626.742 820.023 589.298 781.818L550.767 742.505L550.76 742.498L511.447 703.968C473.243 666.524 473.243 605.004 511.447 567.56L550.76 529.03L550.76 529.03L550.767 529.023L589.298 489.71C626.742 451.505 688.261 451.505 725.706 489.71L764.236 529.023Z" stroke="#00C8E6"/>
</g>
<g opacity="0.020202">
<path d="M796.083 493.603L796.09 493.61L869.718 565.772C907.922 603.216 907.922 664.736 869.718 702.18L796.09 774.342L796.083 774.35L723.92 847.977C686.476 886.182 624.957 886.182 587.512 847.977L515.35 774.349L515.343 774.342L441.715 702.18C403.511 664.736 403.511 603.216 441.715 565.772L515.343 493.61L515.35 493.603L587.512 419.975C624.957 381.77 686.476 381.77 723.92 419.975L796.083 493.603Z" stroke="#00C8E6"/>
<path d="M762.45 527.235L762.457 527.242L801.77 565.772C839.975 603.216 839.975 664.736 801.77 702.18L762.457 740.71L762.45 740.717L723.92 780.03C686.476 818.235 624.956 818.235 587.512 780.03L548.982 740.717L548.975 740.71L509.662 702.18C471.457 664.736 471.457 603.216 509.662 565.772L548.975 527.242L548.975 527.242L548.982 527.235L587.512 487.922C624.956 449.717 686.476 449.717 723.92 487.922L762.45 527.235Z" stroke="#00C8E6"/>
</g>
<g opacity="0.030303">
<path d="M794.295 491.815L794.302 491.822L867.93 563.984C906.134 601.428 906.134 662.948 867.93 700.392L794.302 772.554L794.295 772.561L722.133 846.189C684.688 884.394 623.169 884.394 585.725 846.189L513.562 772.561L513.555 772.554L439.927 700.392C401.723 662.948 401.723 601.428 439.927 563.984L513.555 491.822L513.562 491.815L585.725 418.187C623.169 379.982 684.688 379.982 722.133 418.187L794.295 491.815Z" stroke="#00C8E6"/>
<path d="M760.662 525.447L760.67 525.454L799.982 563.984C838.187 601.428 838.187 662.948 799.982 700.392L760.67 738.922L760.663 738.929L722.132 778.242C684.688 816.447 623.168 816.447 585.724 778.242L547.194 738.929L547.187 738.922L507.874 700.392C469.669 662.948 469.669 601.428 507.874 563.984L547.187 525.454L547.187 525.454L547.194 525.446L585.724 486.134C623.168 447.929 684.688 447.929 722.132 486.134L760.662 525.447Z" stroke="#00C8E6"/>
</g>
<g opacity="0.040404">
<path d="M792.505 490.027L792.512 490.034L866.139 562.196C904.344 599.64 904.344 661.16 866.139 698.604L792.512 770.766L792.505 770.773L720.342 844.401C682.898 882.606 621.379 882.606 583.934 844.401L511.772 770.773L511.765 770.766L438.137 698.604C399.933 661.16 399.933 599.64 438.137 562.196L511.765 490.034L511.772 490.027L583.934 416.399C621.378 378.194 682.898 378.194 720.342 416.399L792.505 490.027Z" stroke="#00C8E6"/>
<path d="M758.872 523.659L758.879 523.666L798.192 562.196C836.397 599.64 836.397 661.16 798.192 698.604L758.879 737.134L758.872 737.141L720.342 776.454C682.898 814.659 621.378 814.659 583.934 776.454L545.404 737.141L545.396 737.134L506.084 698.604C467.879 661.16 467.879 599.64 506.084 562.196L545.396 523.666L545.397 523.666L545.404 523.659L583.934 484.346C621.378 446.141 682.898 446.141 720.342 484.346L758.872 523.659Z" stroke="#00C8E6"/>
</g>
<g opacity="0.050505">
<path d="M790.717 488.239L790.724 488.246L864.352 560.408C902.557 597.852 902.557 659.372 864.352 696.816L790.724 768.978L790.717 768.985L718.555 842.613C681.111 880.818 619.591 880.818 582.147 842.613L509.985 768.985L509.977 768.978L436.35 696.816C398.145 659.372 398.145 597.852 436.35 560.408L509.978 488.246L509.985 488.238L582.147 414.611C619.591 376.406 681.111 376.406 718.555 414.611L790.717 488.239Z" stroke="#00C8E6"/>
<path d="M757.085 521.871L757.092 521.878L796.405 560.408C834.609 597.852 834.609 659.372 796.405 696.816L757.092 735.346L757.085 735.353L718.554 774.666C681.11 812.871 619.591 812.871 582.147 774.666L543.616 735.353L543.609 735.346L504.296 696.816C466.092 659.372 466.092 597.852 504.296 560.408L543.609 521.878L543.609 521.878L543.616 521.87L582.147 482.558C619.591 444.353 681.11 444.353 718.554 482.558L757.085 521.871Z" stroke="#00C8E6"/>
</g>
<g opacity="0.0606061">
<path d="M788.929 486.45L788.937 486.457L862.564 558.62C900.769 596.064 900.769 657.584 862.564 695.028L788.936 767.19L788.929 767.197L716.767 840.825C679.323 879.029 617.803 879.03 580.359 840.825L508.197 767.197L508.19 767.19L434.562 695.028C396.358 657.584 396.357 596.064 434.562 558.62L508.19 486.458L508.197 486.45L580.359 412.823C617.803 374.618 679.323 374.618 716.767 412.823L788.929 486.45Z" stroke="#00C8E6"/>
<path d="M755.297 520.083L755.304 520.09L794.617 558.62C832.821 596.064 832.821 657.584 794.617 695.028L755.304 733.558L755.297 733.565L716.767 772.878C679.322 811.083 617.803 811.083 580.359 772.878L541.828 733.565L541.821 733.558L502.508 695.028C464.304 657.584 464.304 596.064 502.508 558.62L541.821 520.09L541.821 520.09L541.828 520.082L580.359 480.77C617.803 442.565 679.322 442.565 716.767 480.77L755.297 520.083Z" stroke="#00C8E6"/>
</g>
<g opacity="0.0707071">
<path d="M787.141 484.662L787.148 484.669L860.776 556.832C898.98 594.276 898.98 655.796 860.776 693.24L787.148 765.402L787.141 765.409L714.979 839.037C677.535 877.241 616.015 877.241 578.571 839.037L506.408 765.409L506.401 765.402L432.774 693.24C394.569 655.796 394.569 594.276 432.774 556.832L506.401 484.669L506.408 484.662L578.571 411.035C616.015 372.83 677.535 372.83 714.979 411.035L787.141 484.662Z" stroke="#00C8E6"/>
<path d="M753.509 518.294L753.516 518.301L792.829 556.832C831.033 594.276 831.033 655.795 792.829 693.24L753.516 731.77L753.509 731.777L714.978 771.09C677.534 809.294 616.015 809.294 578.57 771.09L540.04 731.777L540.033 731.77L500.72 693.24C462.516 655.795 462.516 594.276 500.72 556.832L540.033 518.301L540.033 518.301L540.04 518.294L578.57 478.981C616.015 440.777 677.534 440.777 714.978 478.981L753.509 518.294Z" stroke="#00C8E6"/>
</g>
<g opacity="0.0808081">
<path d="M785.354 482.874L785.361 482.881L858.989 555.044C897.193 592.488 897.193 654.007 858.989 691.452L785.361 763.614L785.354 763.621L713.192 837.249C675.747 875.453 614.228 875.453 576.784 837.249L504.621 763.621L504.614 763.614L430.987 691.452C392.782 654.008 392.782 592.488 430.987 555.044L504.614 482.881L504.621 482.874L576.784 409.247C614.228 371.042 675.747 371.042 713.192 409.247L785.354 482.874Z" stroke="#00C8E6"/>
<path d="M751.722 516.506L751.729 516.513L791.042 555.044C829.246 592.488 829.246 654.007 791.042 691.451L751.729 729.982L751.722 729.989L713.191 769.302C675.747 807.506 614.228 807.506 576.783 769.302L538.253 729.989L538.246 729.982L498.933 691.451C460.728 654.007 460.729 592.488 498.933 555.044L538.246 516.513L538.246 516.513L538.253 516.506L576.783 477.193C614.228 438.989 675.747 438.989 713.191 477.193L751.722 516.506Z" stroke="#00C8E6"/>
</g>
<g opacity="0.0909091">
<path d="M783.566 481.086L783.573 481.093L857.2 553.256C895.405 590.7 895.405 652.219 857.201 689.664L783.573 761.826L783.566 761.833L711.403 835.461C673.959 873.665 612.44 873.665 574.995 835.461L502.833 761.833L502.826 761.826L429.198 689.664C390.994 652.219 390.994 590.7 429.198 553.256L502.826 481.093L502.833 481.086L574.995 407.459C612.44 369.254 673.959 369.254 711.403 407.458L783.566 481.086Z" stroke="#00C8E6"/>
<path d="M749.933 514.718L749.94 514.725L789.253 553.256C827.458 590.7 827.458 652.219 789.253 689.663L749.94 728.194L749.933 728.201L711.403 767.514C673.959 805.718 612.439 805.718 574.995 767.514L536.465 728.201L536.457 728.194L497.145 689.663C458.94 652.219 458.94 590.7 497.145 553.255L536.457 514.725L536.458 514.725L536.465 514.718L574.995 475.405C612.439 437.201 673.959 437.201 711.403 475.405L749.933 514.718Z" stroke="#00C8E6"/>
</g>
<g opacity="0.10101">
<path d="M781.778 479.298L781.785 479.305L855.413 551.468C893.617 588.912 893.617 650.431 855.413 687.876L781.785 760.038L781.778 760.045L709.616 833.673C672.171 871.877 610.652 871.877 573.208 833.673L501.045 760.045L501.038 760.038L427.41 687.876C389.206 650.431 389.206 588.912 427.41 551.468L501.038 479.305L501.045 479.298L573.207 405.671C610.652 367.466 672.171 367.466 709.615 405.67L781.778 479.298Z" stroke="#00C8E6"/>
<path d="M748.145 512.93L748.153 512.937L787.465 551.468C825.67 588.912 825.67 650.431 787.465 687.875L748.152 726.406L748.145 726.413L709.615 765.726C672.171 803.93 610.651 803.93 573.207 765.726L534.677 726.413L534.67 726.406L495.357 687.875C457.152 650.431 457.152 588.912 495.357 551.468L534.67 512.937L534.67 512.937L534.677 512.93L573.207 473.617C610.651 435.413 672.171 435.413 709.615 473.617L748.145 512.93Z" stroke="#00C8E6"/>
</g>
<g opacity="0.111111">
<path d="M779.99 477.51L779.997 477.517L853.625 549.68C891.829 587.124 891.829 648.643 853.625 686.087L779.997 758.25L779.99 758.257L707.828 831.885C670.383 870.089 608.864 870.089 571.42 831.885L499.257 758.257L499.25 758.25L425.623 686.088C387.418 648.643 387.418 587.124 425.623 549.68L499.25 477.517L499.257 477.51L571.42 403.882C608.864 365.678 670.383 365.678 707.828 403.882L779.99 477.51Z" stroke="#00C8E6"/>
<path d="M746.358 511.142L746.365 511.149L785.678 549.68C823.882 587.124 823.882 648.643 785.677 686.087L746.365 724.618L746.358 724.625L707.827 763.938C670.383 802.142 608.864 802.142 571.419 763.938L532.889 724.625L532.882 724.618L493.569 686.087C455.364 648.643 455.365 587.124 493.569 549.68L532.882 511.149L532.882 511.149L532.889 511.142L571.419 471.829C608.864 433.625 670.383 433.625 707.827 471.829L746.358 511.142Z" stroke="#00C8E6"/>
</g>
<g opacity="0.121212">
<path d="M778.202 475.722L778.209 475.729L851.836 547.891C890.041 585.336 890.041 646.855 851.836 684.299L778.209 756.462L778.202 756.469L706.039 830.097C668.595 868.301 607.076 868.301 569.631 830.097L497.469 756.469L497.462 756.462L423.834 684.299C385.63 646.855 385.63 585.336 423.834 547.892L497.462 475.729L497.469 475.722L569.631 402.094C607.076 363.89 668.595 363.89 706.039 402.094L778.202 475.722Z" stroke="#00C8E6"/>
<path d="M744.569 509.354L744.576 509.361L783.889 547.892C822.094 585.336 822.094 646.855 783.889 684.299L744.576 722.83L744.569 722.837L706.039 762.15C668.595 800.354 607.075 800.354 569.631 762.15L531.101 722.837L531.093 722.83L491.781 684.299C453.576 646.855 453.576 585.336 491.781 547.891L531.093 509.361L531.094 509.361L531.101 509.354L569.631 470.041C607.075 431.837 668.595 431.837 706.039 470.041L744.569 509.354Z" stroke="#00C8E6"/>
</g>
<g opacity="0.131313">
<path d="M776.414 473.934L776.421 473.941L850.049 546.103C888.253 583.548 888.253 645.067 850.049 682.511L776.421 754.674L776.414 754.681L704.251 828.308C666.807 866.513 605.288 866.513 567.844 828.309L495.681 754.681L495.674 754.674L422.046 682.511C383.842 645.067 383.842 583.548 422.046 546.103L495.674 473.941L495.681 473.934L567.843 400.306C605.288 362.102 666.807 362.102 704.251 400.306L776.414 473.934Z" stroke="#00C8E6"/>
<path d="M742.781 507.566L742.789 507.573L782.101 546.103C820.306 583.548 820.306 645.067 782.101 682.511L742.788 721.042L742.781 721.049L704.251 760.362C666.807 798.566 605.287 798.566 567.843 760.362L529.313 721.049L529.306 721.042L489.993 682.511C451.788 645.067 451.788 583.548 489.993 546.103L529.306 507.573L529.306 507.573L529.313 507.566L567.843 468.253C605.287 430.049 666.807 430.049 704.251 468.253L742.781 507.566Z" stroke="#00C8E6"/>
</g>
<g opacity="0.141414">
<path d="M774.624 472.146L774.632 472.153L848.259 544.315C886.464 581.759 886.464 643.279 848.259 680.723L774.632 752.886L774.625 752.893L702.462 826.52C665.018 864.725 603.498 864.725 566.054 826.52L493.892 752.893L493.885 752.886L420.257 680.723C382.053 643.279 382.053 581.76 420.257 544.315L493.885 472.153L493.892 472.146L566.054 398.518C603.498 360.314 665.018 360.314 702.462 398.518L774.624 472.146Z" stroke="#00C8E6"/>
<path d="M740.992 505.778L740.999 505.785L780.312 544.315C818.517 581.76 818.517 643.279 780.312 680.723L740.999 719.254L740.992 719.261L702.462 758.574C665.017 796.778 603.498 796.778 566.054 758.573L527.523 719.261L527.516 719.254L488.203 680.723C449.999 643.279 449.999 581.76 488.204 544.315L527.516 505.785L527.516 505.785L527.523 505.778L566.054 466.465C603.498 428.26 665.018 428.26 702.462 466.465L740.992 505.778Z" stroke="#00C8E6"/>
</g>
<g opacity="0.151515">
<path d="M772.839 470.358L772.846 470.365L846.474 542.527C884.678 579.971 884.678 641.491 846.474 678.935L772.846 751.098L772.839 751.105L700.677 824.732C663.232 862.937 601.713 862.937 564.269 824.732L492.106 751.105L492.099 751.098L418.471 678.935C380.267 641.491 380.267 579.972 418.471 542.527L492.099 470.365L492.106 470.358L564.269 396.73C601.713 358.526 663.232 358.526 700.676 396.73L772.839 470.358Z" stroke="#00C8E6"/>
<path d="M739.206 503.99L739.214 503.997L778.526 542.527C816.731 579.972 816.731 641.491 778.526 678.935L739.214 717.466L739.206 717.473L700.676 756.786C663.232 794.99 601.712 794.99 564.268 756.786L525.738 717.473L525.731 717.466L486.418 678.935C448.213 641.491 448.213 579.972 486.418 542.527L525.731 503.997L525.731 503.997L525.738 503.99L564.268 464.677C601.712 426.473 663.232 426.473 700.676 464.677L739.206 503.99Z" stroke="#00C8E6"/>
</g>
<g opacity="0.161616">
<path d="M771.05 468.57L771.057 468.577L844.684 540.739C882.889 578.183 882.889 639.703 844.684 677.147L771.057 749.31L771.05 749.317L698.887 822.944C661.443 861.149 599.923 861.149 562.479 822.944L490.317 749.317L490.31 749.31L416.682 677.147C378.478 639.703 378.478 578.183 416.682 540.739L490.31 468.577L490.317 468.57L562.479 394.942C599.923 356.738 661.443 356.738 698.887 394.942L771.05 468.57Z" stroke="#00C8E6"/>
<path d="M737.417 502.202L737.424 502.209L776.737 540.739C814.942 578.184 814.942 639.703 776.737 677.147L737.424 715.678L737.417 715.685L698.887 754.998C661.443 793.202 599.923 793.202 562.479 754.998L523.949 715.685L523.941 715.678L484.629 677.147C446.424 639.703 446.424 578.184 484.629 540.739L523.941 502.209L523.941 502.209L523.948 502.202L562.479 462.889C599.923 424.685 661.443 424.685 698.887 462.889L737.417 502.202Z" stroke="#00C8E6"/>
</g>
<g opacity="0.171717">
<path d="M769.26 466.782L769.267 466.789L842.895 538.951C881.099 576.395 881.099 637.915 842.895 675.359L769.267 747.521L769.26 747.528L697.098 821.156C659.654 859.361 598.134 859.361 560.69 821.156L488.527 747.528L488.52 747.521L414.893 675.359C376.688 637.915 376.688 576.395 414.893 538.951L488.52 466.789L488.527 466.781L560.69 393.154C598.134 354.949 659.653 354.949 697.098 393.154L769.26 466.782Z" stroke="#00C8E6"/>
<path d="M735.628 500.413L735.635 500.42L774.948 538.951C813.152 576.395 813.152 637.914 774.948 675.359L735.635 713.889L735.628 713.896L697.097 753.209C659.653 791.414 598.134 791.413 560.689 753.209L522.159 713.896L522.152 713.889L482.839 675.359C444.634 637.914 444.635 576.395 482.839 538.951L522.152 500.42L522.152 500.42L522.159 500.413L560.689 461.1C598.134 422.896 659.653 422.896 697.097 461.1L735.628 500.413Z" stroke="#00C8E6"/>
</g>
<g opacity="0.181818">
<path d="M767.472 464.993L767.479 465L841.107 537.163C879.311 574.607 879.312 636.127 841.107 673.571L767.479 745.733L767.472 745.74L695.31 819.368C657.866 857.572 596.346 857.573 558.902 819.368L486.74 745.74L486.732 745.733L413.105 673.571C374.9 636.127 374.9 574.607 413.105 537.163L486.732 465.001L486.739 464.993L558.902 391.366C596.346 353.161 657.866 353.161 695.31 391.366L767.472 464.993Z" stroke="#00C8E6"/>
<path d="M733.84 498.625L733.847 498.632L773.16 537.163C811.364 574.607 811.364 636.126 773.16 673.571L733.847 712.101L733.84 712.108L695.309 751.421C657.865 789.625 596.346 789.625 558.901 751.421L520.371 712.108L520.364 712.101L481.051 673.571C442.847 636.126 442.847 574.607 481.051 537.163L520.364 498.632L520.364 498.632L520.371 498.625L558.902 459.312C596.346 421.108 657.865 421.108 695.309 459.312L733.84 498.625Z" stroke="#00C8E6"/>
</g>
<g opacity="0.191919">
<path d="M765.685 463.205L765.692 463.212L839.319 535.375C877.524 572.819 877.524 634.339 839.319 671.783L765.692 743.945L765.685 743.952L693.522 817.58C656.078 855.784 594.558 855.784 557.114 817.58L484.952 743.952L484.945 743.945L411.317 671.783C373.113 634.339 373.113 572.819 411.317 535.375L484.945 463.212L484.952 463.205L557.114 389.578C594.558 351.373 656.078 351.373 693.522 389.578L765.685 463.205Z" stroke="#00C8E6"/>
<path d="M732.052 496.837L732.059 496.844L771.372 535.375C809.577 572.819 809.577 634.338 771.372 671.783L732.059 710.313L732.052 710.32L693.522 749.633C656.078 787.837 594.558 787.837 557.114 749.633L518.584 710.32L518.576 710.313L479.264 671.782C441.059 634.338 441.059 572.819 479.264 535.375L518.576 496.844L518.576 496.844L518.583 496.837L557.114 457.524C594.558 419.32 656.078 419.32 693.522 457.524L732.052 496.837Z" stroke="#00C8E6"/>
</g>
<g opacity="0.20202">
<path d="M763.895 461.417L763.902 461.425L837.53 533.587C875.734 571.031 875.734 632.551 837.53 669.995L763.902 742.157L763.895 742.164L691.732 815.792C654.288 853.997 592.769 853.997 555.324 815.792L483.162 742.164L483.155 742.157L409.527 669.995C371.323 632.551 371.323 571.031 409.527 533.587L483.155 461.425L483.162 461.417L555.324 387.79C592.769 349.585 654.288 349.585 691.732 387.79L763.895 461.417Z" stroke="#00C8E6"/>
<path d="M730.262 495.049L730.27 495.056L769.582 533.587C807.787 571.031 807.787 632.55 769.582 669.995L730.269 708.525L730.262 708.532L691.732 747.845C654.288 786.049 592.768 786.049 555.324 747.845L516.794 708.532L516.787 708.525L477.474 669.995C439.269 632.55 439.269 571.031 477.474 533.587L516.787 495.056L516.787 495.056L516.794 495.049L555.324 455.736C592.768 417.532 654.288 417.532 691.732 455.736L730.262 495.049Z" stroke="#00C8E6"/>
</g>
<g opacity="0.212121">
<path d="M762.11 459.629L762.117 459.636L835.745 531.799C873.949 569.243 873.949 630.762 835.745 668.207L762.117 740.369L762.11 740.376L689.948 814.004C652.504 852.208 590.984 852.208 553.54 814.004L481.377 740.376L481.37 740.369L407.743 668.207C369.538 630.763 369.538 569.243 407.743 531.799L481.37 459.636L481.377 459.629L553.54 386.002C590.984 347.797 652.504 347.797 689.948 386.002L762.11 459.629Z" stroke="#00C8E6"/>
<path d="M728.478 493.261L728.485 493.268L767.798 531.799C806.002 569.243 806.002 630.762 767.798 668.207L728.485 706.737L728.478 706.744L689.947 746.057C652.503 784.261 590.984 784.261 553.539 746.057L515.009 706.744L515.002 706.737L475.689 668.207C437.485 630.762 437.485 569.243 475.689 531.799L515.002 493.268L515.002 493.268L515.009 493.261L553.539 453.948C590.984 415.744 652.503 415.744 689.947 453.948L728.478 493.261Z" stroke="#00C8E6"/>
</g>
<g opacity="0.222222">
<path d="M760.322 457.841L760.329 457.848L833.956 530.011C872.161 567.455 872.161 628.974 833.956 666.419L760.329 738.581L760.322 738.588L688.159 812.216C650.715 850.42 589.195 850.42 551.751 812.216L479.589 738.588L479.582 738.581L405.954 666.419C367.75 628.974 367.75 567.455 405.954 530.011L479.582 457.848L479.589 457.841L551.751 384.214C589.195 346.009 650.715 346.009 688.159 384.213L760.322 457.841Z" stroke="#00C8E6"/>
<path d="M726.689 491.473L726.696 491.48L766.009 530.011C804.214 567.455 804.214 628.974 766.009 666.418L726.696 704.949L726.689 704.956L688.159 744.269C650.714 782.473 589.195 782.473 551.751 744.269L513.221 704.956L513.213 704.949L473.901 666.418C435.696 628.974 435.696 567.455 473.901 530.011L513.213 491.48L513.213 491.48L513.22 491.473L551.751 452.16C589.195 413.956 650.715 413.956 688.159 452.16L726.689 491.473Z" stroke="#00C8E6"/>
</g>
<g opacity="0.232323">
<path d="M758.531 456.053L758.538 456.06L832.166 528.223C870.371 565.667 870.371 627.186 832.166 664.63L758.538 736.793L758.531 736.8L686.369 810.428C648.925 848.632 587.405 848.632 549.961 810.428L477.799 736.8L477.791 736.793L404.164 664.631C365.959 627.186 365.959 565.667 404.164 528.223L477.792 456.06L477.799 456.053L549.961 382.425C587.405 344.221 648.925 344.221 686.369 382.425L758.531 456.053Z" stroke="#00C8E6"/>
<path d="M724.899 489.685L724.906 489.692L764.219 528.223C802.423 565.667 802.423 627.186 764.219 664.63L724.906 703.161L724.899 703.168L686.368 742.481C648.924 780.685 587.405 780.685 549.961 742.481L511.43 703.168L511.423 703.161L472.11 664.63C433.906 627.186 433.906 565.667 472.11 528.223L511.423 489.692L511.423 489.692L511.43 489.685L549.961 450.372C587.405 412.168 648.924 412.168 686.368 450.372L724.899 489.685Z" stroke="#00C8E6"/>
</g>
<g opacity="0.242424">
<path d="M756.746 454.265L756.753 454.272L830.38 526.434C868.585 563.879 868.585 625.398 830.38 662.842L756.753 735.005L756.746 735.012L684.583 808.64C647.139 846.844 585.62 846.844 548.175 808.64L476.013 735.012L476.006 735.005L402.378 662.842C364.174 625.398 364.174 563.879 402.378 526.434L476.006 454.272L476.013 454.265L548.175 380.637C585.619 342.433 647.139 342.433 684.583 380.637L756.746 454.265Z" stroke="#00C8E6"/>
<path d="M723.113 487.897L723.12 487.904L762.433 526.434C800.638 563.879 800.638 625.398 762.433 662.842L723.12 701.373L723.113 701.38L684.583 740.693C647.139 778.897 585.619 778.897 548.175 740.693L509.645 701.38L509.637 701.373L470.325 662.842C432.12 625.398 432.12 563.879 470.325 526.434L509.637 487.904L509.637 487.904L509.645 487.897L548.175 448.584C585.619 410.38 647.139 410.38 684.583 448.584L723.113 487.897Z" stroke="#00C8E6"/>
</g>
<g opacity="0.252525">
<path d="M754.956 452.477L754.963 452.484L828.591 524.646C866.796 562.091 866.796 623.61 828.591 661.054L754.963 733.217L754.956 733.224L682.794 806.852C645.35 845.056 583.83 845.056 546.386 806.852L474.224 733.224L474.216 733.217L400.589 661.054C362.384 623.61 362.384 562.091 400.589 524.647L474.217 452.484L474.224 452.477L546.386 378.849C583.83 340.645 645.35 340.645 682.794 378.849L754.956 452.477Z" stroke="#00C8E6"/>
<path d="M721.324 486.109L721.331 486.116L760.644 524.647C798.848 562.091 798.848 623.61 760.644 661.054L721.331 699.585L721.324 699.592L682.793 738.905C645.349 777.109 583.83 777.109 546.386 738.905L507.855 699.592L507.848 699.585L468.535 661.054C430.331 623.61 430.331 562.091 468.535 524.646L507.848 486.116L507.848 486.116L507.855 486.109L546.386 446.796C583.83 408.592 645.349 408.592 682.793 446.796L721.324 486.109Z" stroke="#00C8E6"/>
</g>
<g opacity="0.262626">
<path d="M753.168 450.689L753.175 450.696L826.803 522.858C865.007 560.302 865.007 621.822 826.803 659.266L753.175 731.428L753.168 731.436L681.006 805.063C643.561 843.268 582.042 843.268 544.598 805.063L472.435 731.436L472.428 731.428L398.801 659.266C360.596 621.822 360.596 560.302 398.8 522.858L472.428 450.696L472.435 450.689L544.598 377.061C582.042 338.857 643.561 338.856 681.006 377.061L753.168 450.689Z" stroke="#00C8E6"/>
<path d="M719.536 484.321L719.543 484.328L758.855 522.858C797.06 560.303 797.06 621.822 758.855 659.266L719.543 697.797L719.536 697.804L681.005 737.117C643.561 775.321 582.041 775.321 544.597 737.117L506.067 697.804L506.06 697.797L466.747 659.266C428.542 621.822 428.542 560.303 466.747 522.858L506.06 484.328L506.06 484.328L506.067 484.321L544.597 445.008C582.042 406.804 643.561 406.804 681.005 445.008L719.536 484.321Z" stroke="#00C8E6"/>
</g>
<g opacity="0.272727">
<path d="M751.38 448.901L751.387 448.908L825.015 521.07C863.219 558.514 863.219 620.034 825.015 657.478L751.387 729.641L751.38 729.648L679.218 803.275C641.774 841.48 580.254 841.48 542.81 803.275L470.648 729.648L470.64 729.641L397.013 657.478C358.808 620.034 358.808 558.515 397.013 521.07L470.64 448.908L470.647 448.901L542.81 375.273C580.254 337.069 641.774 337.069 679.218 375.273L751.38 448.901Z" stroke="#00C8E6"/>
<path d="M717.748 482.533L717.755 482.54L757.068 521.07C795.272 558.515 795.272 620.034 757.068 657.478L717.755 696.009L717.748 696.016L679.217 735.329C641.773 773.533 580.254 773.533 542.809 735.329L504.279 696.016L504.272 696.009L464.959 657.478C426.755 620.034 426.755 558.515 464.959 521.07L504.272 482.54L504.272 482.54L504.279 482.533L542.809 443.22C580.254 405.016 641.773 405.016 679.217 443.22L717.748 482.533Z" stroke="#00C8E6"/>
</g>
<g opacity="0.282828">
<path d="M749.592 447.113L749.599 447.12L823.227 519.282C861.432 556.726 861.432 618.246 823.227 655.69L749.599 727.852L749.592 727.859L677.43 801.487C639.986 839.692 578.466 839.692 541.022 801.487L468.86 727.859L468.852 727.852L395.225 655.69C357.02 618.246 357.02 556.726 395.225 519.282L468.853 447.12L468.86 447.112L541.022 373.485C578.466 335.28 639.986 335.28 677.43 373.485L749.592 447.113Z" stroke="#00C8E6"/>
<path d="M715.96 480.745L715.967 480.752L755.28 519.282C793.484 556.726 793.484 618.246 755.28 655.69L715.967 694.22L715.96 694.228L677.429 733.54C639.985 771.745 578.466 771.745 541.022 733.54L502.491 694.227L502.484 694.22L463.171 655.69C424.967 618.246 424.967 556.726 463.171 519.282L502.484 480.752L502.484 480.752L502.491 480.745L541.022 441.432C578.466 403.227 639.985 403.227 677.429 441.432L715.96 480.745Z" stroke="#00C8E6"/>
</g>
<g opacity="0.292929">
<path d="M747.803 445.325L747.81 445.332L821.438 517.494C859.642 554.938 859.642 616.458 821.438 653.902L747.81 726.064L747.803 726.072L675.64 799.699C638.196 837.904 576.677 837.904 539.232 799.699L467.07 726.072L467.063 726.064L393.435 653.902C355.231 616.458 355.231 554.938 393.435 517.494L467.063 445.332L467.07 445.325L539.232 371.697C576.677 333.493 638.196 333.492 675.64 371.697L747.803 445.325Z" stroke="#00C8E6"/>
<path d="M714.17 478.957L714.177 478.964L753.49 517.494C791.695 554.938 791.695 616.458 753.49 653.902L714.177 692.432L714.17 692.439L675.64 731.752C638.196 769.957 576.676 769.957 539.232 731.752L500.702 692.439L500.695 692.432L461.382 653.902C423.177 616.458 423.177 554.938 461.382 517.494L500.695 478.964L500.695 478.964L500.702 478.956L539.232 439.644C576.676 401.439 638.196 401.439 675.64 439.644L714.17 478.957Z" stroke="#00C8E6"/>
</g>
<g opacity="0.30303">
<path d="M746.016 443.537L746.023 443.544L819.651 515.706C857.855 553.15 857.855 614.67 819.651 652.114L746.023 724.276L746.016 724.283L673.854 797.911C636.41 836.116 574.89 836.116 537.446 797.911L465.283 724.283L465.276 724.276L391.649 652.114C353.444 614.67 353.444 553.15 391.649 515.706L465.276 443.544L465.283 443.536L537.446 369.909C574.89 331.704 636.41 331.704 673.854 369.909L746.016 443.537Z" stroke="#00C8E6"/>
<path d="M712.384 477.169L712.391 477.176L751.704 515.706C789.908 553.15 789.908 614.67 751.704 652.114L712.391 690.644L712.384 690.651L673.853 729.964C636.409 768.169 574.89 768.169 537.445 729.964L498.915 690.651L498.908 690.644L459.595 652.114C421.391 614.67 421.391 553.15 459.595 515.706L498.908 477.176L498.908 477.176L498.915 477.169L537.445 437.856C574.89 399.651 636.409 399.651 673.853 437.856L712.384 477.169Z" stroke="#00C8E6"/>
</g>
<g opacity="0.313131">
<path d="M744.228 441.748L744.235 441.755L817.863 513.918C856.067 551.362 856.067 612.882 817.863 650.326L744.235 722.488L744.228 722.495L672.065 796.123C634.621 834.327 573.102 834.328 535.658 796.123L463.495 722.495L463.488 722.488L389.86 650.326C351.656 612.882 351.656 551.362 389.86 513.918L463.488 441.756L463.495 441.748L535.657 368.121C573.102 329.916 634.621 329.916 672.065 368.121L744.228 441.748Z" stroke="#00C8E6"/>
<path d="M710.595 475.381L710.603 475.388L749.915 513.918C788.12 551.362 788.12 612.882 749.915 650.326L710.602 688.856L710.595 688.863L672.065 728.176C634.621 766.381 573.101 766.381 535.657 728.176L497.127 688.863L497.12 688.856L457.807 650.326C419.602 612.882 419.602 551.362 457.807 513.918L497.12 475.388L497.12 475.388L497.127 475.38L535.657 436.068C573.101 397.863 634.621 397.863 672.065 436.068L710.595 475.381Z" stroke="#00C8E6"/>
</g>
<g opacity="0.323232">
<path d="M742.44 439.96L742.447 439.967L816.075 512.13C854.279 549.574 854.279 611.094 816.075 648.538L742.447 720.7L742.44 720.707L670.278 794.335C632.833 832.539 571.314 832.539 533.87 794.335L461.707 720.707L461.7 720.7L388.073 648.538C349.868 611.094 349.868 549.574 388.072 512.13L461.7 439.967L461.707 439.96L533.87 366.333C571.314 328.128 632.833 328.128 670.278 366.333L742.44 439.96Z" stroke="#00C8E6"/>
<path d="M708.807 473.593L708.815 473.6L748.127 512.13C786.332 549.574 786.332 611.094 748.127 648.538L708.815 687.068L708.808 687.075L670.277 726.388C632.833 764.593 571.313 764.593 533.869 726.388L495.339 687.075L495.332 687.068L456.019 648.538C417.814 611.094 417.814 549.574 456.019 512.13L495.332 473.6L495.332 473.6L495.339 473.592L533.869 434.28C571.313 396.075 632.833 396.075 670.277 434.28L708.807 473.593Z" stroke="#00C8E6"/>
</g>
<g opacity="0.333333">
<path d="M740.653 438.172L740.66 438.179L814.287 510.342C852.492 547.786 852.492 609.305 814.287 646.75L740.66 718.912L740.653 718.919L668.49 792.547C631.046 830.751 569.526 830.751 532.082 792.547L459.92 718.919L459.913 718.912L386.285 646.75C348.081 609.305 348.081 547.786 386.285 510.342L459.913 438.179L459.92 438.172L532.082 364.545C569.526 326.34 631.046 326.34 668.49 364.545L740.653 438.172Z" stroke="#00C8E6"/>
<path d="M707.02 471.804L707.027 471.812L746.34 510.342C784.545 547.786 784.545 609.306 746.34 646.75L707.027 685.28L707.02 685.287L668.49 724.6C631.046 762.805 569.526 762.805 532.082 724.6L493.552 685.287L493.544 685.28L454.232 646.75C416.027 609.306 416.027 547.786 454.232 510.342L493.544 471.812L493.544 471.812L493.551 471.804L532.082 432.492C569.526 394.287 631.046 394.287 668.49 432.492L707.02 471.804Z" stroke="#00C8E6"/>
</g>
<g opacity="0.343434">
<path d="M738.865 436.384L738.872 436.391L812.5 508.554C850.704 545.998 850.704 607.517 812.5 644.962L738.872 717.124L738.865 717.131L666.703 790.759C629.258 828.963 567.739 828.963 530.295 790.759L458.132 717.131L458.125 717.124L384.498 644.962C346.293 607.517 346.293 545.998 384.498 508.554L458.125 436.391L458.132 436.384L530.295 362.756C567.739 324.552 629.258 324.552 666.703 362.756L738.865 436.384Z" stroke="#00C8E6"/>
<path d="M705.233 470.016L705.24 470.023L744.553 508.554C782.757 545.998 782.757 607.518 744.552 644.962L705.24 683.492L705.233 683.499L666.702 722.812C629.258 761.017 567.739 761.017 530.294 722.812L491.764 683.499L491.757 683.492L452.444 644.962C414.239 607.517 414.24 545.998 452.444 508.554L491.757 470.023L491.757 470.023L491.764 470.016L530.294 430.703C567.739 392.499 629.258 392.499 666.702 430.704L705.233 470.016Z" stroke="#00C8E6"/>
</g>
<g opacity="0.353535">
<path d="M737.075 434.596L737.082 434.603L810.71 506.766C848.914 544.21 848.915 605.729 810.71 643.174L737.082 715.336L737.075 715.343L664.913 788.971C627.469 827.175 565.949 827.175 528.505 788.971L456.343 715.343L456.335 715.336L382.708 643.174C344.503 605.729 344.503 544.21 382.708 506.766L456.335 434.603L456.342 434.596L528.505 360.969C565.949 322.764 627.469 322.764 664.913 360.968L737.075 434.596Z" stroke="#00C8E6"/>
<path d="M703.443 468.228L703.45 468.235L742.763 506.766C780.967 544.21 780.967 605.73 742.763 643.174L703.45 681.704L703.443 681.711L664.912 721.024C627.468 759.229 565.949 759.229 528.505 721.024L489.974 681.711L489.967 681.704L450.654 643.174C412.45 605.73 412.45 544.21 450.654 506.766L489.967 468.235L489.967 468.236L489.974 468.228L528.505 428.916C565.949 390.711 627.468 390.711 664.912 428.916L703.443 468.228Z" stroke="#00C8E6"/>
</g>
<g opacity="0.363636">
<path d="M735.289 432.808L735.296 432.815L808.924 504.977C847.128 542.421 847.128 603.941 808.924 641.385L735.296 713.548L735.289 713.555L663.126 787.182C625.682 825.387 564.163 825.387 526.719 787.182L454.556 713.555L454.549 713.548L380.921 641.385C342.717 603.941 342.717 542.422 380.921 504.977L454.549 432.815L454.556 432.808L526.718 359.18C564.163 320.976 625.682 320.976 663.126 359.18L735.289 432.808Z" stroke="#00C8E6"/>
<path d="M701.656 466.44L701.664 466.447L740.976 504.978C779.181 542.422 779.181 603.941 740.976 641.385L701.663 679.916L701.656 679.923L663.126 719.236C625.682 757.44 564.162 757.44 526.718 719.236L488.188 679.923L488.181 679.916L448.868 641.385C410.663 603.941 410.663 542.422 448.868 504.978L488.181 466.447L488.181 466.447L488.188 466.44L526.718 427.127C564.162 388.923 625.682 388.923 663.126 427.127L701.656 466.44Z" stroke="#00C8E6"/>
</g>
<g opacity="0.373737">
<path d="M733.501 431.02L733.508 431.027L807.136 503.189C845.34 540.634 845.34 602.153 807.136 639.597L733.508 711.76L733.501 711.767L661.339 785.395C623.894 823.599 562.375 823.599 524.931 785.395L452.768 711.767L452.761 711.76L379.134 639.597C340.929 602.153 340.929 540.634 379.133 503.189L452.761 431.027L452.768 431.02L524.931 357.392C562.375 319.188 623.894 319.188 661.339 357.392L733.501 431.02Z" stroke="#00C8E6"/>
<path d="M699.869 464.652L699.876 464.659L739.189 503.19C777.393 540.634 777.393 602.153 739.188 639.598L699.876 678.128L699.869 678.135L661.338 717.448C623.894 755.653 562.374 755.652 524.93 717.448L486.4 678.135L486.393 678.128L447.08 639.598C408.875 602.153 408.875 540.634 447.08 503.19L486.393 464.659L486.393 464.659L486.4 464.652L524.93 425.339C562.375 387.135 623.894 387.135 661.338 425.34L699.869 464.652Z" stroke="#00C8E6"/>
</g>
<g opacity="0.383838">
<path d="M731.711 429.232L731.718 429.239L805.345 501.401C843.55 538.845 843.55 600.365 805.346 637.809L731.718 709.971L731.711 709.979L659.548 783.606C622.104 821.811 560.585 821.811 523.14 783.606L450.978 709.978L450.971 709.971L377.343 637.809C339.139 600.365 339.139 538.845 377.343 501.401L450.971 429.239L450.978 429.232L523.14 355.604C560.585 317.4 622.104 317.399 659.548 355.604L731.711 429.232Z" stroke="#00C8E6"/>
<path d="M698.078 462.864L698.085 462.871L737.398 501.401C775.603 538.845 775.603 600.365 737.398 637.809L698.085 676.339L698.078 676.347L659.548 715.659C622.104 753.864 560.584 753.864 523.14 715.659L484.61 676.347L484.602 676.34L445.29 637.809C407.085 600.365 407.085 538.845 445.29 501.401L484.602 462.871L484.603 462.871L484.61 462.864L523.14 423.551C560.584 385.346 622.104 385.346 659.548 423.551L698.078 462.864Z" stroke="#00C8E6"/>
</g>
<g opacity="0.393939">
<path d="M729.924 427.444L729.931 427.451L803.558 499.613C841.763 537.057 841.763 598.577 803.558 636.021L729.931 708.183L729.924 708.19L657.761 781.818C620.317 820.023 558.797 820.023 521.353 781.818L449.191 708.19L449.184 708.183L375.556 636.021C337.352 598.577 337.352 537.057 375.556 499.613L449.184 427.451L449.191 427.444L521.353 353.816C558.797 315.611 620.317 315.611 657.761 353.816L729.924 427.444Z" stroke="#00C8E6"/>
<path d="M696.291 461.076L696.298 461.083L735.611 499.613C773.816 537.057 773.816 598.577 735.611 636.021L696.298 674.551L696.291 674.559L657.761 713.871C620.317 752.076 558.797 752.076 521.353 713.871L482.823 674.558L482.815 674.551L443.503 636.021C405.298 598.577 405.298 537.057 443.503 499.613L482.815 461.083L482.815 461.083L482.822 461.076L521.353 421.763C558.797 383.558 620.317 383.558 657.761 421.763L696.291 461.076Z" stroke="#00C8E6"/>
</g>
<g opacity="0.40404">
<path d="M728.136 425.656L728.143 425.663L801.771 497.825C839.975 535.269 839.975 596.789 801.771 634.233L728.143 706.395L728.136 706.402L655.973 780.03C618.529 818.235 557.01 818.235 519.565 780.03L447.403 706.402L447.396 706.395L373.768 634.233C335.564 596.789 335.564 535.269 373.768 497.825L447.396 425.663L447.403 425.655L519.565 352.028C557.01 313.823 618.529 313.823 655.973 352.028L728.136 425.656Z" stroke="#00C8E6"/>
<path d="M694.503 459.288L694.51 459.295L733.823 497.825C772.028 535.269 772.028 596.789 733.823 634.233L694.51 672.763L694.503 672.77L655.973 712.083C618.529 750.288 557.009 750.288 519.565 712.083L481.035 672.77L481.028 672.763L441.715 634.233C403.51 596.789 403.51 535.269 441.715 497.825L481.028 459.295L481.028 459.295L481.035 459.288L519.565 419.975C557.009 381.77 618.529 381.77 655.973 419.975L694.503 459.288Z" stroke="#00C8E6"/>
</g>
<g opacity="0.414141">
<path d="M726.348 423.868L726.355 423.875L799.983 496.037C838.187 533.481 838.187 595.001 799.983 632.445L726.355 704.607L726.348 704.614L654.186 778.242C616.741 816.447 555.222 816.447 517.778 778.242L445.615 704.614L445.608 704.607L371.98 632.445C333.776 595.001 333.776 533.481 371.98 496.037L445.608 423.875L445.615 423.867L517.778 350.24C555.222 312.035 616.741 312.035 654.186 350.24L726.348 423.868Z" stroke="#00C8E6"/>
<path d="M692.715 457.5L692.723 457.507L732.035 496.037C770.24 533.481 770.24 595.001 732.035 632.445L692.723 670.975L692.716 670.983L654.185 710.295C616.741 748.5 555.221 748.5 517.777 710.295L479.247 670.982L479.24 670.975L439.927 632.445C401.722 595.001 401.722 533.481 439.927 496.037L479.24 457.507L479.24 457.507L479.247 457.5L517.777 418.187C555.221 379.982 616.741 379.982 654.185 418.187L692.715 457.5Z" stroke="#00C8E6"/>
</g>
<g opacity="0.424242">
<path d="M724.558 422.079L724.565 422.087L798.193 494.249C836.398 531.693 836.398 593.213 798.193 630.657L724.565 702.819L724.558 702.826L652.396 776.454C614.952 814.659 553.432 814.659 515.988 776.454L443.826 702.826L443.819 702.819L370.191 630.657C331.986 593.213 331.986 531.693 370.191 494.249L443.819 422.087L443.826 422.079L515.988 348.452C553.432 310.247 614.952 310.247 652.396 348.452L724.558 422.079Z" stroke="#00C8E6"/>
<path d="M690.926 455.712L690.933 455.719L730.246 494.249C768.45 531.693 768.45 593.213 730.246 630.657L690.933 669.187L690.926 669.195L652.396 708.507C614.951 746.712 553.432 746.712 515.988 708.507L477.457 669.194L477.45 669.187L438.137 630.657C399.933 593.213 399.933 531.693 438.137 494.249L477.45 455.719L477.45 455.719L477.457 455.712L515.988 416.399C553.432 378.194 614.951 378.194 652.396 416.399L690.926 455.712Z" stroke="#00C8E6"/>
</g>
<g opacity="0.434343">
<path d="M722.771 420.291L722.778 420.298L796.406 492.461C834.61 529.905 834.61 591.425 796.406 628.869L722.778 701.031L722.771 701.038L650.609 774.666C613.164 812.87 551.645 812.87 514.201 774.666L442.038 701.038L442.031 701.031L368.404 628.869C330.199 591.425 330.199 529.905 368.404 492.461L442.031 420.299L442.038 420.291L514.201 346.664C551.645 308.459 613.164 308.459 650.609 346.664L722.771 420.291Z" stroke="#00C8E6"/>
<path d="M689.139 453.924L689.146 453.931L728.459 492.461C766.663 529.905 766.663 591.425 728.458 628.869L689.146 667.399L689.139 667.406L650.608 706.719C613.164 744.924 551.645 744.924 514.2 706.719L475.67 667.406L475.663 667.399L436.35 628.869C398.145 591.425 398.146 529.905 436.35 492.461L475.663 453.931L475.663 453.931L475.67 453.924L514.2 414.611C551.645 376.406 613.164 376.406 650.608 414.611L689.139 453.924Z" stroke="#00C8E6"/>
</g>
<g opacity="0.444444">
<path d="M720.983 418.503L720.991 418.51L794.618 490.673C832.823 528.117 832.823 589.636 794.618 627.081L720.99 699.243L720.983 699.25L648.821 772.878C611.377 811.082 549.857 811.082 512.413 772.878L440.251 699.25L440.244 699.243L366.616 627.081C328.411 589.637 328.411 528.117 366.616 490.673L440.244 418.51L440.251 418.503L512.413 344.876C549.857 306.671 611.377 306.671 648.821 344.876L720.983 418.503Z" stroke="#00C8E6"/>
<path d="M687.351 452.136L687.358 452.143L726.671 490.673C764.875 528.117 764.875 589.637 726.671 627.081L687.358 665.611L687.351 665.618L648.821 704.931C611.376 743.136 549.857 743.136 512.413 704.931L473.882 665.618L473.875 665.611L434.562 627.081C396.358 589.637 396.358 528.117 434.562 490.673L473.875 452.143L473.875 452.143L473.882 452.135L512.413 412.823C549.857 374.618 611.376 374.618 648.821 412.823L687.351 452.136Z" stroke="#00C8E6"/>
</g>
<g opacity="0.454545">
<path d="M719.196 416.715L719.203 416.722L792.83 488.885C831.035 526.329 831.035 587.848 792.83 625.293L719.203 697.455L719.196 697.462L647.033 771.09C609.589 809.294 548.069 809.294 510.625 771.09L438.463 697.462L438.456 697.455L364.828 625.293C326.624 587.848 326.624 526.329 364.828 488.885L438.456 416.722L438.463 416.715L510.625 343.088C548.069 304.883 609.589 304.883 647.033 343.087L719.196 416.715Z" stroke="#00C8E6"/>
<path d="M685.563 450.347L685.57 450.354L724.883 488.885C763.088 526.329 763.088 587.849 724.883 625.293L685.57 663.823L685.563 663.83L647.033 703.143C609.589 741.348 548.069 741.348 510.625 703.143L472.095 663.83L472.087 663.823L432.775 625.293C394.57 587.849 394.57 526.329 432.775 488.885L472.087 450.354L472.087 450.355L472.094 450.347L510.625 411.035C548.069 372.83 609.589 372.83 647.033 411.035L685.563 450.347Z" stroke="#00C8E6"/>
</g>
<g opacity="0.464646">
<path d="M717.406 414.927L717.413 414.934L791.041 487.097C829.246 524.541 829.246 586.06 791.041 623.505L717.413 695.667L717.406 695.674L645.244 769.302C607.8 807.506 546.28 807.506 508.836 769.302L436.674 695.674L436.666 695.667L363.039 623.505C324.834 586.06 324.834 524.541 363.039 487.097L436.667 414.934L436.674 414.927L508.836 341.3C546.28 303.095 607.8 303.095 645.244 341.3L717.406 414.927Z" stroke="#00C8E6"/>
<path d="M683.774 448.559L683.781 448.567L723.094 487.097C761.298 524.541 761.298 586.061 723.094 623.505L683.781 662.035L683.774 662.042L645.243 701.355C607.799 739.56 546.28 739.56 508.836 701.355L470.305 662.042L470.298 662.035L430.985 623.505C392.781 586.061 392.781 524.541 430.985 487.097L470.298 448.567L470.298 448.567L470.305 448.559L508.836 409.247C546.28 371.042 607.799 371.042 645.243 409.247L683.774 448.559Z" stroke="#00C8E6"/>
</g>
<g opacity="0.474747">
<path d="M715.619 413.139L715.626 413.146L789.253 485.309C827.458 522.753 827.458 584.272 789.253 621.717L715.626 693.879L715.619 693.886L643.456 767.514C606.012 805.718 544.493 805.718 507.048 767.514L434.886 693.886L434.879 693.879L361.251 621.717C323.047 584.272 323.047 522.753 361.251 485.309L434.879 413.146L434.886 413.139L507.048 339.511C544.492 301.307 606.012 301.307 643.456 339.511L715.619 413.139Z" stroke="#00C8E6"/>
<path d="M681.986 446.771L681.993 446.778L721.306 485.309C759.511 522.753 759.511 584.273 721.306 621.717L681.993 660.247L681.986 660.254L643.456 699.567C606.012 737.772 544.492 737.772 507.048 699.567L468.518 660.254L468.51 660.247L429.198 621.717C390.993 584.272 390.993 522.753 429.198 485.309L468.51 446.778L468.511 446.778L468.518 446.771L507.048 407.459C544.492 369.254 606.012 369.254 643.456 407.459L681.986 446.771Z" stroke="#00C8E6"/>
</g>
<g opacity="0.484848">
<path d="M713.831 411.351L713.838 411.358L787.466 483.52C825.67 520.965 825.67 582.484 787.466 619.928L713.838 692.091L713.831 692.098L641.668 765.726C604.224 803.93 542.705 803.93 505.261 765.726L433.098 692.098L433.091 692.091L359.463 619.928C321.259 582.484 321.259 520.965 359.463 483.521L433.091 411.358L433.098 411.351L505.26 337.723C542.705 299.519 604.224 299.519 641.668 337.723L713.831 411.351Z" stroke="#00C8E6"/>
<path d="M680.198 444.983L680.206 444.99L719.518 483.521C757.723 520.965 757.723 582.485 719.518 619.929L680.205 658.459L680.198 658.466L641.668 697.779C604.224 735.984 542.704 735.984 505.26 697.779L466.73 658.466L466.723 658.459L427.41 619.929C389.205 582.485 389.205 520.965 427.41 483.521L466.723 444.99L466.723 444.991L466.73 444.983L505.26 405.671C542.704 367.466 604.224 367.466 641.668 405.671L680.198 444.983Z" stroke="#00C8E6"/>
</g>
<g opacity="0.494949">
<path d="M712.042 409.563L712.049 409.57L785.677 481.732C823.881 519.177 823.881 580.696 785.677 618.14L712.049 690.303L712.042 690.31L639.879 763.938C602.435 802.142 540.916 802.142 503.471 763.938L431.309 690.31L431.302 690.303L357.674 618.14C319.47 580.696 319.47 519.177 357.674 481.732L431.302 409.57L431.309 409.563L503.471 335.935C540.916 297.731 602.435 297.731 639.879 335.935L712.042 409.563Z" stroke="#00C8E6"/>
<path d="M678.409 443.195L678.416 443.202L717.729 481.733C755.934 519.177 755.934 580.696 717.729 618.14L678.416 656.671L678.409 656.678L639.879 695.991C602.435 734.195 540.915 734.195 503.471 695.991L464.941 656.678L464.934 656.671L425.621 618.14C387.416 580.696 387.416 519.177 425.621 481.733L464.934 443.202L464.934 443.202L464.941 443.195L503.471 403.882C540.915 365.678 602.435 365.678 639.879 403.882L678.409 443.195Z" stroke="#00C8E6"/>
</g>
<g opacity="0.50505">
<path d="M710.254 407.775L710.261 407.782L783.889 479.944C822.093 517.388 822.093 578.908 783.889 616.352L710.261 688.515L710.254 688.522L638.092 762.149C600.647 800.354 539.128 800.354 501.684 762.149L429.521 688.522L429.514 688.515L355.886 616.352C317.682 578.908 317.682 517.389 355.886 479.944L429.514 407.782L429.521 407.775L501.684 334.147C539.128 295.943 600.647 295.943 638.092 334.147L710.254 407.775Z" stroke="#00C8E6"/>
<path d="M676.621 441.407L676.629 441.414L715.941 479.944C754.146 517.389 754.146 578.908 715.941 616.352L676.629 654.883L676.622 654.89L638.091 694.203C600.647 732.407 539.127 732.407 501.683 694.203L463.153 654.89L463.146 654.883L423.833 616.352C385.628 578.908 385.628 517.389 423.833 479.944L463.146 441.414L463.146 441.414L463.153 441.407L501.683 402.094C539.127 363.89 600.647 363.89 638.091 402.094L676.621 441.407Z" stroke="#00C8E6"/>
</g>
<g opacity="0.515152">
<path d="M708.466 405.987L708.473 405.994L782.101 478.156C820.305 515.601 820.305 577.12 782.101 614.564L708.473 686.727L708.466 686.734L636.304 760.361C598.86 798.566 537.34 798.566 499.896 760.362L427.733 686.734L427.726 686.727L354.099 614.564C315.894 577.12 315.894 515.601 354.099 478.156L427.726 405.994L427.733 405.987L499.896 332.359C537.34 294.155 598.859 294.155 636.304 332.359L708.466 405.987Z" stroke="#00C8E6"/>
<path d="M674.834 439.619L674.841 439.626L714.154 478.157C752.358 515.601 752.358 577.12 714.154 614.564L674.841 653.095L674.834 653.102L636.303 692.415C598.859 730.619 537.34 730.619 499.895 692.415L461.365 653.102L461.358 653.095L422.045 614.564C383.841 577.12 383.841 515.601 422.045 478.156L461.358 439.626L461.358 439.626L461.365 439.619L499.895 400.306C537.34 362.102 598.859 362.102 636.303 400.306L674.834 439.619Z" stroke="#00C8E6"/>
</g>
<g opacity="0.525253">
<path d="M706.676 404.199L706.683 404.206L780.311 476.368C818.515 513.812 818.515 575.332 780.311 612.776L706.683 684.939L706.676 684.946L634.513 758.573C597.069 796.778 535.55 796.778 498.105 758.573L425.943 684.946L425.936 684.939L352.308 612.776C314.104 575.332 314.104 513.812 352.308 476.368L425.936 404.206L425.943 404.199L498.105 330.571C535.55 292.367 597.069 292.367 634.513 330.571L706.676 404.199Z" stroke="#00C8E6"/>
<path d="M673.043 437.831L673.051 437.838L712.363 476.368C750.568 513.813 750.568 575.332 712.363 612.776L673.05 651.307L673.043 651.314L634.513 690.627C597.069 728.831 535.549 728.831 498.105 690.627L459.575 651.314L459.568 651.307L420.255 612.776C382.05 575.332 382.05 513.813 420.255 476.368L459.568 437.838L459.568 437.838L459.575 437.831L498.105 398.518C535.549 360.314 597.069 360.314 634.513 398.518L673.043 437.831Z" stroke="#00C8E6"/>
</g>
<g opacity="0.535354">
<path d="M704.889 402.411L704.897 402.418L778.524 474.58C816.729 512.024 816.729 573.544 778.524 610.988L704.896 683.15L704.889 683.158L632.727 756.785C595.283 794.99 533.763 794.99 496.319 756.785L424.157 683.158L424.15 683.151L350.522 610.988C312.317 573.544 312.317 512.024 350.522 474.58L424.15 402.418L424.157 402.411L496.319 328.783C533.763 290.579 595.283 290.579 632.727 328.783L704.889 402.411Z" stroke="#00C8E6"/>
<path d="M671.257 436.043L671.264 436.05L710.577 474.58C748.781 512.025 748.781 573.544 710.577 610.988L671.264 649.519L671.257 649.526L632.727 688.839C595.282 727.043 533.763 727.043 496.319 688.839L457.788 649.526L457.781 649.519L418.468 610.988C380.264 573.544 380.264 512.025 418.468 474.58L457.781 436.05L457.781 436.05L457.788 436.043L496.319 396.73C533.763 358.526 595.282 358.526 632.727 396.73L671.257 436.043Z" stroke="#00C8E6"/>
</g>
<g opacity="0.545455">
<path d="M703.102 400.623L703.109 400.63L776.737 472.792C814.941 510.236 814.941 571.756 776.737 609.2L703.109 681.362L703.102 681.37L630.939 754.997C593.495 793.202 531.976 793.202 494.532 754.997L422.369 681.369L422.362 681.362L348.734 609.2C310.53 571.756 310.53 510.236 348.734 472.792L422.362 400.63L422.369 400.623L494.531 326.995C531.976 288.79 593.495 288.79 630.939 326.995L703.102 400.623Z" stroke="#00C8E6"/>
<path d="M669.469 434.255L669.477 434.262L708.789 472.792C746.994 510.237 746.994 571.756 708.789 609.2L669.476 647.731L669.469 647.738L630.939 687.051C593.495 725.255 531.975 725.255 494.531 687.051L456.001 647.738L455.994 647.731L416.681 609.2C378.476 571.756 378.476 510.237 416.681 472.792L455.994 434.262L455.994 434.262L456.001 434.255L494.531 394.942C531.975 356.738 593.495 356.738 630.939 394.942L669.469 434.255Z" stroke="#00C8E6"/>
</g>
<g opacity="0.555556">
<path d="M701.312 398.834L701.32 398.841L774.947 471.004C813.152 508.448 813.152 569.968 774.947 607.412L701.32 679.574L701.313 679.581L629.15 753.209C591.706 791.413 530.186 791.413 492.742 753.209L420.58 679.581L420.573 679.574L346.945 607.412C308.741 569.968 308.741 508.448 346.945 471.004L420.573 398.841L420.58 398.834L492.742 325.207C530.186 287.002 591.706 287.002 629.15 325.207L701.312 398.834Z" stroke="#00C8E6"/>
<path d="M667.68 432.467L667.687 432.474L707 471.004C745.204 508.448 745.204 569.968 707 607.412L667.687 645.942L667.68 645.949L629.15 685.262C591.705 723.467 530.186 723.467 492.742 685.262L454.211 645.949L454.204 645.942L414.891 607.412C376.687 569.968 376.687 508.448 414.892 471.004L454.204 432.474L454.204 432.474L454.211 432.467L492.742 393.154C530.186 354.949 591.705 354.949 629.15 393.154L667.68 432.467Z" stroke="#00C8E6"/>
</g>
<g opacity="0.565657">
<path d="M699.528 397.047L699.535 397.054L773.163 469.216C811.367 506.66 811.367 568.18 773.163 605.624L699.535 677.786L699.528 677.794L627.366 751.421C589.921 789.626 528.402 789.626 490.958 751.421L418.795 677.793L418.788 677.786L345.16 605.624C306.956 568.18 306.956 506.66 345.16 469.216L418.788 397.054L418.795 397.047L490.957 323.419C528.402 285.214 589.921 285.214 627.365 323.419L699.528 397.047Z" stroke="#00C8E6"/>
<path d="M665.895 430.679L665.903 430.686L705.215 469.216C743.42 506.661 743.42 568.18 705.215 605.624L665.902 644.155L665.895 644.162L627.365 683.475C589.921 721.679 528.401 721.679 490.957 683.474L452.427 644.162L452.42 644.155L413.107 605.624C374.902 568.18 374.902 506.661 413.107 469.216L452.42 430.686L452.42 430.686L452.427 430.679L490.957 391.366C528.401 353.161 589.921 353.161 627.365 391.366L665.895 430.679Z" stroke="#00C8E6"/>
</g>
<g opacity="0.575758">
<path d="M697.737 395.258L697.744 395.265L771.372 467.428C809.576 504.872 809.576 566.391 771.372 603.836L697.744 675.998L697.737 676.005L625.574 749.633C588.13 787.837 526.611 787.837 489.167 749.633L417.004 676.005L416.997 675.998L343.369 603.836C305.165 566.392 305.165 504.872 343.369 467.428L416.997 395.265L417.004 395.258L489.166 321.631C526.611 283.426 588.13 283.426 625.574 321.631L697.737 395.258Z" stroke="#00C8E6"/>
<path d="M664.104 428.891L664.112 428.898L703.424 467.428C741.629 504.872 741.629 566.392 703.424 603.836L664.111 642.366L664.104 642.373L625.574 681.686C588.13 719.891 526.61 719.891 489.166 681.686L450.636 642.373L450.629 642.366L411.316 603.836C373.111 566.392 373.111 504.872 411.316 467.428L450.629 428.898L450.629 428.898L450.636 428.89L489.166 389.578C526.61 351.373 588.13 351.373 625.574 389.578L664.104 428.891Z" stroke="#00C8E6"/>
</g>
<g opacity="0.585859">
<path d="M695.952 393.47L695.959 393.477L769.586 465.64C807.791 503.084 807.791 564.603 769.586 602.048L695.959 674.21L695.952 674.217L623.789 747.845C586.345 786.049 524.826 786.049 487.381 747.845L415.219 674.217L415.212 674.21L341.584 602.048C303.38 564.603 303.38 503.084 341.584 465.64L415.212 393.477L415.219 393.47L487.381 319.843C524.826 281.638 586.345 281.638 623.789 319.842L695.952 393.47Z" stroke="#00C8E6"/>
<path d="M662.319 427.103L662.326 427.11L701.639 465.64C739.844 503.084 739.844 564.604 701.639 602.048L662.326 640.578L662.319 640.585L623.789 679.898C586.345 718.103 524.825 718.103 487.381 679.898L448.851 640.585L448.843 640.578L409.531 602.048C371.326 564.604 371.326 503.084 409.531 465.64L448.843 427.11L448.844 427.11L448.851 427.102L487.381 387.79C524.825 349.585 586.345 349.585 623.789 387.79L662.319 427.103Z" stroke="#00C8E6"/>
</g>
<g opacity="0.59596">
<path d="M694.163 391.682L694.17 391.689L767.798 463.852C806.003 501.296 806.003 562.815 767.798 600.259L694.17 672.422L694.163 672.429L622.001 746.057C584.557 784.261 523.037 784.261 485.593 746.057L413.431 672.429L413.424 672.422L339.796 600.26C301.591 562.815 301.591 501.296 339.796 463.852L413.424 391.689L413.431 391.682L485.593 318.054C523.037 279.85 584.557 279.85 622.001 318.054L694.163 391.682Z" stroke="#00C8E6"/>
<path d="M660.531 425.314L660.538 425.321L699.851 463.852C738.055 501.296 738.055 562.815 699.851 600.26L660.538 638.79L660.531 638.797L622 678.11C584.556 716.314 523.037 716.314 485.593 678.11L447.062 638.797L447.055 638.79L407.742 600.26C369.538 562.815 369.538 501.296 407.742 463.852L447.055 425.321L447.055 425.321L447.062 425.314L485.593 386.001C523.037 347.797 584.556 347.797 622.001 386.001L660.531 425.314Z" stroke="#00C8E6"/>
</g>
<g opacity="0.606061">
<path d="M692.372 389.894L692.379 389.901L766.007 462.064C804.212 499.508 804.212 561.027 766.007 598.472L692.379 670.634L692.372 670.641L620.21 744.269C582.766 782.473 521.246 782.473 483.802 744.269L411.64 670.641L411.633 670.634L338.005 598.472C299.8 561.028 299.8 499.508 338.005 462.064L411.633 389.901L411.64 389.894L483.802 316.267C521.246 278.062 582.766 278.062 620.21 316.267L692.372 389.894Z" stroke="#00C8E6"/>
<path d="M658.74 423.526L658.747 423.533L698.06 462.064C736.264 499.508 736.264 561.028 698.06 598.472L658.747 637.002L658.74 637.009L620.209 676.322C582.765 714.527 521.246 714.527 483.802 676.322L445.271 637.009L445.264 637.002L405.951 598.472C367.747 561.027 367.747 499.508 405.951 462.064L445.264 423.533L445.264 423.534L445.271 423.526L483.802 384.214C521.246 346.009 582.765 346.009 620.21 384.214L658.74 423.526Z" stroke="#00C8E6"/>
</g>
<g opacity="0.616162">
<path d="M690.585 388.106L690.592 388.113L764.22 460.275C802.424 497.72 802.424 559.239 764.22 596.683L690.592 668.846L690.585 668.853L618.423 742.481C580.978 780.685 519.459 780.685 482.015 742.481L409.852 668.853L409.845 668.846L336.218 596.684C298.013 559.239 298.013 497.72 336.217 460.276L409.845 388.113L409.852 388.106L482.015 314.478C519.459 276.274 580.978 276.274 618.423 314.478L690.585 388.106Z" stroke="#00C8E6"/>
<path d="M656.953 421.738L656.96 421.745L696.272 460.276C734.477 497.72 734.477 559.239 696.272 596.684L656.96 635.214L656.953 635.221L618.422 674.534C580.978 712.738 519.458 712.738 482.014 674.534L443.484 635.221L443.477 635.214L404.164 596.683C365.959 559.239 365.959 497.72 404.164 460.276L443.477 421.745L443.477 421.745L443.484 421.738L482.014 382.425C519.459 344.221 580.978 344.221 618.422 382.425L656.953 421.738Z" stroke="#00C8E6"/>
</g>
<g opacity="0.626263">
<path d="M688.797 386.318L688.804 386.325L762.432 458.487C800.636 495.932 800.636 557.451 762.432 594.895L688.804 667.058L688.797 667.065L616.635 740.693C579.19 778.897 517.671 778.897 480.227 740.693L408.064 667.065L408.057 667.058L334.429 594.895C296.225 557.451 296.225 495.932 334.429 458.487L408.057 386.325L408.064 386.318L480.227 312.69C517.671 274.486 579.19 274.486 616.634 312.69L688.797 386.318Z" stroke="#00C8E6"/>
<path d="M655.164 419.95L655.172 419.957L694.484 458.488C732.689 495.932 732.689 557.451 694.484 594.895L655.172 633.426L655.164 633.433L616.634 672.746C579.19 710.95 517.67 710.95 480.226 672.746L441.696 633.433L441.689 633.426L402.376 594.895C364.171 557.451 364.171 495.932 402.376 458.488L441.689 419.957L441.689 419.957L441.696 419.95L480.226 380.637C517.67 342.433 579.19 342.433 616.634 380.637L655.164 419.95Z" stroke="#00C8E6"/>
</g>
<g opacity="0.636364">
<path d="M687.007 384.53L687.014 384.537L760.642 456.699C798.846 494.143 798.846 555.663 760.642 593.107L687.014 665.27L687.007 665.277L614.845 738.904C577.4 777.109 515.881 777.109 478.437 738.904L406.274 665.277L406.267 665.27L332.639 593.107C294.435 555.663 294.435 494.144 332.639 456.699L406.267 384.537L406.274 384.53L478.436 310.902C515.881 272.698 577.4 272.698 614.844 310.902L687.007 384.53Z" stroke="#00C8E6"/>
<path d="M653.374 418.162L653.382 418.169L692.694 456.7C730.899 494.144 730.899 555.663 692.694 593.107L653.381 631.638L653.374 631.645L614.844 670.958C577.4 709.162 515.88 709.162 478.436 670.958L439.906 631.645L439.899 631.638L400.586 593.107C362.381 555.663 362.381 494.144 400.586 456.7L439.899 418.169L439.899 418.169L439.906 418.162L478.436 378.849C515.88 340.645 577.4 340.645 614.844 378.849L653.374 418.162Z" stroke="#00C8E6"/>
</g>
<g opacity="0.646465">
<path d="M685.222 382.742L685.229 382.749L758.856 454.911C797.061 492.355 797.061 553.875 758.857 591.319L685.229 663.482L685.222 663.489L613.059 737.116C575.615 775.321 514.096 775.321 476.651 737.116L404.489 663.489L404.482 663.482L330.854 591.319C292.65 553.875 292.65 492.355 330.854 454.911L404.482 382.749L404.489 382.742L476.651 309.114C514.096 270.91 575.615 270.91 613.059 309.114L685.222 382.742Z" stroke="#00C8E6"/>
<path d="M651.589 416.374L651.596 416.381L690.909 454.912C729.114 492.356 729.114 553.875 690.909 591.319L651.596 629.85L651.589 629.857L613.059 669.17C575.615 707.374 514.095 707.374 476.651 669.17L438.121 629.857L438.113 629.85L398.801 591.319C360.596 553.875 360.596 492.356 398.801 454.911L438.113 416.381L438.114 416.381L438.121 416.374L476.651 377.061C514.095 338.857 575.615 338.857 613.059 377.061L651.589 416.374Z" stroke="#00C8E6"/>
</g>
<g opacity="0.656566">
<path d="M683.431 380.954L683.439 380.961L757.066 453.123C795.271 490.567 795.271 552.087 757.066 589.531L683.438 661.693L683.431 661.701L611.269 735.328C573.825 773.533 512.305 773.533 474.861 735.328L402.699 661.701L402.692 661.694L329.064 589.531C290.859 552.087 290.859 490.567 329.064 453.123L402.692 380.961L402.699 380.954L474.861 307.326C512.305 269.122 573.825 269.121 611.269 307.326L683.431 380.954Z" stroke="#00C8E6"/>
<path d="M649.799 414.586L649.806 414.593L689.119 453.123C727.323 490.568 727.323 552.087 689.119 589.531L649.806 628.062L649.799 628.069L611.269 667.382C573.824 705.586 512.305 705.586 474.861 667.382L436.33 628.069L436.323 628.062L397.01 589.531C358.806 552.087 358.806 490.568 397.01 453.123L436.323 414.593L436.323 414.593L436.33 414.586L474.861 375.273C512.305 337.069 573.824 337.069 611.269 375.273L649.799 414.586Z" stroke="#00C8E6"/>
</g>
<g opacity="0.666667">
<path d="M681.643 379.166L681.65 379.173L755.278 451.335C793.482 488.779 793.482 550.299 755.278 587.743L681.65 659.905L681.643 659.913L609.481 733.54C572.037 771.745 510.517 771.745 473.073 733.54L400.91 659.912L400.903 659.905L327.276 587.743C289.071 550.299 289.071 488.779 327.276 451.335L400.903 379.173L400.91 379.166L473.073 305.538C510.517 267.333 572.036 267.333 609.481 305.538L681.643 379.166Z" stroke="#00C8E6"/>
<path d="M648.011 412.798L648.018 412.805L687.331 451.335C725.535 488.779 725.535 550.299 687.331 587.743L648.018 626.273L648.011 626.28L609.48 665.593C572.036 703.798 510.517 703.798 473.072 665.593L434.542 626.28L434.535 626.273L395.222 587.743C357.018 550.299 357.018 488.779 395.222 451.335L434.535 412.805L434.535 412.805L434.542 412.798L473.072 373.485C510.517 335.28 572.036 335.28 609.48 373.485L648.011 412.798Z" stroke="#00C8E6"/>
</g>
<g opacity="0.676768">
<path d="M679.858 377.378L679.866 377.385L753.493 449.547C791.698 486.991 791.698 548.511 753.493 585.955L679.865 658.117L679.858 658.125L607.696 731.752C570.252 769.957 508.732 769.957 471.288 731.752L399.126 658.124L399.119 658.117L325.491 585.955C287.286 548.511 287.286 486.991 325.491 449.547L399.119 377.385L399.126 377.378L471.288 303.75C508.732 265.545 570.252 265.545 607.696 303.75L679.858 377.378Z" stroke="#00C8E6"/>
<path d="M646.226 411.01L646.233 411.017L685.546 449.547C723.75 486.991 723.75 548.511 685.546 585.955L646.233 624.485L646.226 624.493L607.696 663.805C570.251 702.01 508.732 702.01 471.288 663.805L432.757 624.492L432.75 624.485L393.437 585.955C355.233 548.511 355.233 486.991 393.437 449.547L432.75 411.017L432.75 411.017L432.757 411.01L471.288 371.697C508.732 333.492 570.251 333.492 607.696 371.697L646.226 411.01Z" stroke="#00C8E6"/>
</g>
<g opacity="0.686869">
<path d="M678.069 375.59L678.076 375.597L751.703 447.759C789.908 485.203 789.908 546.723 751.703 584.167L678.076 656.329L678.069 656.336L605.906 729.964C568.462 768.169 506.943 768.169 469.498 729.964L397.336 656.336L397.329 656.329L323.701 584.167C285.497 546.723 285.497 485.203 323.701 447.759L397.329 375.597L397.336 375.59L469.498 301.962C506.942 263.757 568.462 263.757 605.906 301.962L678.069 375.59Z" stroke="#00C8E6"/>
<path d="M644.436 409.222L644.443 409.229L683.756 447.759C721.961 485.203 721.961 546.723 683.756 584.167L644.443 622.697L644.436 622.705L605.906 662.017C568.462 700.222 506.942 700.222 469.498 662.017L430.968 622.704L430.96 622.697L391.648 584.167C353.443 546.723 353.443 485.203 391.648 447.759L430.96 409.229L430.96 409.229L430.968 409.222L469.498 369.909C506.942 331.704 568.462 331.704 605.906 369.909L644.436 409.222Z" stroke="#00C8E6"/>
</g>
<g opacity="0.69697">
<path d="M676.279 373.802L676.286 373.809L749.914 445.971C788.118 483.415 788.118 544.935 749.914 582.379L676.286 654.541L676.279 654.548L604.117 728.176C566.673 766.381 505.153 766.381 467.709 728.176L395.546 654.548L395.539 654.541L321.912 582.379C283.707 544.935 283.707 483.415 321.912 445.971L395.539 373.809L395.546 373.801L467.709 300.174C505.153 261.969 566.672 261.969 604.117 300.174L676.279 373.802Z" stroke="#00C8E6"/>
<path d="M642.647 407.433L642.654 407.44L681.967 445.971C720.171 483.415 720.171 544.934 681.967 582.379L642.654 620.909L642.647 620.916L604.116 660.229C566.672 698.434 505.153 698.434 467.708 660.229L429.178 620.916L429.171 620.909L389.858 582.379C351.654 544.934 351.654 483.415 389.858 445.971L429.171 407.44L429.171 407.44L429.178 407.433L467.708 368.12C505.153 329.916 566.672 329.916 604.116 368.121L642.647 407.433Z" stroke="#00C8E6"/>
</g>
<g opacity="0.707071">
<path d="M674.493 372.013L674.5 372.02L748.128 444.183C786.332 481.627 786.332 543.147 748.128 580.591L674.5 652.753L674.493 652.76L602.331 726.388C564.886 764.592 503.367 764.593 465.923 726.388L393.76 652.76L393.753 652.753L320.125 580.591C281.921 543.147 281.921 481.627 320.125 444.183L393.753 372.021L393.76 372.013L465.923 298.386C503.367 260.181 564.886 260.181 602.331 298.386L674.493 372.013Z" stroke="#00C8E6"/>
<path d="M640.86 405.645L640.868 405.652L680.18 444.183C718.385 481.627 718.385 543.146 680.18 580.591L640.868 619.121L640.861 619.128L602.33 658.441C564.886 696.645 503.366 696.645 465.922 658.441L427.392 619.128L427.385 619.121L388.072 580.591C349.867 543.146 349.867 481.627 388.072 444.183L427.385 405.652L427.385 405.652L427.392 405.645L465.922 366.332C503.366 328.128 564.886 328.128 602.33 366.332L640.86 405.645Z" stroke="#00C8E6"/>
</g>
<g opacity="0.717172">
<path d="M672.705 370.225L672.712 370.232L746.339 442.395C784.544 479.839 784.544 541.359 746.339 578.803L672.712 650.965L672.705 650.972L600.542 724.6C563.098 762.804 501.578 762.804 464.134 724.6L391.972 650.972L391.965 650.965L318.337 578.803C280.133 541.359 280.133 479.839 318.337 442.395L391.965 370.232L391.972 370.225L464.134 296.598C501.578 258.393 563.098 258.393 600.542 296.598L672.705 370.225Z" stroke="#00C8E6"/>
<path d="M639.072 403.857L639.079 403.864L678.392 442.395C716.597 479.839 716.597 541.358 678.392 578.803L639.079 617.333L639.072 617.34L600.542 656.653C563.098 694.857 501.578 694.857 464.134 656.653L425.604 617.34L425.596 617.333L386.284 578.802C348.079 541.358 348.079 479.839 386.284 442.395L425.596 403.864L425.596 403.864L425.603 403.857L464.134 364.544C501.578 326.34 563.098 326.34 600.542 364.544L639.072 403.857Z" stroke="#00C8E6"/>
</g>
<g opacity="0.727273">
<path d="M670.915 368.437L670.922 368.444L744.55 440.607C782.754 478.051 782.754 539.57 744.55 577.014L670.922 649.177L670.915 649.184L598.753 722.812C561.309 761.016 499.789 761.016 462.345 722.812L390.182 649.184L390.175 649.177L316.548 577.015C278.343 539.57 278.343 478.051 316.548 440.607L390.175 368.444L390.182 368.437L462.345 294.809C499.789 256.605 561.308 256.605 598.753 294.809L670.915 368.437Z" stroke="#00C8E6"/>
<path d="M637.283 402.069L637.29 402.076L676.603 440.606C714.807 478.051 714.807 539.57 676.603 577.014L637.29 615.545L637.283 615.552L598.752 654.865C561.308 693.069 499.789 693.069 462.344 654.865L423.814 615.552L423.807 615.545L384.494 577.014C346.29 539.57 346.29 478.051 384.494 440.606L423.807 402.076L423.807 402.076L423.814 402.069L462.344 362.756C499.789 324.552 561.308 324.552 598.752 362.756L637.283 402.069Z" stroke="#00C8E6"/>
</g>
<g opacity="0.737374">
<path d="M669.129 366.649L669.136 366.656L742.764 438.819C780.968 476.263 780.969 537.782 742.764 575.227L669.136 647.389L669.129 647.396L596.967 721.024C559.523 759.228 498.003 759.228 460.559 721.024L388.397 647.396L388.389 647.389L314.762 575.227C276.557 537.783 276.557 476.263 314.762 438.819L388.389 366.656L388.396 366.649L460.559 293.022C498.003 254.817 559.523 254.817 596.967 293.022L669.129 366.649Z" stroke="#00C8E6"/>
<path d="M635.497 400.281L635.504 400.288L674.817 438.819C713.021 476.263 713.021 537.782 674.817 575.227L635.504 613.757L635.497 613.764L596.966 653.077C559.522 691.281 498.003 691.281 460.558 653.077L422.028 613.764L422.021 613.757L382.708 575.227C344.504 537.782 344.504 476.263 382.708 438.819L422.021 400.288L422.021 400.288L422.028 400.281L460.559 360.968C498.003 322.764 559.522 322.764 596.966 360.968L635.497 400.281Z" stroke="#00C8E6"/>
</g>
<g opacity="0.747475">
<path d="M667.341 364.861L667.348 364.868L740.975 437.031C779.18 474.475 779.18 535.994 740.975 573.439L667.348 645.601L667.341 645.608L595.178 719.236C557.734 757.44 496.214 757.44 458.77 719.236L386.608 645.608L386.601 645.601L312.973 573.439C274.769 535.994 274.769 474.475 312.973 437.031L386.601 364.868L386.608 364.861L458.77 291.234C496.214 253.029 557.734 253.029 595.178 291.233L667.341 364.861Z" stroke="#00C8E6"/>
<path d="M633.708 398.493L633.715 398.5L673.028 437.031C711.233 474.475 711.233 535.994 673.028 573.439L633.715 611.969L633.708 611.976L595.178 651.289C557.734 689.493 496.214 689.493 458.77 651.289L420.24 611.976L420.232 611.969L380.92 573.438C342.715 535.994 342.715 474.475 380.92 437.031L420.232 398.5L420.232 398.5L420.239 398.493L458.77 359.18C496.214 320.976 557.734 320.976 595.178 359.18L633.708 398.493Z" stroke="#00C8E6"/>
</g>
<g opacity="0.757576">
<path d="M665.552 363.073L665.559 363.08L739.187 435.242C777.392 472.686 777.392 534.206 739.187 571.65L665.559 643.813L665.552 643.82L593.39 717.447C555.946 755.652 494.426 755.652 456.982 717.447L384.82 643.82L384.812 643.813L311.185 571.65C272.98 534.206 272.98 472.687 311.185 435.242L384.813 363.08L384.82 363.073L456.982 289.445C494.426 251.241 555.946 251.241 593.39 289.445L665.552 363.073Z" stroke="#00C8E6"/>
<path d="M631.92 396.705L631.927 396.712L671.24 435.242C709.444 472.687 709.444 534.206 671.24 571.65L631.927 610.181L631.92 610.188L593.389 649.501C555.945 687.705 494.426 687.705 456.982 649.5L418.451 610.188L418.444 610.181L379.131 571.65C340.927 534.206 340.927 472.687 379.131 435.242L418.444 396.712L418.444 396.712L418.451 396.705L456.982 357.392C494.426 319.187 555.945 319.188 593.389 357.392L631.92 396.705Z" stroke="#00C8E6"/>
</g>
<g opacity="0.767677">
<path d="M663.765 361.285L663.772 361.292L737.399 433.454C775.604 470.898 775.604 532.418 737.399 569.862L663.772 642.025L663.765 642.032L591.602 715.659C554.158 753.864 492.639 753.864 455.194 715.659L383.032 642.032L383.025 642.025L309.397 569.862C271.193 532.418 271.193 470.898 309.397 433.454L383.025 361.292L383.032 361.285L455.194 287.657C492.638 249.453 554.158 249.453 591.602 287.657L663.765 361.285Z" stroke="#00C8E6"/>
<path d="M630.132 394.917L630.139 394.924L669.452 433.454C707.657 470.898 707.657 532.418 669.452 569.862L630.139 608.392L630.132 608.4L591.602 647.712C554.158 685.917 492.638 685.917 455.194 647.712L416.664 608.4L416.656 608.393L377.344 569.862C339.139 532.418 339.139 470.898 377.344 433.454L416.656 394.924L416.657 394.924L416.664 394.917L455.194 355.604C492.638 317.399 554.158 317.399 591.602 355.604L630.132 394.917Z" stroke="#00C8E6"/>
</g>
<g opacity="0.777778">
<path d="M661.975 359.497L661.982 359.504L735.61 431.666C773.815 469.111 773.815 530.63 735.61 568.074L661.982 640.237L661.975 640.244L589.813 713.872C552.369 752.076 490.849 752.076 453.405 713.872L381.243 640.244L381.236 640.237L307.608 568.074C269.403 530.63 269.403 469.111 307.608 431.667L381.236 359.504L381.243 359.497L453.405 285.869C490.849 247.665 552.369 247.665 589.813 285.869L661.975 359.497Z" stroke="#00C8E6"/>
<path d="M628.343 393.129L628.35 393.136L667.663 431.667C705.867 469.111 705.867 530.63 667.663 568.074L628.35 606.605L628.343 606.612L589.812 645.925C552.368 684.129 490.849 684.129 453.405 645.925L414.874 606.612L414.867 606.605L375.554 568.074C337.35 530.63 337.35 469.111 375.554 431.667L414.867 393.136L414.867 393.136L414.874 393.129L453.405 353.816C490.849 315.612 552.368 315.612 589.813 353.816L628.343 393.129Z" stroke="#00C8E6"/>
</g>
<g opacity="0.787879">
<path d="M660.187 357.709L660.195 357.716L733.822 429.878C772.027 467.322 772.027 528.842 733.822 566.286L660.195 638.448L660.188 638.456L588.025 712.083C550.581 750.288 489.061 750.288 451.617 712.083L379.455 638.456L379.448 638.449L305.82 566.286C267.616 528.842 267.616 467.322 305.82 429.878L379.448 357.716L379.455 357.709L451.617 284.081C489.061 245.877 550.581 245.876 588.025 284.081L660.187 357.709Z" stroke="#00C8E6"/>
<path d="M626.555 391.341L626.562 391.348L665.875 429.878C704.079 467.323 704.079 528.842 665.875 566.286L626.562 604.817L626.555 604.824L588.025 644.137C550.58 682.341 489.061 682.341 451.617 644.136L413.086 604.824L413.079 604.817L373.766 566.286C335.562 528.842 335.562 467.322 373.767 429.878L413.079 391.348L413.079 391.348L413.086 391.341L451.617 352.028C489.061 313.823 550.58 313.823 588.025 352.028L626.555 391.341Z" stroke="#00C8E6"/>
</g>
<g opacity="0.79798">
<path d="M658.4 355.921L658.408 355.928L732.035 428.09C770.24 465.534 770.24 527.054 732.035 564.498L658.407 636.661L658.4 636.668L586.238 710.295C548.794 748.5 487.274 748.5 449.83 710.295L377.668 636.668L377.661 636.661L304.033 564.498C265.828 527.054 265.828 465.535 304.033 428.09L377.661 355.928L377.668 355.921L449.83 282.293C487.274 244.089 548.794 244.089 586.238 282.293L658.4 355.921Z" stroke="#00C8E6"/>
<path d="M624.768 389.553L624.775 389.56L664.088 428.09C702.292 465.535 702.292 527.054 664.088 564.498L624.775 603.029L624.768 603.036L586.238 642.349C548.793 680.553 487.274 680.553 449.83 642.349L411.299 603.036L411.292 603.029L371.979 564.498C333.775 527.054 333.775 465.535 371.979 428.09L411.292 389.56L411.292 389.56L411.299 389.553L449.83 350.24C487.274 312.036 548.793 312.036 586.238 350.24L624.768 389.553Z" stroke="#00C8E6"/>
</g>
<g opacity="0.808081">
<path d="M656.613 354.133L656.62 354.14L730.248 426.302C768.452 463.746 768.452 525.266 730.248 562.71L656.62 634.872L656.613 634.879L584.45 708.507C547.006 746.712 485.487 746.712 448.043 708.507L375.88 634.879L375.873 634.872L302.245 562.71C264.041 525.266 264.041 463.746 302.245 426.302L375.873 354.14L375.88 354.133L448.042 280.505C485.487 242.3 547.006 242.3 584.45 280.505L656.613 354.133Z" stroke="#00C8E6"/>
<path d="M622.98 387.764L622.988 387.771L662.3 426.302C700.505 463.746 700.505 525.266 662.3 562.71L622.987 601.24L622.98 601.247L584.45 640.56C547.006 678.765 485.486 678.765 448.042 640.56L409.512 601.247L409.505 601.24L370.192 562.71C331.987 525.266 331.987 463.746 370.192 426.302L409.505 387.771L409.505 387.772L409.512 387.764L448.042 348.452C485.486 310.247 547.006 310.247 584.45 348.452L622.98 387.764Z" stroke="#00C8E6"/>
</g>
<g opacity="0.818182">
<path d="M654.823 352.345L654.83 352.352L728.458 424.514C766.662 461.958 766.662 523.478 728.458 560.922L654.83 633.084L654.823 633.092L582.661 706.719C545.216 744.924 483.697 744.924 446.253 706.719L374.09 633.092L374.083 633.085L300.456 560.922C262.251 523.478 262.251 461.958 300.456 424.514L374.083 352.352L374.09 352.345L446.253 278.717C483.697 240.513 545.216 240.512 582.661 278.717L654.823 352.345Z" stroke="#00C8E6"/>
<path d="M621.191 385.977L621.198 385.984L660.511 424.514C698.715 461.958 698.715 523.478 660.51 560.922L621.198 599.452L621.191 599.459L582.66 638.772C545.216 676.977 483.697 676.977 446.252 638.772L407.722 599.459L407.715 599.452L368.402 560.922C330.197 523.478 330.198 461.958 368.402 424.514L407.715 385.984L407.715 385.984L407.722 385.977L446.252 346.664C483.697 308.459 545.216 308.459 582.66 346.664L621.191 385.977Z" stroke="#00C8E6"/>
</g>
<g opacity="0.828283">
<path d="M653.035 350.557L653.042 350.564L726.67 422.726C764.874 460.17 764.875 521.69 726.67 559.134L653.042 631.296L653.035 631.303L580.873 704.931C543.429 743.136 481.909 743.136 444.465 704.931L372.303 631.303L372.295 631.296L298.668 559.134C260.463 521.69 260.463 460.17 298.668 422.726L372.295 350.564L372.302 350.556L444.465 276.929C481.909 238.724 543.429 238.724 580.873 276.929L653.035 350.557Z" stroke="#00C8E6"/>
<path d="M619.403 384.188L619.41 384.195L658.723 422.726C696.927 460.17 696.927 521.689 658.723 559.134L619.41 597.664L619.403 597.671L580.872 636.984C543.428 675.189 481.909 675.189 444.464 636.984L405.934 597.671L405.927 597.664L366.614 559.134C328.41 521.689 328.41 460.17 366.614 422.726L405.927 384.195L405.927 384.195L405.934 384.188L444.465 344.875C481.909 306.671 543.428 306.671 580.872 344.876L619.403 384.188Z" stroke="#00C8E6"/>
</g>
<g opacity="0.838384">
<path d="M651.247 348.768L651.254 348.775L724.882 420.938C763.086 458.382 763.086 519.902 724.882 557.346L651.254 629.508L651.247 629.515L579.085 703.143C541.64 741.347 480.121 741.348 442.677 703.143L370.514 629.515L370.507 629.508L296.879 557.346C258.675 519.902 258.675 458.382 296.879 420.938L370.507 348.776L370.514 348.768L442.676 275.141C480.121 236.936 541.64 236.936 579.084 275.141L651.247 348.768Z" stroke="#00C8E6"/>
<path d="M617.614 382.4L617.622 382.407L656.934 420.938C695.139 458.382 695.139 519.901 656.934 557.346L617.621 595.876L617.614 595.883L579.084 635.196C541.64 673.4 480.12 673.4 442.676 635.196L404.146 595.883L404.139 595.876L364.826 557.346C326.621 519.901 326.621 458.382 364.826 420.938L404.139 382.407L404.139 382.407L404.146 382.4L442.676 343.087C480.12 304.883 541.64 304.883 579.084 343.087L617.614 382.4Z" stroke="#00C8E6"/>
</g>
<g opacity="0.848485">
<path d="M649.457 346.98L649.465 346.987L723.092 419.15C761.297 456.594 761.297 518.114 723.092 555.558L649.465 627.72L649.458 627.727L577.295 701.355C539.851 739.559 478.331 739.559 440.887 701.355L368.725 627.727L368.718 627.72L295.09 555.558C256.886 518.114 256.886 456.594 295.09 419.15L368.718 346.987L368.725 346.98L440.887 273.353C478.331 235.148 539.851 235.148 577.295 273.353L649.457 346.98Z" stroke="#00C8E6"/>
<path d="M615.825 380.612L615.832 380.619L655.145 419.15C693.35 456.594 693.35 518.113 655.145 555.558L615.832 594.088L615.825 594.095L577.295 633.408C539.85 671.612 478.331 671.612 440.887 633.408L402.356 594.095L402.349 594.088L363.037 555.558C324.832 518.113 324.832 456.594 363.037 419.15L402.349 380.619L402.349 380.619L402.356 380.612L440.887 341.299C478.331 303.095 539.851 303.095 577.295 341.299L615.825 380.612Z" stroke="#00C8E6"/>
</g>
<g opacity="0.858586">
<path d="M647.67 345.192L647.677 345.199L721.304 417.362C759.509 454.806 759.509 516.325 721.305 553.77L647.677 625.932L647.67 625.939L575.507 699.567C538.063 737.771 476.544 737.771 439.099 699.567L366.937 625.939L366.93 625.932L293.302 553.77C255.098 516.326 255.098 454.806 293.302 417.362L366.93 345.199L366.937 345.192L439.099 271.565C476.544 233.36 538.063 233.36 575.507 271.565L647.67 345.192Z" stroke="#00C8E6"/>
<path d="M614.037 378.824L614.044 378.831L653.357 417.362C691.562 454.806 691.562 516.325 653.357 553.77L614.044 592.3L614.037 592.307L575.507 631.62C538.063 669.824 476.543 669.824 439.099 631.62L400.569 592.307L400.561 592.3L361.249 553.77C323.044 516.325 323.044 454.806 361.249 417.362L400.561 378.831L400.562 378.831L400.569 378.824L439.099 339.511C476.543 301.307 538.063 301.307 575.507 339.511L614.037 378.824Z" stroke="#00C8E6"/>
</g>
<g opacity="0.868687">
<path d="M645.882 343.404L645.889 343.411L719.517 415.574C757.721 453.018 757.721 514.537 719.517 551.982L645.889 624.144L645.882 624.151L573.72 697.779C536.276 735.983 474.756 735.983 437.312 697.779L365.149 624.151L365.142 624.144L291.515 551.982C253.31 514.537 253.31 453.018 291.515 415.574L365.142 343.411L365.149 343.404L437.312 269.776C474.756 231.572 536.276 231.572 573.72 269.776L645.882 343.404Z" stroke="#00C8E6"/>
<path d="M612.25 377.036L612.257 377.043L651.57 415.574C689.774 453.018 689.774 514.537 651.57 551.981L612.257 590.512L612.25 590.519L573.719 629.832C536.275 668.036 474.756 668.036 437.311 629.832L398.781 590.519L398.774 590.512L359.461 551.981C321.257 514.537 321.257 453.018 359.461 415.574L398.774 377.043L398.774 377.043L398.781 377.036L437.311 337.723C474.756 299.519 536.275 299.519 573.719 337.723L612.25 377.036Z" stroke="#00C8E6"/>
</g>
<g opacity="0.878788">
<path d="M644.093 341.616L644.101 341.623L717.728 413.786C755.933 451.23 755.933 512.749 717.728 550.194L644.101 622.356L644.094 622.363L571.931 695.991C534.487 734.195 472.967 734.195 435.523 695.991L363.361 622.363L363.354 622.356L289.726 550.194C251.522 512.749 251.522 451.23 289.726 413.786L363.354 341.623L363.361 341.616L435.523 267.989C472.967 229.784 534.487 229.784 571.931 267.988L644.093 341.616Z" stroke="#00C8E6"/>
<path d="M610.461 375.248L610.468 375.255L649.781 413.786C687.986 451.23 687.986 512.749 649.781 550.194L610.468 588.724L610.461 588.731L571.931 628.044C534.486 666.248 472.967 666.248 435.523 628.044L396.992 588.731L396.985 588.724L357.672 550.193C319.468 512.749 319.468 451.23 357.673 413.786L396.985 375.255L396.985 375.255L396.992 375.248L435.523 335.935C472.967 297.731 534.486 297.731 571.931 335.935L610.461 375.248Z" stroke="#00C8E6"/>
</g>
<g opacity="0.888889">
<path d="M642.306 339.828L642.313 339.835L715.941 411.998C754.145 449.442 754.145 510.961 715.941 548.405L642.313 620.568L642.306 620.575L570.144 694.203C532.699 732.407 471.18 732.407 433.736 694.203L361.573 620.575L361.566 620.568L287.938 548.406C249.734 510.961 249.734 449.442 287.938 411.998L361.566 339.835L361.573 339.828L433.736 266.2C471.18 227.996 532.699 227.996 570.144 266.2L642.306 339.828Z" stroke="#00C8E6"/>
<path d="M608.673 373.46L608.681 373.467L647.993 411.998C686.198 449.442 686.198 510.961 647.993 548.405L608.681 586.936L608.674 586.943L570.143 626.256C532.699 664.46 471.179 664.46 433.735 626.256L395.205 586.943L395.198 586.936L355.885 548.405C317.68 510.961 317.68 449.442 355.885 411.998L395.198 373.467L395.198 373.467L395.205 373.46L433.735 334.147C471.179 295.943 532.699 295.943 570.143 334.147L608.673 373.46Z" stroke="#00C8E6"/>
</g>
<g opacity="0.89899">
<path d="M640.519 338.04L640.526 338.047L714.153 410.209C752.358 447.654 752.358 509.173 714.153 546.617L640.526 618.78L640.519 618.787L568.356 692.415C530.912 730.619 469.392 730.619 431.948 692.415L359.786 618.787L359.779 618.78L286.151 546.617C247.947 509.173 247.947 447.654 286.151 410.21L359.779 338.047L359.786 338.04L431.948 264.412C469.392 226.208 530.912 226.208 568.356 264.412L640.519 338.04Z" stroke="#00C8E6"/>
<path d="M606.886 371.672L606.893 371.679L646.206 410.21C684.411 447.654 684.411 509.173 646.206 546.617L606.893 585.148L606.886 585.155L568.356 624.468C530.912 662.672 469.392 662.672 431.948 624.468L393.418 585.155L393.41 585.148L354.098 546.617C315.893 509.173 315.893 447.654 354.098 410.21L393.41 371.679L393.41 371.679L393.417 371.672L431.948 332.359C469.392 294.155 530.912 294.155 568.356 332.359L606.886 371.672Z" stroke="#00C8E6"/>
</g>
<g opacity="0.909091">
<path d="M638.731 336.252L638.739 336.259L712.366 408.421C750.571 445.866 750.571 507.385 712.366 544.829L638.738 616.992L638.731 616.999L566.569 690.626C529.125 728.831 467.605 728.831 430.161 690.627L357.999 616.999L357.992 616.992L284.364 544.829C246.16 507.385 246.159 445.866 284.364 408.421L357.992 336.259L357.999 336.252L430.161 262.624C467.605 224.42 529.125 224.42 566.569 262.624L638.731 336.252Z" stroke="#00C8E6"/>
<path d="M605.099 369.884L605.106 369.891L644.419 408.421C682.623 445.865 682.623 507.385 644.419 544.829L605.106 583.359L605.099 583.367L566.569 622.679C529.124 660.884 467.605 660.884 430.161 622.679L391.63 583.367L391.623 583.36L352.31 544.829C314.106 507.385 314.106 445.865 352.31 408.421L391.623 369.891L391.623 369.891L391.63 369.884L430.161 330.571C467.605 292.366 529.124 292.366 566.569 330.571L605.099 369.884Z" stroke="#00C8E6"/>
</g>
<g opacity="0.919192">
<path d="M636.942 334.464L636.95 334.471L710.577 406.633C748.782 444.077 748.782 505.597 710.577 543.041L636.949 615.204L636.942 615.211L564.78 688.838C527.336 727.043 465.816 727.043 428.372 688.838L356.21 615.211L356.203 615.204L282.575 543.041C244.37 505.597 244.37 444.078 282.575 406.633L356.203 334.471L356.21 334.464L428.372 260.836C465.816 222.632 527.336 222.632 564.78 260.836L636.942 334.464Z" stroke="#00C8E6"/>
<path d="M603.31 368.096L603.317 368.103L642.63 406.633C680.834 444.077 680.834 505.597 642.63 543.041L603.317 581.571L603.31 581.579L564.78 620.891C527.335 659.096 465.816 659.096 428.372 620.891L389.841 581.578L389.834 581.571L350.521 543.041C312.317 505.597 312.317 444.077 350.521 406.633L389.834 368.103L389.834 368.103L389.841 368.096L428.372 328.783C465.816 290.578 527.335 290.578 564.78 328.783L603.31 368.096Z" stroke="#00C8E6"/>
</g>
<g opacity="0.929293">
<path d="M635.155 332.676L635.162 332.683L708.79 404.845C746.994 442.289 746.994 503.809 708.79 541.253L635.162 613.415L635.155 613.423L562.992 687.05C525.548 725.255 464.029 725.255 426.585 687.05L354.422 613.422L354.415 613.415L280.787 541.253C242.583 503.809 242.583 442.289 280.787 404.845L354.415 332.683L354.422 332.676L426.584 259.048C464.029 220.843 525.548 220.843 562.992 259.048L635.155 332.676Z" stroke="#00C8E6"/>
<path d="M601.522 366.308L601.53 366.315L640.842 404.845C679.047 442.289 679.047 503.809 640.842 541.253L601.529 579.783L601.522 579.79L562.992 619.103C525.548 657.308 464.028 657.308 426.584 619.103L388.054 579.79L388.047 579.783L348.734 541.253C310.529 503.809 310.529 442.289 348.734 404.845L388.047 366.315L388.047 366.315L388.054 366.307L426.584 326.995C464.028 288.79 525.548 288.79 562.992 326.995L601.522 366.308Z" stroke="#00C8E6"/>
</g>
<g opacity="0.939394">
<path d="M633.367 330.888L633.374 330.895L707.002 403.057C745.206 440.501 745.206 502.021 707.002 539.465L633.374 611.627L633.367 611.634L561.205 685.262C523.76 723.467 462.241 723.467 424.797 685.262L352.634 611.634L352.627 611.627L279 539.465C240.795 502.021 240.795 440.501 278.999 403.057L352.627 330.895L352.634 330.888L424.797 257.26C462.241 219.055 523.76 219.055 561.205 257.26L633.367 330.888Z" stroke="#00C8E6"/>
<path d="M599.734 364.519L599.742 364.526L639.054 403.057C677.259 440.501 677.259 502.021 639.054 539.465L599.742 577.995L599.735 578.002L561.204 617.315C523.76 655.52 462.24 655.52 424.796 617.315L386.266 578.002L386.259 577.995L346.946 539.465C308.741 502.021 308.741 440.501 346.946 403.057L386.259 364.526L386.259 364.527L386.266 364.519L424.796 325.207C462.24 287.002 523.76 287.002 561.204 325.207L599.734 364.519Z" stroke="#00C8E6"/>
</g>
<g opacity="0.949495">
<path d="M631.579 329.1L631.586 329.107L705.214 401.269C743.418 438.713 743.418 500.233 705.214 537.677L631.586 609.839L631.579 609.847L559.417 683.474C521.973 721.679 460.453 721.679 423.009 683.474L350.846 609.847L350.839 609.84L277.212 537.677C239.007 500.233 239.007 438.713 277.212 401.269L350.839 329.107L350.846 329.1L423.009 255.472C460.453 217.268 521.973 217.267 559.417 255.472L631.579 329.1Z" stroke="#00C8E6"/>
<path d="M597.947 362.732L597.954 362.739L637.267 401.269C675.471 438.713 675.471 500.233 637.267 537.677L597.954 576.207L597.947 576.215L559.416 615.527C521.972 653.732 460.453 653.732 423.008 615.527L384.478 576.214L384.471 576.207L345.158 537.677C306.954 500.233 306.954 438.713 345.158 401.269L384.471 362.739L384.471 362.739L384.478 362.732L423.008 323.419C460.453 285.214 521.972 285.214 559.416 323.419L597.947 362.732Z" stroke="#00C8E6"/>
</g>
<g opacity="0.959596">
<path d="M629.791 327.311L629.798 327.318L703.426 399.481C741.63 436.925 741.63 498.445 703.426 535.889L629.798 608.051L629.791 608.058L557.628 681.686C520.184 719.89 458.665 719.891 421.22 681.686L349.058 608.058L349.051 608.051L275.423 535.889C237.219 498.445 237.219 436.925 275.423 399.481L349.051 327.319L349.058 327.311L421.22 253.684C458.665 215.479 520.184 215.479 557.628 253.684L629.791 327.311Z" stroke="#00C8E6"/>
<path d="M596.158 360.943L596.165 360.95L635.478 399.481C673.683 436.925 673.683 498.445 635.478 535.889L596.165 574.419L596.158 574.426L557.628 613.739C520.184 651.944 458.664 651.944 421.22 613.739L382.69 574.426L382.683 574.419L343.37 535.889C305.165 498.444 305.165 436.925 343.37 399.481L382.683 360.95L382.683 360.95L382.69 360.943L421.22 321.631C458.664 283.426 520.184 283.426 557.628 321.631L596.158 360.943Z" stroke="#00C8E6"/>
</g>
<g opacity="0.969697">
<path d="M628.003 325.524L628.01 325.531L701.638 397.693C739.842 435.137 739.842 496.657 701.638 534.101L628.01 606.263L628.003 606.27L555.841 679.898C518.396 718.103 456.877 718.103 419.433 679.898L347.27 606.27L347.263 606.263L273.636 534.101C235.431 496.657 235.431 435.137 273.635 397.693L347.263 325.531L347.27 325.523L419.433 251.896C456.877 213.691 518.396 213.691 555.841 251.896L628.003 325.524Z" stroke="#00C8E6"/>
<path d="M594.37 359.156L594.378 359.163L633.69 397.693C671.895 435.137 671.895 496.657 633.69 534.101L594.378 572.631L594.371 572.638L555.84 611.951C518.396 650.156 456.876 650.156 419.432 611.951L380.902 572.638L380.895 572.631L341.582 534.101C303.377 496.657 303.377 435.137 341.582 397.693L380.895 359.163L380.895 359.163L380.902 359.155L419.432 319.843C456.876 281.638 518.396 281.638 555.84 319.843L594.37 359.156Z" stroke="#00C8E6"/>
</g>
<g opacity="0.979798">
<path d="M626.215 323.735L626.222 323.743L699.85 395.905C738.054 433.349 738.054 494.869 699.85 532.313L626.222 604.475L626.215 604.482L554.053 678.11C516.609 716.315 455.089 716.315 417.645 678.11L345.482 604.482L345.475 604.475L271.848 532.313C233.643 494.869 233.643 433.349 271.848 395.905L345.475 323.743L345.482 323.735L417.645 250.108C455.089 211.903 516.609 211.903 554.053 250.108L626.215 323.735Z" stroke="#00C8E6"/>
<path d="M592.583 357.367L592.59 357.374L631.903 395.905C670.107 433.349 670.107 494.869 631.903 532.313L592.59 570.843L592.583 570.85L554.052 610.163C516.608 648.368 455.089 648.368 417.644 610.163L379.114 570.85L379.107 570.843L339.794 532.313C301.59 494.869 301.59 433.349 339.794 395.905L379.107 357.374L379.107 357.375L379.114 357.367L417.644 318.055C455.089 279.85 516.608 279.85 554.052 318.055L592.583 357.367Z" stroke="#00C8E6"/>
</g>
<g opacity="0.989899">
<path d="M624.428 321.947L624.435 321.954L698.063 394.117C736.267 431.561 736.267 493.08 698.063 530.525L624.435 602.687L624.428 602.694L552.266 676.322C514.821 714.526 453.302 714.526 415.858 676.322L343.695 602.694L343.688 602.687L270.061 530.525C231.856 493.081 231.856 431.561 270.061 394.117L343.688 321.954L343.695 321.947L415.858 248.32C453.302 210.115 514.821 210.115 552.266 248.32L624.428 321.947Z" stroke="#00C8E6"/>
<path d="M590.796 355.579L590.803 355.586L630.116 394.117C668.32 431.561 668.32 493.08 630.115 530.525L590.803 569.055L590.796 569.062L552.265 608.375C514.821 646.579 453.301 646.579 415.857 608.375L377.327 569.062L377.32 569.055L338.007 530.525C299.802 493.08 299.802 431.561 338.007 394.117L377.32 355.586L377.32 355.586L377.327 355.579L415.857 316.266C453.302 278.062 514.821 278.062 552.265 316.266L590.796 355.579Z" stroke="#00C8E6"/>
</g>
<path d="M622.637 320.159L622.645 320.166L696.272 392.328C734.477 429.773 734.477 491.292 696.272 528.736L622.645 600.899L622.637 600.906L550.475 674.534C513.031 712.738 451.511 712.738 414.067 674.534L341.905 600.906L341.898 600.899L268.27 528.736C230.066 491.292 230.065 429.773 268.27 392.329L341.898 320.166L341.905 320.159L414.067 246.531C451.511 208.327 513.031 208.327 550.475 246.531L622.637 320.159Z" stroke="#00C8E6"/>
<path d="M589.005 353.791L589.012 353.798L628.325 392.329C666.529 429.773 666.529 491.292 628.325 528.736L589.012 567.267L589.005 567.274L550.475 606.587C513.03 644.791 451.511 644.791 414.067 606.587L375.536 567.274L375.529 567.267L336.216 528.736C298.012 491.292 298.012 429.773 336.216 392.329L375.529 353.798L375.529 353.798L375.536 353.791L414.067 314.478C451.511 276.274 513.03 276.274 550.475 314.478L589.005 353.791Z" stroke="#00C8E6"/>
<defs>
<filter id="filter0_f_33_1062" x="0.133301" y="-8.83362" width="1218.1" height="1218.07" filterUnits="userSpaceOnUse" color-interpolation-filters="sRGB">
<feFlood flood-opacity="0" result="BackgroundImageFix"/>
<feBlend mode="normal" in="SourceGraphic" in2="BackgroundImageFix" result="shape"/>
<feGaussianBlur stdDeviation="100" result="effect1_foregroundBlur_33_1062"/>
</filter>
</defs>
</svg>
