<svg width="200" height="200" viewBox="0 0 200 200" fill="none" xmlns="http://www.w3.org/2000/svg">
<path d="M9.13667 124.333L4.05667 127.803L9.13667 124.333Z" fill="#00C8E6"/>
<path d="M9.13667 124.333L4.05667 127.803" stroke="#00C8E6" stroke-width="5" stroke-miterlimit="10"/>
<path d="M4.20667 67.8267L27.7533 51.7467C32.31 48.63 38.5333 49.8033 41.65 54.3633L58.2533 78.68C61.3733 83.24 60.1967 89.4633 55.6367 92.58L17.6467 118.523" stroke="white" stroke-width="5" stroke-miterlimit="10"/>
<path d="M44.2067 22.0966L49.3633 18.5733L44.2067 22.0966Z" fill="#00C8E6"/>
<path d="M44.2067 22.0966L49.3633 18.5733" stroke="#00C8E6" stroke-width="5" stroke-miterlimit="10"/>
<path d="M10.7633 44.9334L36.0133 27.6934L10.7633 44.9334Z" fill="#00C8E6"/>
<path d="M10.7633 44.9334L36.0133 27.6934" stroke="#00C8E6" stroke-width="5" stroke-miterlimit="10"/>
<path d="M81.16 101.777L115.347 78.43" stroke="#00C8E6" stroke-width="5" stroke-miterlimit="10"/>
<path d="M41.0633 158.75L45.9133 155.437" stroke="#00C8E6" stroke-width="5" stroke-miterlimit="10"/>
<path d="M27.32 168.133L32.58 164.54" stroke="#00C8E6" stroke-width="5" stroke-miterlimit="10"/>
<path d="M7.43001 181.72L18.3933 174.233" stroke="#00C8E6" stroke-width="5" stroke-miterlimit="10"/>
<path d="M147.91 182.32L172.54 165.5L147.91 182.32Z" fill="#00C8E6"/>
<path d="M147.91 182.32L172.54 165.5" stroke="#00C8E6" stroke-width="5" stroke-miterlimit="10"/>
<path d="M134.01 191.817L138.957 188.437L134.01 191.817Z" fill="#00C8E6"/>
<path d="M134.01 191.817L138.957 188.437" stroke="#00C8E6" stroke-width="5" stroke-miterlimit="10"/>
<path d="M187.537 175.26L192.563 171.827L187.537 175.26Z" fill="#00C8E6"/>
<path d="M187.537 175.26L192.563 171.827" stroke="#00C8E6" stroke-width="5" stroke-miterlimit="10"/>
<path d="M157.85 195.53L179.103 181.02L157.85 195.53Z" fill="#00C8E6"/>
<path d="M157.85 195.53L179.103 181.02" stroke="#00C8E6" stroke-width="5" stroke-miterlimit="10"/>
<path d="M190.863 59L195.943 55.53L190.863 59Z" fill="#00C8E6"/>
<path d="M190.863 59L195.943 55.53" stroke="#00C8E6" stroke-width="5" stroke-miterlimit="10"/>
<path d="M195.797 115.507L172.247 131.587C167.69 134.703 161.467 133.53 158.353 128.97L141.747 104.653C138.627 100.093 139.8 93.87 144.363 90.7533L182.353 64.81" stroke="white" stroke-width="5" stroke-miterlimit="10"/>
<path d="M56.88 76.6666C73.97 76.6666 83.3933 72.3233 90.39 63.34C92.63 60.4633 95.3233 57.97 98.4933 56.16L116.633 45.7933C118.647 44.6466 120 42.48 120 40C120 36.32 117.013 33.3333 113.333 33.3333C112.13 33.3333 111.017 33.6766 110.033 34.21L84.2367 48.1266" stroke="white" stroke-width="5" stroke-miterlimit="10"/>
<path d="M119.097 43.3333C135.367 43.3333 147.713 46.2767 153.333 48.21V16.1733C153.333 16.1733 145.52 10 130 10C108.957 10 98.9567 21.25 90 45.0167" stroke="white" stroke-width="5" stroke-miterlimit="10"/>
<path d="M101.19 54.62C131.387 57.2667 143.333 65.9033 143.333 65.9033V45.62" stroke="white" stroke-width="5" stroke-miterlimit="10"/>
<path d="M108.15 16.3733L100.983 12.3967C98.15 10.8233 94.9667 10 91.7267 10C86.38 10 81.2767 12.2467 77.6633 16.1867L42.0833 55" stroke="white" stroke-width="5" stroke-miterlimit="10"/>
<path d="M157.69 128L145.73 145.127C142.07 150.363 136.423 153.877 130.103 154.837L122.253 156.027C119.453 156.45 116.727 157.227 114.127 158.343L95.96 166.127C95.15 166.473 94.2633 166.667 93.3333 166.667C89.6533 166.667 86.6667 163.68 86.6667 160C86.6667 157.25 88.3333 154.89 90.71 153.87L116.187 142.953" stroke="white" stroke-width="5" stroke-miterlimit="10"/>
<path d="M70 152.523V142.693C70 133.04 75.99 124.5 84.9533 120.917C109.303 111.183 119.443 108.82 142.387 105.6" stroke="white" stroke-width="5" stroke-miterlimit="10"/>
<path d="M33.3333 190H26.6667V196.667H33.3333V190Z" fill="#00C8E6"/>
<path d="M43.3333 183.333H36.6667V190H43.3333V183.333Z" fill="#00C8E6"/>
<path d="M53.3333 176.667H46.6667V183.333H53.3333V176.667Z" fill="#00C8E6"/>
<path d="M46.6667 123.333H40V130H46.6667V123.333Z" fill="#00C8E6"/>
<path d="M56.6667 116.667H50V123.333H56.6667V116.667Z" fill="#00C8E6"/>
<path d="M180 40H173.333V46.6667H180V40Z" fill="#00C8E6"/>
<path d="M190 33.3333H183.333V40H190V33.3333Z" fill="#00C8E6"/>
<path d="M115.6 157.753C116.297 160.047 116.667 162.48 116.667 165C116.667 178.81 105.477 190 91.6667 190C77.8567 190 66.6667 178.81 66.6667 165C66.6667 151.19 77.8567 140 91.6667 140C98.06 140 103.887 142.4 108.307 146.343" stroke="white" stroke-width="5" stroke-miterlimit="10"/>
</svg>
